<?xml version="1.0" encoding="utf-8" standalone="no"?>
<!DOCTYPE svg PUBLIC "-//W3C//DTD SVG 1.1//EN"
  "http://www.w3.org/Graphics/SVG/1.1/DTD/svg11.dtd">
<svg xmlns:xlink="http://www.w3.org/1999/xlink" width="574.94pt" height="378.5pt" viewBox="0 0 574.94 378.5" xmlns="http://www.w3.org/2000/svg" version="1.1">
 <metadata>
  <rdf:RDF xmlns:dc="http://purl.org/dc/elements/1.1/" xmlns:cc="http://creativecommons.org/ns#" xmlns:rdf="http://www.w3.org/1999/02/22-rdf-syntax-ns#">
   <cc:Work>
    <dc:type rdf:resource="http://purl.org/dc/dcmitype/StillImage"/>
    <dc:date>2026-07-06T12:13:16.291455</dc:date>
    <dc:format>image/svg+xml</dc:format>
    <dc:creator>
     <cc:Agent>
      <dc:title>Matplotlib v3.11.0, https://matplotlib.org/</dc:title>
     </cc:Agent>
    </dc:creator>
   </cc:Work>
  </rdf:RDF>
 </metadata>
 <defs>
  <style type="text/css">*{stroke-linejoin: round; stroke-linecap: butt}</style>
 </defs>
 <g id="figure_1">
  <g id="patch_1">
   <path d="M 0 378.5 
L 574.94 378.5 
L 574.94 0 
L 0 0 
z
" style="fill: #fcfcfd"/>
  </g>
  <g id="axes_1">
   <g id="patch_2">
    <path d="M 76.7 334.8 
L 567.74 334.8 
L 567.74 54 
L 76.7 54 
z
" style="fill: #ffffff"/>
   </g>
   <g id="matplotlib.axis_1">
    <g id="xtick_1">
     <g id="line2d_1">
      <path d="M 99.02 334.8 
L 99.02 54 
" clip-path="url(#pc16ff5dda3)" style="fill: none; stroke: #e6e8f0; stroke-width: 0.8; stroke-linecap: round"/>
     </g>
     <g id="text_1">
      <!-- 2025 -->
      <g style="fill: #262626" transform="translate(88.02 353.1) scale(0.11 -0.11)">
       <defs>
        <path id="NanumGothicCoding-13" d="M 442 -301 
Q 378 -301 342 -297 
Q 307 -294 291 -278 
Q 275 -262 272 -227 
Q 269 -192 269 -122 
L 269 19 
Q 269 102 320 147 
L 1286 1146 
Q 2317 2246 2310 2854 
Q 2317 3277 2125 3501 
Q 1907 3744 1523 3757 
Q 1069 3757 602 3469 
Q 518 3424 499 3507 
L 461 3718 
Q 442 3827 525 3859 
Q 781 4000 1017 4070 
Q 1254 4141 1510 4141 
Q 2022 4141 2387 3834 
Q 2790 3501 2790 2886 
Q 2790 2650 2681 2365 
Q 2573 2080 2336 1760 
Q 2112 1478 1971 1308 
Q 1830 1139 1600 890 
Q 1350 627 1206 480 
Q 1062 333 826 96 
L 2803 96 
Q 2899 90 2893 6 
L 2893 -218 
Q 2893 -301 2810 -301 
L 442 -301 
z
" transform="scale(0.015625)"/>
        <path id="NanumGothicCoding-11" d="M 1747 1242 
L 1453 1242 
Q 1376 1242 1376 1331 
L 1376 2355 
Q 1376 2445 1453 2445 
L 1747 2445 
Q 1824 2445 1824 2355 
L 1824 1331 
Q 1824 1242 1747 1242 
z
M 2470 1907 
Q 2483 3731 1600 3731 
Q 717 3731 730 1907 
Q 717 77 1600 77 
Q 2483 77 2470 1907 
z
M 2906 1907 
Q 2906 -326 1606 -326 
Q 294 -326 294 1907 
Q 294 2726 544 3354 
Q 909 4141 1606 4141 
Q 2285 4141 2662 3354 
Q 2790 3040 2848 2637 
Q 2906 2234 2906 1907 
z
" transform="scale(0.015625)"/>
        <path id="NanumGothicCoding-16" d="M 576 -205 
Q 493 -173 493 -90 
L 493 179 
Q 493 288 576 243 
Q 800 134 979 89 
Q 1158 45 1350 45 
Q 1773 45 2112 320 
Q 2464 621 2470 1062 
Q 2470 2042 1414 2042 
Q 1267 2042 1100 2013 
Q 934 1984 704 1907 
Q 634 1888 589 1923 
Q 544 1958 544 2029 
L 582 3910 
Q 582 4045 604 4067 
Q 627 4090 755 4090 
L 2611 4090 
Q 2694 4090 2694 4000 
L 2694 3789 
Q 2694 3699 2611 3699 
L 1005 3699 
Q 998 3296 988 2998 
Q 979 2701 973 2317 
Q 1254 2419 1581 2419 
Q 2099 2419 2496 2074 
Q 2899 1702 2899 1152 
Q 2899 486 2445 51 
Q 1965 -346 1350 -346 
Q 1184 -346 989 -317 
Q 794 -288 576 -205 
z
" transform="scale(0.015625)"/>
       </defs>
       <use xlink:href="#NanumGothicCoding-13"/>
       <use xlink:href="#NanumGothicCoding-11" transform="translate(50 0)"/>
       <use xlink:href="#NanumGothicCoding-13" transform="translate(100 0)"/>
       <use xlink:href="#NanumGothicCoding-16" transform="translate(150 0)"/>
      </g>
     </g>
    </g>
    <g id="xtick_2">
     <g id="line2d_2">
      <path d="M 190.665033 334.8 
L 190.665033 54 
" clip-path="url(#pc16ff5dda3)" style="fill: none; stroke: #e6e8f0; stroke-width: 0.8; stroke-linecap: round"/>
     </g>
     <g id="text_2">
      <!-- Feb -->
      <g style="fill: #262626" transform="translate(182.415033 353.1) scale(0.11 -0.11)">
       <defs>
        <path id="NanumGothicCoding-27" d="M 941 -186 
Q 941 -275 851 -275 
L 563 -275 
Q 474 -275 474 -186 
L 474 3904 
Q 474 4045 496 4067 
Q 518 4090 659 4090 
L 2630 4090 
Q 2720 4090 2720 4000 
L 2720 3782 
Q 2720 3693 2630 3693 
L 941 3693 
L 941 2170 
L 2541 2170 
Q 2630 2170 2630 2080 
L 2630 1850 
Q 2630 1760 2541 1760 
L 941 1760 
L 941 -186 
z
" transform="scale(0.015625)"/>
        <path id="NanumGothicCoding-46" d="M 2458 1536 
Q 2458 1734 2410 1939 
Q 2362 2144 2266 2298 
Q 2042 2669 1626 2669 
Q 1210 2669 973 2291 
Q 864 2106 806 1907 
Q 749 1709 742 1536 
L 2458 1536 
z
M 736 1171 
Q 730 966 810 726 
Q 890 486 1030 336 
Q 1171 186 1350 96 
Q 1530 6 1786 6 
Q 2010 6 2202 51 
Q 2394 96 2586 198 
Q 2662 230 2669 154 
L 2669 -141 
Q 2669 -192 2598 -224 
Q 2400 -301 2211 -339 
Q 2022 -378 1754 -378 
Q 1069 -378 665 80 
Q 262 538 262 1312 
Q 262 2016 659 2541 
Q 1075 3034 1632 3034 
Q 1978 3034 2205 2912 
Q 2432 2790 2611 2541 
Q 2931 2112 2931 1376 
Q 2931 1299 2928 1257 
Q 2925 1216 2905 1197 
Q 2886 1178 2838 1174 
Q 2790 1171 2701 1171 
L 736 1171 
z
" transform="scale(0.015625)"/>
        <path id="NanumGothicCoding-43" d="M 397 4371 
Q 397 4454 486 4454 
L 736 4454 
Q 826 4454 826 4371 
L 826 2464 
Q 947 2714 1174 2874 
Q 1402 3034 1722 3034 
Q 2323 3034 2656 2531 
Q 2989 2029 2989 1427 
Q 2989 1088 2915 781 
Q 2842 474 2669 208 
Q 2496 -58 2256 -198 
Q 2016 -339 1722 -339 
Q 1088 -339 826 275 
L 826 -192 
Q 826 -275 736 -275 
L 486 -275 
Q 397 -275 397 -192 
L 397 4371 
z
M 2534 1357 
Q 2541 1542 2499 1782 
Q 2458 2022 2349 2227 
Q 2240 2432 2080 2553 
Q 1920 2675 1683 2675 
Q 1446 2675 1286 2553 
Q 1126 2432 1020 2227 
Q 915 2022 876 1782 
Q 838 1542 838 1357 
Q 838 1158 876 924 
Q 915 691 1020 483 
Q 1126 275 1286 153 
Q 1446 32 1683 32 
Q 1920 32 2080 153 
Q 2240 275 2345 483 
Q 2451 691 2496 924 
Q 2541 1158 2534 1357 
z
" transform="scale(0.015625)"/>
       </defs>
       <use xlink:href="#NanumGothicCoding-27"/>
       <use xlink:href="#NanumGothicCoding-46" transform="translate(50 0)"/>
       <use xlink:href="#NanumGothicCoding-43" transform="translate(100 0)"/>
      </g>
     </g>
    </g>
    <g id="xtick_3">
     <g id="line2d_3">
      <path d="M 273.441192 334.8 
L 273.441192 54 
" clip-path="url(#pc16ff5dda3)" style="fill: none; stroke: #e6e8f0; stroke-width: 0.8; stroke-linecap: round"/>
     </g>
     <g id="text_3">
      <!-- Mar -->
      <g style="fill: #262626" transform="translate(265.191192 353.1) scale(0.11 -0.11)">
       <defs>
        <path id="NanumGothicCoding-2e" d="M 2867 -186 
Q 2867 -275 2778 -275 
L 2534 -275 
Q 2445 -275 2445 -186 
L 2445 3674 
L 2362 3187 
Q 1869 19 1869 13 
Q 1837 -51 1773 -51 
L 1421 -51 
Q 1376 -51 1357 -35 
Q 1338 -19 1325 13 
L 832 3187 
Q 819 3283 793 3414 
Q 768 3546 749 3674 
L 749 -186 
Q 749 -275 659 -275 
L 416 -275 
Q 326 -275 326 -186 
L 326 3910 
Q 326 4045 348 4067 
Q 371 4090 506 4090 
L 986 4090 
Q 1037 4090 1059 4077 
Q 1082 4064 1101 4013 
L 1536 966 
L 1600 480 
L 1664 966 
L 2099 4019 
Q 2125 4090 2202 4090 
L 2688 4090 
Q 2822 4090 2844 4067 
Q 2867 4045 2867 3910 
L 2867 -186 
z
" transform="scale(0.015625)"/>
        <path id="NanumGothicCoding-42" d="M 2368 1402 
L 2246 1402 
Q 1888 1414 1645 1376 
Q 1402 1338 1229 1254 
Q 1018 1165 902 976 
Q 787 787 787 589 
Q 787 474 838 342 
Q 890 211 998 141 
Q 1184 -13 1414 -13 
Q 1638 -13 1785 73 
Q 1933 160 2073 342 
Q 2214 525 2291 755 
Q 2368 986 2368 1203 
L 2368 1402 
z
M 723 2400 
Q 691 2381 662 2390 
Q 634 2400 634 2432 
L 634 2682 
Q 634 2765 723 2803 
Q 941 2931 1168 2982 
Q 1395 3034 1658 3034 
Q 2214 3046 2508 2713 
Q 2803 2381 2803 1888 
L 2803 397 
Q 2803 218 2809 77 
Q 2816 -64 2829 -192 
Q 2829 -275 2739 -275 
L 2509 -275 
Q 2419 -275 2419 -192 
L 2419 262 
Q 2285 -38 2009 -208 
Q 1734 -378 1363 -378 
Q 813 -378 512 -19 
Q 410 96 358 256 
Q 307 416 307 570 
Q 307 902 489 1180 
Q 672 1459 1050 1600 
Q 1414 1766 2285 1766 
L 2368 1766 
L 2368 1914 
Q 2368 2240 2185 2454 
Q 2003 2669 1658 2669 
Q 1382 2669 1168 2608 
Q 954 2547 723 2400 
z
" transform="scale(0.015625)"/>
        <path id="NanumGothicCoding-53" d="M 1946 122 
Q 2035 122 2035 32 
L 2035 -186 
Q 2035 -275 1946 -275 
L 506 -275 
Q 416 -275 416 -186 
L 416 32 
Q 416 122 506 122 
L 883 122 
L 883 2534 
L 390 2534 
Q 301 2534 301 2624 
L 301 2842 
Q 301 2931 390 2931 
L 1165 2931 
Q 1254 2931 1254 2842 
L 1254 2214 
Q 1645 3021 2381 3021 
Q 2758 3021 3059 2874 
Q 3123 2848 3129 2809 
Q 3136 2771 3117 2726 
L 3040 2496 
Q 3021 2451 2992 2454 
Q 2963 2458 2918 2483 
Q 2637 2618 2317 2618 
Q 1792 2592 1485 2048 
Q 1312 1715 1312 1178 
L 1312 122 
L 1946 122 
z
" transform="scale(0.015625)"/>
       </defs>
       <use xlink:href="#NanumGothicCoding-2e"/>
       <use xlink:href="#NanumGothicCoding-42" transform="translate(50 0)"/>
       <use xlink:href="#NanumGothicCoding-53" transform="translate(100 0)"/>
      </g>
     </g>
    </g>
    <g id="xtick_4">
     <g id="line2d_4">
      <path d="M 365.086225 334.8 
L 365.086225 54 
" clip-path="url(#pc16ff5dda3)" style="fill: none; stroke: #e6e8f0; stroke-width: 0.8; stroke-linecap: round"/>
     </g>
     <g id="text_4">
      <!-- Apr -->
      <g style="fill: #262626" transform="translate(356.836225 353.1) scale(0.11 -0.11)">
       <defs>
        <path id="NanumGothicCoding-22" d="M 2170 1402 
L 1619 3603 
L 1056 1402 
L 2170 1402 
z
M 3046 -186 
Q 3078 -275 2989 -275 
L 2688 -275 
Q 2650 -275 2621 -262 
Q 2592 -250 2566 -186 
L 2259 992 
L 954 992 
L 627 -186 
Q 602 -250 573 -262 
Q 544 -275 506 -275 
L 205 -275 
Q 115 -275 147 -186 
L 1325 4013 
Q 1357 4090 1440 4090 
L 1830 4090 
Q 1914 4090 1946 4013 
L 3046 -186 
z
" transform="scale(0.015625)"/>
        <path id="NanumGothicCoding-51" d="M 397 2848 
Q 397 2931 486 2931 
L 736 2931 
Q 826 2931 826 2848 
L 826 2381 
Q 1088 2995 1722 2995 
Q 2016 2995 2256 2854 
Q 2496 2714 2669 2448 
Q 2842 2182 2915 1875 
Q 2989 1568 2989 1229 
Q 2989 627 2656 124 
Q 2323 -378 1722 -378 
Q 1402 -378 1174 -218 
Q 947 -58 826 173 
L 826 -1171 
Q 826 -1254 736 -1254 
L 486 -1254 
Q 397 -1254 397 -1171 
L 397 2848 
z
M 2534 1299 
Q 2541 1498 2496 1731 
Q 2451 1965 2345 2173 
Q 2240 2381 2080 2502 
Q 1920 2624 1683 2624 
Q 1446 2624 1286 2502 
Q 1126 2381 1020 2173 
Q 915 1965 876 1731 
Q 838 1498 838 1299 
Q 838 1114 876 874 
Q 915 634 1020 429 
Q 1126 224 1286 102 
Q 1446 -19 1683 -19 
Q 1920 -19 2080 102 
Q 2240 224 2349 429 
Q 2458 634 2499 874 
Q 2541 1114 2534 1299 
z
" transform="scale(0.015625)"/>
       </defs>
       <use xlink:href="#NanumGothicCoding-22"/>
       <use xlink:href="#NanumGothicCoding-51" transform="translate(50 0)"/>
       <use xlink:href="#NanumGothicCoding-53" transform="translate(100 0)"/>
      </g>
     </g>
    </g>
    <g id="xtick_5">
     <g id="line2d_5">
      <path d="M 453.774967 334.8 
L 453.774967 54 
" clip-path="url(#pc16ff5dda3)" style="fill: none; stroke: #e6e8f0; stroke-width: 0.8; stroke-linecap: round"/>
     </g>
     <g id="text_5">
      <!-- May -->
      <g style="fill: #262626" transform="translate(445.524967 353.1) scale(0.11 -0.11)">
       <defs>
        <path id="NanumGothicCoding-5a" d="M 365 -1222 
Q 288 -1203 301 -1126 
L 320 -890 
Q 320 -813 397 -845 
Q 506 -883 634 -883 
Q 768 -883 880 -851 
Q 992 -819 1050 -749 
Q 1120 -659 1206 -454 
Q 1293 -250 1376 13 
Q 1088 794 326 2842 
Q 314 2874 326 2902 
Q 339 2931 378 2931 
L 653 2931 
Q 742 2931 781 2842 
L 1587 589 
L 2419 2842 
Q 2451 2931 2547 2931 
L 2822 2931 
Q 2861 2931 2873 2902 
Q 2886 2874 2874 2842 
L 1606 -474 
Q 1536 -659 1449 -806 
Q 1363 -954 1274 -1043 
Q 1158 -1152 1017 -1206 
Q 877 -1261 723 -1261 
Q 627 -1261 547 -1254 
Q 467 -1248 365 -1222 
z
" transform="scale(0.015625)"/>
       </defs>
       <use xlink:href="#NanumGothicCoding-2e"/>
       <use xlink:href="#NanumGothicCoding-42" transform="translate(50 0)"/>
       <use xlink:href="#NanumGothicCoding-5a" transform="translate(100 0)"/>
      </g>
     </g>
    </g>
    <g id="xtick_6">
     <g id="line2d_6">
      <path d="M 545.42 334.8 
L 545.42 54 
" clip-path="url(#pc16ff5dda3)" style="fill: none; stroke: #e6e8f0; stroke-width: 0.8; stroke-linecap: round"/>
     </g>
     <g id="text_6">
      <!-- Jun -->
      <g style="fill: #262626" transform="translate(537.17 353.1) scale(0.11 -0.11)">
       <defs>
        <path id="NanumGothicCoding-2b" d="M 774 1056 
Q 870 1056 870 966 
L 870 640 
Q 870 346 947 230 
Q 1005 141 1114 90 
Q 1222 32 1382 32 
Q 1542 32 1651 90 
Q 1760 141 1818 230 
Q 1894 346 1894 685 
L 1894 3693 
L 666 3693 
Q 570 3693 570 3782 
L 570 4000 
Q 570 4090 666 4090 
L 2266 4090 
Q 2362 4090 2362 4000 
L 2362 634 
Q 2362 -346 1427 -346 
Q 397 -346 397 634 
L 403 966 
Q 403 1056 499 1056 
L 774 1056 
z
" transform="scale(0.015625)"/>
        <path id="NanumGothicCoding-56" d="M 2816 -186 
Q 2816 -275 2726 -275 
L 2496 -275 
Q 2406 -275 2406 -186 
L 2406 346 
Q 2240 -38 1997 -208 
Q 1754 -378 1421 -378 
Q 384 -378 384 960 
L 384 2842 
Q 384 2931 474 2931 
L 730 2931 
Q 819 2931 819 2842 
L 819 1075 
Q 819 -13 1491 -13 
Q 1645 -13 1805 92 
Q 1965 198 2099 380 
Q 2234 563 2304 806 
Q 2374 1050 2368 1318 
L 2368 2842 
Q 2368 2931 2458 2931 
L 2714 2931 
Q 2803 2931 2803 2842 
L 2803 525 
Q 2803 314 2806 147 
Q 2810 -19 2816 -186 
z
" transform="scale(0.015625)"/>
        <path id="NanumGothicCoding-4f" d="M 2797 -186 
Q 2797 -275 2707 -275 
L 2451 -275 
Q 2362 -275 2362 -186 
L 2362 1574 
Q 2362 2163 2202 2409 
Q 2042 2656 1658 2656 
Q 1318 2656 1088 2384 
Q 858 2112 858 1562 
L 858 -186 
Q 858 -275 768 -275 
L 512 -275 
Q 422 -275 422 -186 
L 422 2118 
Q 422 2394 419 2547 
Q 416 2701 403 2842 
Q 397 2886 425 2908 
Q 454 2931 493 2931 
L 723 2931 
Q 813 2931 813 2842 
L 813 2483 
Q 966 2758 1187 2889 
Q 1408 3021 1696 3021 
Q 2259 3021 2528 2669 
Q 2797 2317 2797 1677 
L 2797 -186 
z
" transform="scale(0.015625)"/>
       </defs>
       <use xlink:href="#NanumGothicCoding-2b"/>
       <use xlink:href="#NanumGothicCoding-56" transform="translate(50 0)"/>
       <use xlink:href="#NanumGothicCoding-4f" transform="translate(100 0)"/>
      </g>
     </g>
    </g>
    <g id="text_7">
     <!-- 월 -->
     <g style="fill: #1f2430" transform="translate(316.22 368.9) scale(0.12 -0.12)">
      <defs>
       <path id="NanumGothicCoding-a18" d="M 3834 3942 
Q 3834 3725 3718 3542 
Q 3603 3360 3408 3225 
Q 3213 3091 2947 3017 
Q 2682 2944 2374 2944 
Q 2080 2944 1817 3017 
Q 1555 3091 1360 3222 
Q 1165 3354 1053 3536 
Q 941 3718 941 3942 
Q 941 4192 1053 4377 
Q 1165 4563 1360 4691 
Q 1555 4819 1817 4883 
Q 2080 4947 2374 4947 
Q 2656 4947 2918 4883 
Q 3181 4819 3385 4691 
Q 3590 4563 3712 4374 
Q 3834 4186 3834 3942 
z
M 5472 -838 
Q 5472 -870 5443 -892 
Q 5414 -915 5389 -915 
L 2022 -915 
Q 1722 -915 1629 -803 
Q 1536 -691 1536 -422 
L 1536 -134 
Q 1536 134 1648 227 
Q 1760 320 2048 320 
L 4755 320 
Q 4845 320 4870 345 
Q 4896 371 4896 467 
L 4896 640 
Q 4896 736 4873 761 
Q 4851 787 4762 787 
L 1613 787 
Q 1581 787 1552 806 
Q 1523 826 1523 858 
L 1523 1088 
Q 1523 1120 1552 1139 
Q 1581 1158 1613 1158 
L 4832 1158 
Q 4986 1158 5082 1136 
Q 5178 1114 5235 1062 
Q 5293 1011 5315 918 
Q 5338 826 5338 691 
L 5338 403 
Q 5338 134 5226 41 
Q 5114 -51 4826 -51 
L 2112 -51 
Q 2022 -51 2000 -76 
Q 1978 -102 1978 -198 
L 1978 -397 
Q 1978 -486 2003 -515 
Q 2029 -544 2118 -544 
L 5382 -544 
Q 5414 -544 5443 -563 
Q 5472 -582 5472 -614 
L 5472 -838 
z
M 3411 3949 
Q 3411 4122 3318 4240 
Q 3226 4358 3075 4432 
Q 2925 4506 2739 4541 
Q 2554 4576 2374 4576 
Q 2189 4576 2006 4541 
Q 1824 4506 1680 4429 
Q 1536 4352 1449 4233 
Q 1363 4115 1363 3949 
Q 1363 3789 1446 3667 
Q 1530 3546 1670 3466 
Q 1811 3386 1993 3347 
Q 2176 3309 2374 3309 
Q 2554 3309 2739 3350 
Q 2925 3392 3075 3475 
Q 3226 3558 3318 3676 
Q 3411 3795 3411 3949 
z
M 4902 2029 
L 4902 4915 
Q 4902 5005 4992 5005 
L 5254 5005 
Q 5344 5005 5344 4915 
L 5344 1555 
Q 5344 1466 5254 1466 
L 4992 1466 
Q 4902 1466 4902 1555 
L 4902 1658 
L 3616 1658 
Q 3533 1658 3533 1734 
L 3533 1952 
Q 3533 2029 3616 2029 
L 4902 2029 
z
M 4384 2778 
Q 4416 2784 4445 2768 
Q 4474 2752 4480 2726 
L 4506 2509 
Q 4525 2426 4429 2413 
Q 4026 2362 3558 2320 
Q 3091 2278 2630 2259 
L 2630 1427 
Q 2630 1389 2608 1360 
Q 2586 1331 2547 1331 
L 2272 1331 
Q 2240 1331 2214 1360 
Q 2189 1389 2189 1427 
L 2189 2240 
Q 1997 2234 1776 2224 
Q 1555 2214 1340 2211 
Q 1126 2208 928 2205 
Q 730 2202 582 2208 
Q 544 2208 515 2233 
Q 486 2259 486 2291 
L 486 2509 
Q 486 2547 515 2569 
Q 544 2592 582 2592 
Q 762 2592 1014 2595 
Q 1267 2598 1536 2604 
Q 1805 2611 2057 2617 
Q 2310 2624 2490 2630 
Q 2714 2637 2963 2653 
Q 3213 2669 3462 2688 
Q 3712 2707 3949 2729 
Q 4186 2752 4384 2778 
z
" transform="scale(0.015625)"/>
      </defs>
      <use xlink:href="#NanumGothicCoding-a18"/>
     </g>
    </g>
   </g>
   <g id="matplotlib.axis_2">
    <g id="ytick_1">
     <g id="line2d_7">
      <path d="M 76.7 332.988083 
L 567.74 332.988083 
" clip-path="url(#pc16ff5dda3)" style="fill: none; stroke: #e6e8f0; stroke-width: 0.8; stroke-linecap: round"/>
     </g>
     <g id="text_8">
      <!-- 13.0백만 -->
      <g style="fill: #262626" transform="translate(23.2 337.388083) scale(0.11 -0.11)">
       <defs>
        <path id="NanumGothicCoding-12" d="M 2022 -211 
Q 2022 -301 1933 -301 
L 1670 -301 
Q 1581 -301 1581 -211 
L 1581 3565 
Q 1382 3398 1209 3251 
Q 1037 3104 845 2938 
Q 774 2880 717 2950 
L 589 3104 
Q 570 3136 570 3171 
Q 570 3206 602 3232 
L 1594 4064 
Q 1619 4090 1670 4090 
L 1843 4090 
Q 1978 4090 2000 4067 
Q 2022 4045 2022 3910 
L 2022 -211 
z
" transform="scale(0.015625)"/>
        <path id="NanumGothicCoding-14" d="M 461 -186 
Q 365 -160 378 -38 
L 403 192 
Q 416 269 506 230 
Q 704 147 928 96 
Q 1152 45 1382 45 
Q 1837 45 2125 262 
Q 2515 538 2515 973 
Q 2509 1798 1222 1798 
L 1088 1798 
Q 1005 1798 1005 1869 
L 1005 2106 
Q 1005 2189 1088 2189 
L 1120 2189 
Q 1536 2189 1914 2330 
Q 2483 2560 2483 3046 
Q 2483 3219 2396 3360 
Q 2310 3501 2125 3597 
Q 2003 3667 1833 3708 
Q 1664 3750 1453 3750 
Q 1254 3750 1056 3692 
Q 858 3635 678 3539 
Q 602 3507 589 3590 
L 563 3821 
Q 550 3910 640 3949 
Q 851 4045 1068 4093 
Q 1286 4141 1498 4141 
Q 2061 4141 2483 3872 
Q 2931 3552 2931 3046 
Q 2931 2643 2650 2368 
Q 2374 2112 1978 2010 
Q 2144 1990 2345 1894 
Q 2547 1798 2669 1664 
Q 2816 1504 2889 1321 
Q 2963 1139 2963 947 
Q 2963 666 2848 432 
Q 2733 198 2496 13 
Q 2259 -173 1987 -259 
Q 1715 -346 1395 -346 
Q 1184 -346 944 -310 
Q 704 -275 461 -186 
z
" transform="scale(0.015625)"/>
        <path id="NanumGothicCoding-f" d="M 1210 -256 
Q 1210 -96 1325 19 
Q 1440 134 1600 134 
Q 1760 134 1872 19 
Q 1984 -96 1984 -256 
Q 1984 -416 1872 -531 
Q 1760 -646 1600 -646 
Q 1440 -646 1325 -531 
Q 1210 -416 1210 -256 
z
" transform="scale(0.015625)"/>
        <path id="NanumGothicCoding-7d4" d="M 1190 1984 
Q 1037 1984 944 2003 
Q 851 2022 800 2076 
Q 749 2131 729 2217 
Q 710 2304 710 2438 
L 710 4704 
Q 710 4736 736 4758 
Q 762 4781 794 4781 
L 1069 4781 
Q 1101 4781 1123 4755 
Q 1146 4730 1146 4704 
L 1146 3725 
L 2707 3725 
L 2707 4698 
Q 2707 4730 2729 4755 
Q 2752 4781 2784 4781 
L 3059 4781 
Q 3091 4781 3116 4758 
Q 3142 4736 3142 4704 
L 3142 2394 
Q 3142 2150 3040 2067 
Q 2938 1984 2656 1984 
L 1190 1984 
z
M 4320 3405 
L 5133 3405 
L 5133 4915 
Q 5133 5005 5222 5005 
L 5466 5005 
Q 5555 5005 5555 4915 
L 5555 1619 
Q 5555 1530 5466 1530 
L 5222 1530 
Q 5133 1530 5133 1619 
L 5133 3021 
L 4320 3021 
L 4320 1702 
Q 4320 1613 4230 1613 
L 3987 1613 
Q 3898 1613 3898 1702 
L 3898 4806 
Q 3898 4896 3987 4896 
L 4230 4896 
Q 4320 4896 4320 4806 
L 4320 3405 
z
M 1632 1114 
Q 1632 1152 1664 1171 
Q 1696 1190 1728 1190 
L 5069 1190 
Q 5370 1190 5462 1078 
Q 5555 966 5555 704 
L 5555 -832 
Q 5555 -922 5466 -922 
L 5203 -922 
Q 5114 -922 5114 -832 
L 5114 672 
Q 5114 762 5085 784 
Q 5056 806 4966 806 
L 1728 806 
Q 1696 806 1664 828 
Q 1632 851 1632 883 
L 1632 1114 
z
M 1146 3347 
L 1146 2515 
Q 1146 2419 1178 2390 
Q 1210 2362 1299 2362 
L 2554 2362 
Q 2643 2362 2675 2390 
Q 2707 2419 2707 2515 
L 2707 3347 
L 1146 3347 
z
" transform="scale(0.015625)"/>
        <path id="NanumGothicCoding-745" d="M 870 4192 
Q 870 4461 972 4553 
Q 1075 4646 1357 4646 
L 3117 4646 
Q 3270 4646 3363 4627 
Q 3456 4608 3510 4557 
Q 3565 4506 3584 4416 
Q 3603 4326 3603 4192 
L 3603 2214 
Q 3603 1946 3500 1853 
Q 3398 1760 3117 1760 
L 1357 1760 
Q 1203 1760 1110 1779 
Q 1018 1798 963 1852 
Q 909 1907 889 1993 
Q 870 2080 870 2214 
L 870 4192 
z
M 1466 4262 
Q 1376 4262 1344 4227 
Q 1312 4192 1312 4096 
L 1312 2310 
Q 1312 2214 1344 2179 
Q 1376 2144 1466 2144 
L 3008 2144 
Q 3098 2144 3130 2179 
Q 3162 2214 3162 2310 
L 3162 4096 
Q 3162 4192 3130 4227 
Q 3098 4262 3008 4262 
L 1466 4262 
z
M 5120 845 
Q 5120 755 5030 755 
L 4768 755 
Q 4678 755 4678 845 
L 4678 4915 
Q 4678 5005 4768 5005 
L 5030 5005 
Q 5120 5005 5120 4915 
L 5120 3085 
L 6003 3085 
Q 6042 3085 6070 3062 
Q 6099 3040 6099 3002 
L 6099 2784 
Q 6099 2752 6070 2726 
Q 6042 2701 6003 2701 
L 5120 2701 
L 5120 845 
z
M 5408 -704 
Q 5408 -742 5376 -761 
Q 5344 -781 5312 -781 
L 2054 -781 
Q 1754 -781 1661 -665 
Q 1568 -550 1568 -288 
L 1568 960 
Q 1568 1050 1658 1050 
L 1920 1050 
Q 2010 1050 2010 960 
L 2010 -262 
Q 2010 -352 2038 -374 
Q 2067 -397 2157 -397 
L 5312 -397 
Q 5344 -397 5376 -419 
Q 5408 -442 5408 -474 
L 5408 -704 
z
" transform="scale(0.015625)"/>
       </defs>
       <use xlink:href="#NanumGothicCoding-12"/>
       <use xlink:href="#NanumGothicCoding-14" transform="translate(50 0)"/>
       <use xlink:href="#NanumGothicCoding-f" transform="translate(100 0)"/>
       <use xlink:href="#NanumGothicCoding-11" transform="translate(150 0)"/>
       <use xlink:href="#NanumGothicCoding-7d4" transform="translate(200 0)"/>
       <use xlink:href="#NanumGothicCoding-745" transform="translate(300 0)"/>
      </g>
     </g>
    </g>
    <g id="ytick_2">
     <g id="line2d_8">
      <path d="M 76.7 298.109995 
L 567.74 298.109995 
" clip-path="url(#pc16ff5dda3)" style="fill: none; stroke: #e6e8f0; stroke-width: 0.8; stroke-linecap: round"/>
     </g>
     <g id="text_9">
      <!-- 13.5백만 -->
      <g style="fill: #262626" transform="translate(23.2 302.509995) scale(0.11 -0.11)">
       <use xlink:href="#NanumGothicCoding-12"/>
       <use xlink:href="#NanumGothicCoding-14" transform="translate(50 0)"/>
       <use xlink:href="#NanumGothicCoding-f" transform="translate(100 0)"/>
       <use xlink:href="#NanumGothicCoding-16" transform="translate(150 0)"/>
       <use xlink:href="#NanumGothicCoding-7d4" transform="translate(200 0)"/>
       <use xlink:href="#NanumGothicCoding-745" transform="translate(300 0)"/>
      </g>
     </g>
    </g>
    <g id="ytick_3">
     <g id="line2d_9">
      <path d="M 76.7 263.231907 
L 567.74 263.231907 
" clip-path="url(#pc16ff5dda3)" style="fill: none; stroke: #e6e8f0; stroke-width: 0.8; stroke-linecap: round"/>
     </g>
     <g id="text_10">
      <!-- 14.0백만 -->
      <g style="fill: #262626" transform="translate(23.2 267.631907) scale(0.11 -0.11)">
       <defs>
        <path id="NanumGothicCoding-15" d="M 1907 1216 
L 1907 3622 
L 570 1216 
L 1907 1216 
z
M 2342 -211 
Q 2342 -301 2253 -301 
L 1997 -301 
Q 1907 -301 1907 -211 
L 1907 826 
L 346 826 
Q 211 826 188 848 
Q 166 870 166 1005 
L 166 1203 
Q 166 1261 172 1280 
Q 179 1299 211 1350 
L 1702 4013 
Q 1741 4070 1757 4080 
Q 1773 4090 1843 4090 
L 2163 4090 
Q 2298 4090 2320 4067 
Q 2342 4045 2342 3910 
L 2342 1216 
L 3040 1216 
Q 3130 1216 3130 1126 
L 3130 915 
Q 3130 826 3040 826 
L 2342 826 
L 2342 -211 
z
" transform="scale(0.015625)"/>
       </defs>
       <use xlink:href="#NanumGothicCoding-12"/>
       <use xlink:href="#NanumGothicCoding-15" transform="translate(50 0)"/>
       <use xlink:href="#NanumGothicCoding-f" transform="translate(100 0)"/>
       <use xlink:href="#NanumGothicCoding-11" transform="translate(150 0)"/>
       <use xlink:href="#NanumGothicCoding-7d4" transform="translate(200 0)"/>
       <use xlink:href="#NanumGothicCoding-745" transform="translate(300 0)"/>
      </g>
     </g>
    </g>
    <g id="ytick_4">
     <g id="line2d_10">
      <path d="M 76.7 228.353819 
L 567.74 228.353819 
" clip-path="url(#pc16ff5dda3)" style="fill: none; stroke: #e6e8f0; stroke-width: 0.8; stroke-linecap: round"/>
     </g>
     <g id="text_11">
      <!-- 14.5백만 -->
      <g style="fill: #262626" transform="translate(23.2 232.753819) scale(0.11 -0.11)">
       <use xlink:href="#NanumGothicCoding-12"/>
       <use xlink:href="#NanumGothicCoding-15" transform="translate(50 0)"/>
       <use xlink:href="#NanumGothicCoding-f" transform="translate(100 0)"/>
       <use xlink:href="#NanumGothicCoding-16" transform="translate(150 0)"/>
       <use xlink:href="#NanumGothicCoding-7d4" transform="translate(200 0)"/>
       <use xlink:href="#NanumGothicCoding-745" transform="translate(300 0)"/>
      </g>
     </g>
    </g>
    <g id="ytick_5">
     <g id="line2d_11">
      <path d="M 76.7 193.475731 
L 567.74 193.475731 
" clip-path="url(#pc16ff5dda3)" style="fill: none; stroke: #e6e8f0; stroke-width: 0.8; stroke-linecap: round"/>
     </g>
     <g id="text_12">
      <!-- 15.0백만 -->
      <g style="fill: #262626" transform="translate(23.2 197.875731) scale(0.11 -0.11)">
       <use xlink:href="#NanumGothicCoding-12"/>
       <use xlink:href="#NanumGothicCoding-16" transform="translate(50 0)"/>
       <use xlink:href="#NanumGothicCoding-f" transform="translate(100 0)"/>
       <use xlink:href="#NanumGothicCoding-11" transform="translate(150 0)"/>
       <use xlink:href="#NanumGothicCoding-7d4" transform="translate(200 0)"/>
       <use xlink:href="#NanumGothicCoding-745" transform="translate(300 0)"/>
      </g>
     </g>
    </g>
    <g id="ytick_6">
     <g id="line2d_12">
      <path d="M 76.7 158.597642 
L 567.74 158.597642 
" clip-path="url(#pc16ff5dda3)" style="fill: none; stroke: #e6e8f0; stroke-width: 0.8; stroke-linecap: round"/>
     </g>
     <g id="text_13">
      <!-- 15.5백만 -->
      <g style="fill: #262626" transform="translate(23.2 162.997642) scale(0.11 -0.11)">
       <use xlink:href="#NanumGothicCoding-12"/>
       <use xlink:href="#NanumGothicCoding-16" transform="translate(50 0)"/>
       <use xlink:href="#NanumGothicCoding-f" transform="translate(100 0)"/>
       <use xlink:href="#NanumGothicCoding-16" transform="translate(150 0)"/>
       <use xlink:href="#NanumGothicCoding-7d4" transform="translate(200 0)"/>
       <use xlink:href="#NanumGothicCoding-745" transform="translate(300 0)"/>
      </g>
     </g>
    </g>
    <g id="ytick_7">
     <g id="line2d_13">
      <path d="M 76.7 123.719554 
L 567.74 123.719554 
" clip-path="url(#pc16ff5dda3)" style="fill: none; stroke: #e6e8f0; stroke-width: 0.8; stroke-linecap: round"/>
     </g>
     <g id="text_14">
      <!-- 16.0백만 -->
      <g style="fill: #262626" transform="translate(23.2 128.119554) scale(0.11 -0.11)">
       <defs>
        <path id="NanumGothicCoding-17" d="M 2643 3661 
Q 2502 3712 2358 3741 
Q 2214 3770 2080 3770 
Q 1446 3770 1056 3200 
Q 723 2694 704 1888 
Q 832 2131 1043 2298 
Q 1318 2515 1696 2515 
Q 2118 2515 2451 2227 
Q 2925 1818 2925 1120 
Q 2925 499 2547 77 
Q 2163 -346 1651 -346 
Q 1139 -346 749 70 
Q 275 595 269 1760 
Q 269 2816 736 3469 
Q 1280 4166 2067 4166 
Q 2189 4166 2355 4144 
Q 2522 4122 2669 4077 
Q 2765 4064 2752 3974 
L 2739 3718 
Q 2739 3680 2707 3664 
Q 2675 3648 2643 3661 
z
M 2483 1088 
Q 2490 1453 2310 1741 
Q 2054 2112 1651 2112 
Q 1498 2118 1328 2035 
Q 1158 1952 1040 1792 
Q 922 1632 867 1446 
Q 813 1261 813 1088 
Q 813 723 992 435 
Q 1248 45 1651 45 
Q 2054 45 2310 435 
Q 2477 723 2483 1088 
z
" transform="scale(0.015625)"/>
       </defs>
       <use xlink:href="#NanumGothicCoding-12"/>
       <use xlink:href="#NanumGothicCoding-17" transform="translate(50 0)"/>
       <use xlink:href="#NanumGothicCoding-f" transform="translate(100 0)"/>
       <use xlink:href="#NanumGothicCoding-11" transform="translate(150 0)"/>
       <use xlink:href="#NanumGothicCoding-7d4" transform="translate(200 0)"/>
       <use xlink:href="#NanumGothicCoding-745" transform="translate(300 0)"/>
      </g>
     </g>
    </g>
    <g id="ytick_8">
     <g id="line2d_14">
      <path d="M 76.7 88.841466 
L 567.74 88.841466 
" clip-path="url(#pc16ff5dda3)" style="fill: none; stroke: #e6e8f0; stroke-width: 0.8; stroke-linecap: round"/>
     </g>
     <g id="text_15">
      <!-- 16.5백만 -->
      <g style="fill: #262626" transform="translate(23.2 93.241466) scale(0.11 -0.11)">
       <use xlink:href="#NanumGothicCoding-12"/>
       <use xlink:href="#NanumGothicCoding-17" transform="translate(50 0)"/>
       <use xlink:href="#NanumGothicCoding-f" transform="translate(100 0)"/>
       <use xlink:href="#NanumGothicCoding-16" transform="translate(150 0)"/>
       <use xlink:href="#NanumGothicCoding-7d4" transform="translate(200 0)"/>
       <use xlink:href="#NanumGothicCoding-745" transform="translate(300 0)"/>
      </g>
     </g>
    </g>
    <g id="text_16">
     <!-- 매출합계 -->
     <g style="fill: #1f2430" transform="translate(16.8 218.4) rotate(-90) scale(0.12 -0.12)">
      <defs>
       <path id="NanumGothicCoding-752" d="M 678 4038 
Q 678 4307 780 4400 
Q 883 4493 1165 4493 
L 2656 4493 
Q 2810 4493 2902 4473 
Q 2995 4454 3049 4403 
Q 3104 4352 3123 4262 
Q 3142 4173 3142 4038 
L 3142 1254 
Q 3142 986 3040 893 
Q 2938 800 2656 800 
L 1165 800 
Q 1011 800 918 819 
Q 826 838 771 892 
Q 717 947 697 1033 
Q 678 1120 678 1254 
L 678 4038 
z
M 4320 2586 
L 5133 2586 
L 5133 4915 
Q 5133 5005 5222 5005 
L 5466 5005 
Q 5555 5005 5555 4915 
L 5555 -806 
Q 5555 -896 5466 -896 
L 5222 -896 
Q 5133 -896 5133 -806 
L 5133 2202 
L 4320 2202 
L 4320 -563 
Q 4320 -653 4230 -653 
L 3987 -653 
Q 3898 -653 3898 -563 
L 3898 4806 
Q 3898 4896 3987 4896 
L 4230 4896 
Q 4320 4896 4320 4806 
L 4320 2586 
z
M 1274 4109 
Q 1184 4109 1152 4073 
Q 1120 4038 1120 3942 
L 1120 1350 
Q 1120 1254 1152 1219 
Q 1184 1184 1274 1184 
L 2547 1184 
Q 2637 1184 2669 1219 
Q 2701 1254 2701 1350 
L 2701 3942 
Q 2701 4038 2669 4073 
Q 2637 4109 2547 4109 
L 1274 4109 
z
" transform="scale(0.015625)"/>
       <path id="NanumGothicCoding-b79" d="M 5248 -781 
Q 5248 -813 5219 -835 
Q 5190 -858 5165 -858 
L 1760 -858 
Q 1459 -858 1366 -758 
Q 1274 -659 1274 -390 
L 1274 6 
Q 1274 275 1389 352 
Q 1504 429 1786 429 
L 4544 429 
Q 4634 429 4656 454 
Q 4678 480 4678 576 
L 4678 787 
Q 4678 883 4656 908 
Q 4634 934 4544 934 
L 1350 934 
Q 1318 934 1289 953 
Q 1261 973 1261 1005 
L 1261 1229 
Q 1261 1261 1289 1280 
Q 1318 1299 1350 1299 
L 2963 1299 
L 2963 1907 
L 480 1907 
Q 442 1907 413 1932 
Q 384 1958 384 1990 
L 384 2208 
Q 384 2246 413 2268 
Q 442 2291 480 2291 
L 5920 2291 
Q 5952 2291 5984 2268 
Q 6016 2246 6016 2208 
L 6016 1990 
Q 6016 1958 5984 1932 
Q 5952 1907 5920 1907 
L 3411 1907 
L 3411 1299 
L 4608 1299 
Q 4762 1299 4858 1276 
Q 4954 1254 5011 1203 
Q 5069 1152 5091 1059 
Q 5114 966 5114 832 
L 5114 518 
Q 5114 250 5002 157 
Q 4890 64 4602 64 
L 1843 64 
Q 1754 64 1731 38 
Q 1709 13 1709 -83 
L 1709 -339 
Q 1709 -429 1734 -457 
Q 1760 -486 1850 -486 
L 5158 -486 
Q 5190 -486 5219 -505 
Q 5248 -525 5248 -557 
L 5248 -781 
z
M 4550 3629 
Q 4403 3526 4198 3433 
Q 3994 3341 3750 3251 
Q 3930 3219 4138 3190 
Q 4346 3162 4557 3136 
Q 4768 3110 4973 3091 
Q 5178 3072 5363 3066 
Q 5402 3059 5424 3043 
Q 5446 3027 5434 2970 
L 5402 2771 
Q 5389 2726 5369 2707 
Q 5350 2688 5286 2694 
Q 5075 2707 4790 2742 
Q 4506 2778 4198 2826 
Q 3891 2874 3596 2931 
Q 3302 2989 3078 3040 
Q 2598 2906 2099 2800 
Q 1600 2694 1165 2630 
Q 1101 2618 1078 2634 
Q 1056 2650 1043 2688 
L 998 2886 
Q 979 2982 1062 2995 
Q 1446 3046 1872 3132 
Q 2298 3219 2698 3318 
Q 3098 3418 3440 3526 
Q 3782 3635 3994 3731 
Q 4128 3795 4115 3836 
Q 4102 3878 4013 3878 
L 1466 3878 
Q 1382 3878 1382 3962 
L 1382 4166 
Q 1382 4243 1466 4243 
L 4147 4243 
Q 4410 4243 4586 4201 
Q 4762 4160 4829 4083 
Q 4896 4006 4832 3891 
Q 4768 3776 4550 3629 
z
M 4006 5024 
Q 4102 5024 4102 4934 
L 4102 4730 
Q 4102 4634 4006 4634 
L 2323 4634 
Q 2227 4634 2227 4730 
L 2227 4934 
Q 2227 5024 2323 5024 
L 4006 5024 
z
" transform="scale(0.015625)"/>
       <path id="NanumGothicCoding-ce4" d="M 1946 -845 
Q 1792 -845 1699 -825 
Q 1606 -806 1555 -752 
Q 1504 -698 1485 -611 
Q 1466 -525 1466 -390 
L 1466 1254 
Q 1466 1286 1491 1305 
Q 1517 1325 1549 1325 
L 1830 1325 
Q 1862 1325 1884 1302 
Q 1907 1280 1907 1254 
L 1907 666 
L 4678 666 
L 4678 1242 
Q 4678 1274 4700 1299 
Q 4723 1325 4755 1325 
L 5037 1325 
Q 5069 1325 5094 1302 
Q 5120 1280 5120 1248 
L 5120 -435 
Q 5120 -678 5017 -761 
Q 4915 -845 4634 -845 
L 1946 -845 
z
M 3725 2573 
Q 3725 2355 3619 2169 
Q 3514 1984 3331 1849 
Q 3149 1715 2896 1641 
Q 2643 1568 2349 1568 
Q 2048 1568 1798 1641 
Q 1549 1715 1363 1849 
Q 1178 1984 1075 2169 
Q 973 2355 973 2573 
Q 973 2790 1075 2976 
Q 1178 3162 1363 3293 
Q 1549 3424 1798 3497 
Q 2048 3571 2349 3571 
Q 2643 3571 2896 3497 
Q 3149 3424 3331 3289 
Q 3514 3155 3619 2972 
Q 3725 2790 3725 2573 
z
M 1907 282 
L 1907 -307 
Q 1907 -403 1939 -432 
Q 1971 -461 2061 -461 
L 4525 -461 
Q 4614 -461 4646 -432 
Q 4678 -403 4678 -307 
L 4678 282 
L 1907 282 
z
M 3296 2573 
Q 3296 2874 3027 3037 
Q 2758 3200 2349 3200 
Q 2144 3200 1971 3158 
Q 1798 3117 1670 3037 
Q 1542 2957 1468 2841 
Q 1395 2726 1395 2573 
Q 1395 2426 1468 2307 
Q 1542 2189 1670 2109 
Q 1798 2029 1971 1984 
Q 2144 1939 2349 1939 
Q 2758 1939 3027 2108 
Q 3296 2278 3296 2573 
z
M 5120 1760 
Q 5120 1670 5030 1670 
L 4768 1670 
Q 4678 1670 4678 1760 
L 4678 4915 
Q 4678 5005 4768 5005 
L 5030 5005 
Q 5120 5005 5120 4915 
L 5120 3437 
L 6003 3437 
Q 6042 3437 6070 3414 
Q 6099 3392 6099 3354 
L 6099 3136 
Q 6099 3104 6070 3078 
Q 6042 3053 6003 3053 
L 5120 3053 
L 5120 1760 
z
M 4218 3917 
Q 4218 3834 4122 3834 
L 589 3834 
Q 557 3834 528 3859 
Q 499 3885 499 3923 
L 499 4128 
Q 499 4166 528 4192 
Q 557 4218 589 4218 
L 4122 4218 
Q 4218 4218 4218 4134 
L 4218 3917 
z
M 3283 4653 
Q 3283 4563 3187 4563 
L 1434 4563 
Q 1402 4563 1373 4585 
Q 1344 4608 1344 4646 
L 1344 4864 
Q 1344 4902 1369 4928 
Q 1395 4954 1427 4954 
L 3187 4954 
Q 3283 4954 3283 4864 
L 3283 4653 
z
" transform="scale(0.015625)"/>
       <path id="NanumGothicCoding-485" d="M 3130 4000 
Q 3117 3846 3094 3702 
Q 3072 3558 3040 3411 
L 4000 3411 
L 4000 4806 
Q 4000 4896 4090 4896 
L 4333 4896 
Q 4422 4896 4422 4806 
L 4422 -563 
Q 4422 -653 4333 -653 
L 4090 -653 
Q 4000 -653 4000 -563 
L 4000 1568 
L 2778 1568 
Q 2694 1568 2694 1645 
L 2694 1869 
Q 2694 1946 2778 1946 
L 4000 1946 
L 4000 3034 
L 2931 3034 
Q 2464 1594 922 570 
Q 838 512 794 576 
L 653 774 
Q 621 813 633 851 
Q 646 890 678 909 
Q 1107 1178 1456 1507 
Q 1805 1837 2061 2211 
Q 2317 2586 2470 2998 
Q 2624 3411 2662 3846 
Q 2675 4006 2636 4054 
Q 2598 4102 2470 4102 
L 915 4102 
Q 838 4102 838 4179 
L 838 4410 
Q 838 4442 864 4464 
Q 890 4486 922 4486 
L 2624 4486 
Q 2912 4486 3030 4364 
Q 3149 4243 3130 4000 
z
M 5555 -806 
Q 5555 -896 5466 -896 
L 5222 -896 
Q 5133 -896 5133 -806 
L 5133 4915 
Q 5133 5005 5222 5005 
L 5466 5005 
Q 5555 5005 5555 4915 
L 5555 -806 
z
" transform="scale(0.015625)"/>
      </defs>
      <use xlink:href="#NanumGothicCoding-752"/>
      <use xlink:href="#NanumGothicCoding-b79" transform="translate(100 0)"/>
      <use xlink:href="#NanumGothicCoding-ce4" transform="translate(200 0)"/>
      <use xlink:href="#NanumGothicCoding-485" transform="translate(300 0)"/>
     </g>
    </g>
   </g>
   <g id="FillBetweenPolyCollection_1"/>
   <g id="line2d_15">
    <path d="M 99.02 233.480898 
L 190.665033 322.036364 
L 273.441192 211.926239 
L 365.086225 175.129856 
L 453.774967 117.162474 
L 545.42 66.763636 
" clip-path="url(#pc16ff5dda3)" style="fill: none; stroke: #a3d576; stroke-width: 1.2; stroke-linecap: round"/>
    <defs>
     <path id="md065dfd9d6" d="M 0 3 
C 0.795609 3 1.55874 2.683901 2.12132 2.12132 
C 2.683901 1.55874 3 0.795609 3 0 
C 3 -0.795609 2.683901 -1.55874 2.12132 -2.12132 
C 1.55874 -2.683901 0.795609 -3 0 -3 
C -0.795609 -3 -1.55874 -2.683901 -2.12132 -2.12132 
C -2.683901 -1.55874 -3 -0.795609 -3 0 
C -3 0.795609 -2.683901 1.55874 -2.12132 2.12132 
C -1.55874 2.683901 -0.795609 3 0 3 
z
" style="stroke: #ffffff; stroke-width: 0.75"/>
    </defs>
    <g clip-path="url(#pc16ff5dda3)">
     <use xlink:href="#md065dfd9d6" x="99.02" y="233.480898" style="fill: #a3d576; stroke: #ffffff; stroke-width: 0.75"/>
     <use xlink:href="#md065dfd9d6" x="190.665033" y="322.036364" style="fill: #a3d576; stroke: #ffffff; stroke-width: 0.75"/>
     <use xlink:href="#md065dfd9d6" x="273.441192" y="211.926239" style="fill: #a3d576; stroke: #ffffff; stroke-width: 0.75"/>
     <use xlink:href="#md065dfd9d6" x="365.086225" y="175.129856" style="fill: #a3d576; stroke: #ffffff; stroke-width: 0.75"/>
     <use xlink:href="#md065dfd9d6" x="453.774967" y="117.162474" style="fill: #a3d576; stroke: #ffffff; stroke-width: 0.75"/>
     <use xlink:href="#md065dfd9d6" x="545.42" y="66.763636" style="fill: #a3d576; stroke: #ffffff; stroke-width: 0.75"/>
    </g>
   </g>
   <g id="patch_3">
    <path d="M 76.7 334.8 
L 76.7 54 
" style="fill: none; stroke: #d7dbe7; stroke-width: 1.25; stroke-linejoin: miter; stroke-linecap: square"/>
   </g>
   <g id="patch_4">
    <path d="M 76.7 334.8 
L 567.74 334.8 
" style="fill: none; stroke: #d7dbe7; stroke-width: 1.25; stroke-linejoin: miter; stroke-linecap: square"/>
   </g>
  </g>
  <g id="text_17">
   <!-- 카페 월별 매출은 6월에 가장 높았다 -->
   <g style="fill: #1f2430" transform="translate(76.7 18.386094) scale(0.13 -0.13)">
    <defs>
     <path id="NanumGothicCoding-ba0" d="M 806 2944 
Q 998 2944 1203 2950 
Q 1408 2957 1603 2963 
Q 1798 2970 1968 2976 
Q 2138 2982 2253 2989 
Q 2291 2989 2358 2995 
Q 2426 3002 2502 3005 
Q 2579 3008 2659 3014 
Q 2739 3021 2797 3034 
Q 2957 3482 3008 3974 
Q 3021 4070 2982 4105 
Q 2944 4141 2854 4141 
L 902 4141 
Q 826 4141 826 4224 
L 826 4448 
Q 826 4525 902 4525 
L 2976 4525 
Q 3277 4525 3373 4413 
Q 3469 4301 3456 4064 
Q 3424 3514 3238 2992 
Q 3053 2470 2723 2000 
Q 2394 1530 1930 1126 
Q 1466 723 877 410 
Q 794 365 755 429 
L 614 653 
Q 570 730 640 762 
Q 1338 1126 1834 1600 
Q 2330 2074 2618 2637 
Q 2528 2624 2438 2621 
Q 2349 2618 2291 2618 
Q 2138 2611 1949 2604 
Q 1760 2598 1565 2592 
Q 1370 2586 1174 2579 
Q 979 2573 806 2573 
Q 723 2573 723 2650 
L 723 2867 
Q 723 2944 806 2944 
z
M 5120 -806 
Q 5120 -896 5030 -896 
L 4768 -896 
Q 4678 -896 4678 -806 
L 4678 4915 
Q 4678 5005 4768 5005 
L 5030 5005 
Q 5120 5005 5120 4915 
L 5120 2656 
L 6003 2656 
Q 6042 2656 6070 2633 
Q 6099 2611 6099 2573 
L 6099 2355 
Q 6099 2323 6070 2297 
Q 6042 2272 6003 2272 
L 5120 2272 
L 5120 -806 
z
" transform="scale(0.015625)"/>
     <path id="NanumGothicCoding-c95" d="M 3482 1357 
Q 3584 1376 3590 1312 
L 3629 1088 
Q 3642 1011 3546 998 
Q 3194 941 2845 899 
Q 2496 858 2029 832 
Q 1670 813 1264 809 
Q 858 806 480 819 
Q 442 819 413 844 
Q 384 870 384 902 
L 384 1114 
Q 384 1152 413 1174 
Q 442 1197 480 1197 
Q 627 1184 787 1184 
Q 947 1184 1114 1184 
L 1114 4090 
L 538 4090 
Q 506 4090 477 4115 
Q 448 4141 448 4179 
L 448 4378 
Q 448 4416 477 4441 
Q 506 4467 538 4467 
L 3277 4467 
Q 3373 4467 3373 4384 
L 3373 4173 
Q 3373 4090 3277 4090 
L 2861 4090 
L 2861 1261 
Q 3008 1274 3158 1299 
Q 3309 1325 3482 1357 
z
M 4000 2918 
L 4000 4806 
Q 4000 4896 4090 4896 
L 4333 4896 
Q 4422 4896 4422 4806 
L 4422 -563 
Q 4422 -653 4333 -653 
L 4090 -653 
Q 4000 -653 4000 -563 
L 4000 2534 
L 3290 2534 
Q 3206 2534 3206 2611 
L 3206 2842 
Q 3206 2918 3290 2918 
L 4000 2918 
z
M 2016 1210 
Q 2125 1216 2227 1219 
Q 2330 1222 2426 1229 
L 2426 4090 
L 1549 4090 
L 1549 1190 
Q 1664 1190 1782 1196 
Q 1901 1203 2016 1210 
z
M 5555 -806 
Q 5555 -896 5466 -896 
L 5222 -896 
Q 5133 -896 5133 -806 
L 5133 4915 
Q 5133 5005 5222 5005 
L 5466 5005 
Q 5555 5005 5555 4915 
L 5555 -806 
z
" transform="scale(0.015625)"/>
     <path id="NanumGothicCoding-1" transform="scale(0.015625)"/>
     <path id="NanumGothicCoding-7f9" d="M 1382 2106 
Q 1229 2106 1136 2125 
Q 1043 2144 992 2198 
Q 941 2253 921 2339 
Q 902 2426 902 2560 
L 902 4838 
Q 902 4870 928 4892 
Q 954 4915 986 4915 
L 1261 4915 
Q 1293 4915 1315 4889 
Q 1338 4864 1338 4838 
L 1338 3821 
L 3206 3821 
L 3206 4832 
Q 3206 4864 3228 4889 
Q 3251 4915 3283 4915 
L 3558 4915 
Q 3590 4915 3616 4892 
Q 3642 4870 3642 4838 
L 3642 4102 
L 4902 4102 
L 4902 4915 
Q 4902 5005 4992 5005 
L 5254 5005 
Q 5344 5005 5344 4915 
L 5344 1997 
Q 5344 1907 5254 1907 
L 4992 1907 
Q 4902 1907 4902 1997 
L 4902 2688 
L 3642 2688 
L 3642 2515 
Q 3642 2272 3539 2189 
Q 3437 2106 3155 2106 
L 1382 2106 
z
M 5478 -838 
Q 5478 -870 5449 -892 
Q 5421 -915 5395 -915 
L 2170 -915 
Q 1869 -915 1776 -803 
Q 1683 -691 1683 -422 
L 1683 58 
Q 1683 326 1795 419 
Q 1907 512 2195 512 
L 4762 512 
Q 4851 512 4876 537 
Q 4902 563 4902 659 
L 4902 1024 
Q 4902 1120 4880 1145 
Q 4858 1171 4768 1171 
L 1760 1171 
Q 1728 1171 1699 1190 
Q 1670 1210 1670 1242 
L 1670 1472 
Q 1670 1504 1699 1523 
Q 1728 1542 1760 1542 
L 4838 1542 
Q 4992 1542 5088 1520 
Q 5184 1498 5241 1446 
Q 5299 1395 5321 1302 
Q 5344 1210 5344 1075 
L 5344 595 
Q 5344 326 5232 233 
Q 5120 141 4832 141 
L 2266 141 
Q 2176 141 2153 115 
Q 2131 90 2131 -6 
L 2131 -397 
Q 2131 -486 2156 -515 
Q 2182 -544 2272 -544 
L 5389 -544 
Q 5421 -544 5449 -563 
Q 5478 -582 5478 -614 
L 5478 -838 
z
M 1338 3443 
L 1338 2637 
Q 1338 2541 1370 2512 
Q 1402 2483 1491 2483 
L 3053 2483 
Q 3142 2483 3174 2512 
Q 3206 2541 3206 2637 
L 3206 3443 
L 1338 3443 
z
M 3642 3066 
L 4902 3066 
L 4902 3725 
L 3642 3725 
L 3642 3066 
z
" transform="scale(0.015625)"/>
     <path id="NanumGothicCoding-a37" d="M 5920 2022 
Q 5952 2022 5984 2000 
Q 6016 1978 6016 1939 
L 6016 1722 
Q 6016 1690 5984 1664 
Q 5952 1638 5920 1638 
L 480 1638 
Q 442 1638 413 1664 
Q 384 1690 384 1722 
L 384 1939 
Q 384 1978 413 2000 
Q 442 2022 480 2022 
L 5920 2022 
z
M 3200 2624 
Q 2893 2624 2544 2681 
Q 2195 2739 1897 2873 
Q 1600 3008 1405 3229 
Q 1210 3450 1210 3776 
Q 1210 4122 1405 4342 
Q 1600 4563 1897 4691 
Q 2195 4819 2544 4867 
Q 2893 4915 3200 4915 
Q 3514 4915 3866 4857 
Q 4218 4800 4512 4669 
Q 4806 4538 4998 4320 
Q 5190 4102 5190 3776 
Q 5190 3450 4998 3229 
Q 4806 3008 4512 2873 
Q 4218 2739 3866 2681 
Q 3514 2624 3200 2624 
z
M 3200 4518 
Q 2995 4518 2732 4489 
Q 2470 4461 2240 4381 
Q 2010 4301 1850 4153 
Q 1690 4006 1690 3770 
Q 1690 3533 1850 3385 
Q 2010 3238 2240 3158 
Q 2470 3078 2732 3049 
Q 2995 3021 3200 3021 
Q 3405 3021 3667 3049 
Q 3930 3078 4160 3158 
Q 4390 3238 4550 3385 
Q 4710 3533 4710 3770 
Q 4710 4006 4550 4153 
Q 4390 4301 4160 4381 
Q 3930 4461 3667 4489 
Q 3405 4518 3200 4518 
z
M 5325 -704 
Q 5325 -742 5293 -761 
Q 5261 -781 5229 -781 
L 1754 -781 
Q 1453 -781 1360 -656 
Q 1267 -531 1267 -269 
L 1267 1037 
Q 1267 1126 1357 1126 
L 1619 1126 
Q 1709 1126 1709 1037 
L 1709 -262 
Q 1709 -352 1737 -374 
Q 1766 -397 1856 -397 
L 5229 -397 
Q 5261 -397 5293 -419 
Q 5325 -442 5325 -474 
L 5325 -704 
z
" transform="scale(0.015625)"/>
     <path id="NanumGothicCoding-9c0" d="M 4422 -563 
Q 4422 -653 4333 -653 
L 4090 -653 
Q 4000 -653 4000 -563 
L 4000 2419 
L 3277 2419 
Q 3251 1978 3136 1648 
Q 3021 1318 2835 1097 
Q 2650 877 2410 768 
Q 2170 659 1901 659 
Q 1613 659 1369 784 
Q 1126 909 947 1155 
Q 768 1402 665 1773 
Q 563 2144 563 2643 
Q 563 3142 665 3510 
Q 768 3878 950 4124 
Q 1133 4371 1376 4489 
Q 1619 4608 1907 4608 
Q 2182 4608 2422 4499 
Q 2662 4390 2848 4166 
Q 3034 3942 3146 3603 
Q 3258 3264 3277 2803 
L 4000 2803 
L 4000 4806 
Q 4000 4896 4090 4896 
L 4333 4896 
Q 4422 4896 4422 4806 
L 4422 -563 
z
M 2835 2643 
Q 2835 2938 2777 3219 
Q 2720 3501 2605 3725 
Q 2490 3949 2314 4086 
Q 2138 4224 1901 4224 
Q 1651 4224 1481 4083 
Q 1312 3942 1206 3715 
Q 1101 3488 1056 3206 
Q 1011 2925 1011 2643 
Q 1011 2362 1062 2077 
Q 1114 1792 1219 1561 
Q 1325 1331 1494 1187 
Q 1664 1043 1901 1043 
Q 2138 1043 2314 1184 
Q 2490 1325 2605 1552 
Q 2720 1779 2777 2067 
Q 2835 2355 2835 2643 
z
M 5555 -806 
Q 5555 -896 5466 -896 
L 5222 -896 
Q 5133 -896 5133 -806 
L 5133 4915 
Q 5133 5005 5222 5005 
L 5466 5005 
Q 5555 5005 5555 4915 
L 5555 -806 
z
" transform="scale(0.015625)"/>
     <path id="NanumGothicCoding-43e" d="M 3437 4064 
Q 3405 3514 3219 2982 
Q 3034 2451 2704 1968 
Q 2374 1485 1910 1072 
Q 1446 659 858 346 
Q 774 301 736 365 
L 595 589 
Q 550 666 621 698 
Q 1165 979 1584 1340 
Q 2003 1702 2300 2124 
Q 2598 2547 2771 3014 
Q 2944 3482 2989 3974 
Q 3002 4070 2963 4105 
Q 2925 4141 2835 4141 
L 851 4141 
Q 774 4141 774 4224 
L 774 4448 
Q 774 4525 851 4525 
L 2957 4525 
Q 3258 4525 3354 4413 
Q 3450 4301 3437 4064 
z
M 5120 -806 
Q 5120 -896 5030 -896 
L 4768 -896 
Q 4678 -896 4678 -806 
L 4678 4915 
Q 4678 5005 4768 5005 
L 5030 5005 
Q 5120 5005 5120 4915 
L 5120 2650 
L 6003 2650 
Q 6042 2650 6070 2627 
Q 6099 2605 6099 2566 
L 6099 2349 
Q 6099 2317 6070 2291 
Q 6042 2266 6003 2266 
L 5120 2266 
L 5120 -806 
z
" transform="scale(0.015625)"/>
     <path id="NanumGothicCoding-a62" d="M 5197 250 
Q 5197 -26 5049 -243 
Q 4902 -461 4649 -611 
Q 4397 -762 4061 -842 
Q 3725 -922 3341 -922 
Q 2925 -922 2585 -842 
Q 2246 -762 2003 -611 
Q 1760 -461 1625 -243 
Q 1491 -26 1491 250 
Q 1491 518 1625 732 
Q 1760 947 2003 1097 
Q 2246 1248 2585 1328 
Q 2925 1408 3341 1408 
Q 3725 1408 4061 1328 
Q 4397 1248 4649 1101 
Q 4902 954 5049 739 
Q 5197 525 5197 250 
z
M 4742 230 
Q 4742 422 4627 569 
Q 4512 717 4317 816 
Q 4122 915 3866 969 
Q 3610 1024 3334 1024 
Q 3027 1024 2771 969 
Q 2515 915 2332 816 
Q 2150 717 2048 569 
Q 1946 422 1946 230 
Q 1946 45 2048 -99 
Q 2150 -243 2332 -339 
Q 2515 -435 2771 -486 
Q 3027 -538 3334 -538 
Q 3610 -538 3866 -486 
Q 4122 -435 4317 -339 
Q 4512 -243 4627 -99 
Q 4742 45 4742 230 
z
M 3456 4198 
Q 3366 3949 3212 3699 
Q 3059 3450 2848 3206 
Q 3072 2976 3401 2765 
Q 3731 2554 4109 2387 
Q 4147 2368 4144 2336 
Q 4141 2304 4128 2272 
L 4000 2048 
Q 3981 2016 3955 2003 
Q 3930 1990 3872 2022 
Q 3731 2086 3568 2176 
Q 3405 2266 3232 2381 
Q 3059 2496 2889 2630 
Q 2720 2765 2573 2912 
Q 2202 2547 1757 2243 
Q 1312 1939 851 1734 
Q 819 1722 787 1715 
Q 755 1709 736 1741 
L 608 1965 
Q 589 1997 605 2032 
Q 621 2067 653 2080 
Q 1478 2477 2060 2989 
Q 2643 3501 2970 4173 
Q 3014 4262 2982 4300 
Q 2950 4339 2861 4339 
L 986 4339 
Q 909 4339 909 4422 
L 909 4646 
Q 909 4723 998 4723 
L 3034 4723 
Q 3366 4723 3462 4604 
Q 3558 4486 3456 4198 
z
M 5120 1568 
Q 5120 1478 5030 1478 
L 4768 1478 
Q 4678 1478 4678 1568 
L 4678 4915 
Q 4678 5005 4768 5005 
L 5030 5005 
Q 5120 5005 5120 4915 
L 5120 3386 
L 6003 3386 
Q 6042 3386 6070 3363 
Q 6099 3341 6099 3302 
L 6099 3085 
Q 6099 3053 6070 3027 
Q 6042 3002 6003 3002 
L 5120 3002 
L 5120 1568 
z
" transform="scale(0.015625)"/>
     <path id="NanumGothicCoding-5ab" d="M 5325 -762 
Q 5325 -845 5229 -845 
L 1094 -845 
Q 1062 -845 1033 -819 
Q 1005 -794 1005 -755 
L 1005 -550 
Q 1005 -512 1033 -486 
Q 1062 -461 1094 -461 
L 1984 -461 
L 1984 698 
L 1222 698 
Q 1190 698 1161 723 
Q 1133 749 1133 787 
L 1133 992 
Q 1133 1030 1161 1056 
Q 1190 1082 1222 1082 
L 5101 1082 
Q 5197 1082 5197 998 
L 5197 781 
Q 5197 698 5101 698 
L 4384 698 
L 4384 -461 
L 5229 -461 
Q 5325 -461 5325 -544 
L 5325 -762 
z
M 5229 2944 
Q 5229 2906 5197 2886 
Q 5165 2867 5133 2867 
L 3411 2867 
L 3411 2074 
L 5920 2074 
Q 5952 2074 5984 2051 
Q 6016 2029 6016 1990 
L 6016 1773 
Q 6016 1741 5984 1715 
Q 5952 1690 5920 1690 
L 480 1690 
Q 442 1690 413 1715 
Q 384 1741 384 1773 
L 384 1990 
Q 384 2029 413 2051 
Q 442 2074 480 2074 
L 2970 2074 
L 2970 2867 
L 1811 2867 
Q 1510 2867 1417 2992 
Q 1325 3117 1325 3379 
L 1325 4845 
Q 1325 4934 1414 4934 
L 1677 4934 
Q 1766 4934 1766 4845 
L 1766 3392 
Q 1766 3302 1795 3276 
Q 1824 3251 1914 3251 
L 5133 3251 
Q 5165 3251 5197 3228 
Q 5229 3206 5229 3174 
L 5229 2944 
z
M 2426 -461 
L 3942 -461 
L 3942 698 
L 2426 698 
L 2426 -461 
z
" transform="scale(0.015625)"/>
     <path id="NanumGothicCoding-993" d="M 3744 3328 
Q 3744 3008 3629 2742 
Q 3514 2477 3312 2285 
Q 3110 2093 2832 1984 
Q 2554 1875 2221 1875 
Q 1901 1875 1625 1980 
Q 1350 2086 1148 2278 
Q 947 2470 835 2739 
Q 723 3008 723 3328 
Q 723 3667 835 3939 
Q 947 4211 1148 4400 
Q 1350 4589 1625 4688 
Q 1901 4787 2221 4787 
Q 2528 4787 2803 4688 
Q 3078 4589 3286 4403 
Q 3494 4218 3619 3946 
Q 3744 3674 3744 3328 
z
M 3296 3334 
Q 3296 3590 3209 3785 
Q 3123 3981 2976 4112 
Q 2829 4243 2633 4310 
Q 2438 4378 2221 4378 
Q 1997 4378 1805 4310 
Q 1613 4243 1472 4112 
Q 1331 3981 1251 3785 
Q 1171 3590 1171 3334 
Q 1171 3091 1248 2899 
Q 1325 2707 1462 2566 
Q 1600 2426 1792 2352 
Q 1984 2278 2221 2278 
Q 2438 2278 2633 2352 
Q 2829 2426 2976 2566 
Q 3123 2707 3209 2899 
Q 3296 3091 3296 3334 
z
M 5645 -838 
Q 5619 -870 5596 -883 
Q 5574 -896 5530 -870 
Q 5126 -659 4841 -368 
Q 4557 -77 4403 262 
Q 4237 -83 3990 -368 
Q 3744 -653 3430 -845 
Q 3341 -896 3238 -838 
Q 2925 -659 2675 -387 
Q 2426 -115 2278 211 
Q 2112 -122 1827 -390 
Q 1542 -659 1126 -883 
Q 1094 -896 1056 -909 
Q 1018 -922 998 -896 
L 845 -666 
Q 832 -640 841 -605 
Q 851 -570 890 -550 
Q 1517 -243 1808 208 
Q 2099 659 2061 1306 
Q 2061 1389 2125 1389 
L 2432 1382 
Q 2502 1382 2502 1306 
Q 2502 1114 2483 934 
Q 2490 742 2560 537 
Q 2630 333 2739 150 
Q 2848 -32 2992 -182 
Q 3136 -333 3296 -416 
Q 3354 -448 3398 -416 
Q 3571 -307 3718 -121 
Q 3866 64 3978 294 
Q 4090 525 4150 787 
Q 4211 1050 4205 1312 
Q 4205 1344 4221 1373 
Q 4237 1402 4275 1402 
L 4576 1395 
Q 4646 1395 4646 1318 
Q 4640 1248 4637 1181 
Q 4634 1114 4627 1043 
Q 4627 531 4915 124 
Q 5203 -282 5747 -531 
Q 5824 -576 5773 -653 
L 5645 -838 
z
M 5120 1786 
Q 5120 1696 5030 1696 
L 4768 1696 
Q 4678 1696 4678 1786 
L 4678 4915 
Q 4678 5005 4768 5005 
L 5030 5005 
Q 5120 5005 5120 4915 
L 5120 3405 
L 6003 3405 
Q 6042 3405 6070 3382 
Q 6099 3360 6099 3322 
L 6099 3104 
Q 6099 3072 6070 3046 
Q 6042 3021 6003 3021 
L 5120 3021 
L 5120 1786 
z
" transform="scale(0.015625)"/>
     <path id="NanumGothicCoding-5ee" d="M 4211 1171 
Q 4224 1082 4128 1062 
Q 3891 1005 3529 953 
Q 3168 902 2768 864 
Q 2368 826 1977 806 
Q 1587 787 1299 794 
Q 1011 800 905 928 
Q 800 1056 800 1325 
L 800 4077 
Q 800 4346 902 4435 
Q 1005 4525 1286 4525 
L 3488 4525 
Q 3571 4525 3571 4448 
L 3571 4218 
Q 3571 4141 3488 4141 
L 1370 4141 
Q 1280 4141 1261 4118 
Q 1242 4096 1242 4000 
L 1242 1357 
Q 1242 1261 1274 1229 
Q 1306 1197 1395 1190 
Q 1702 1178 2044 1194 
Q 2387 1210 2736 1245 
Q 3085 1280 3421 1328 
Q 3757 1376 4058 1434 
Q 4160 1453 4179 1363 
L 4211 1171 
z
M 5120 -806 
Q 5120 -896 5030 -896 
L 4768 -896 
Q 4678 -896 4678 -806 
L 4678 4915 
Q 4678 5005 4768 5005 
L 5030 5005 
Q 5120 5005 5120 4915 
L 5120 2586 
L 6003 2586 
Q 6042 2586 6070 2563 
Q 6099 2541 6099 2502 
L 6099 2285 
Q 6099 2253 6070 2227 
Q 6042 2202 6003 2202 
L 5120 2202 
L 5120 -806 
z
" transform="scale(0.015625)"/>
    </defs>
    <use xlink:href="#NanumGothicCoding-ba0"/>
    <use xlink:href="#NanumGothicCoding-c95" transform="translate(100 0)"/>
    <use xlink:href="#NanumGothicCoding-1" transform="translate(200 0)"/>
    <use xlink:href="#NanumGothicCoding-a18" transform="translate(250 0)"/>
    <use xlink:href="#NanumGothicCoding-7f9" transform="translate(350 0)"/>
    <use xlink:href="#NanumGothicCoding-1" transform="translate(450 0)"/>
    <use xlink:href="#NanumGothicCoding-752" transform="translate(500 0)"/>
    <use xlink:href="#NanumGothicCoding-b79" transform="translate(600 0)"/>
    <use xlink:href="#NanumGothicCoding-a37" transform="translate(700 0)"/>
    <use xlink:href="#NanumGothicCoding-1" transform="translate(800 0)"/>
    <use xlink:href="#NanumGothicCoding-17" transform="translate(850 0)"/>
    <use xlink:href="#NanumGothicCoding-a18" transform="translate(900 0)"/>
    <use xlink:href="#NanumGothicCoding-9c0" transform="translate(1000 0)"/>
    <use xlink:href="#NanumGothicCoding-1" transform="translate(1100 0)"/>
    <use xlink:href="#NanumGothicCoding-43e" transform="translate(1150 0)"/>
    <use xlink:href="#NanumGothicCoding-a62" transform="translate(1250 0)"/>
    <use xlink:href="#NanumGothicCoding-1" transform="translate(1350 0)"/>
    <use xlink:href="#NanumGothicCoding-5ab" transform="translate(1400 0)"/>
    <use xlink:href="#NanumGothicCoding-993" transform="translate(1500 0)"/>
    <use xlink:href="#NanumGothicCoding-5ee" transform="translate(1600 0)"/>
   </g>
  </g>
  <g id="text_18">
   <!-- cafe_sales_clean.csv 기준, 2025년 1월부터 6월까지 월별 매출합계를 집계했다. -->
   <g style="fill: #6f768a" transform="translate(76.7 35.738719) scale(0.09 -0.09)">
    <defs>
     <path id="NanumGothicCoding-44" d="M 2624 -288 
Q 2451 -333 2310 -349 
Q 2170 -365 1952 -365 
Q 1581 -365 1289 -233 
Q 998 -102 780 128 
Q 563 358 454 668 
Q 346 979 346 1338 
Q 346 1702 461 2009 
Q 576 2317 787 2541 
Q 998 2765 1289 2896 
Q 1581 3027 1952 3027 
Q 2150 3027 2297 3011 
Q 2445 2995 2630 2950 
Q 2714 2931 2707 2842 
L 2688 2624 
Q 2675 2547 2598 2566 
Q 2445 2618 2307 2640 
Q 2170 2662 2010 2662 
Q 1741 2662 1507 2556 
Q 1274 2451 1126 2272 
Q 979 2093 899 1853 
Q 819 1613 819 1338 
Q 819 1088 902 848 
Q 986 608 1130 419 
Q 1274 230 1507 115 
Q 1741 0 2010 0 
Q 2170 0 2298 19 
Q 2426 38 2592 96 
Q 2662 115 2688 51 
L 2707 -179 
Q 2714 -269 2624 -288 
z
" transform="scale(0.015625)"/>
     <path id="NanumGothicCoding-47" d="M 2694 4422 
Q 2765 4390 2758 4333 
L 2720 4109 
Q 2714 4070 2688 4060 
Q 2662 4051 2637 4064 
Q 2534 4109 2416 4134 
Q 2298 4160 2176 4160 
Q 1798 4160 1690 3782 
Q 1645 3629 1645 3110 
L 1645 2784 
L 2765 2784 
Q 2854 2784 2854 2694 
L 2854 2502 
Q 2854 2413 2765 2413 
L 1645 2413 
L 1645 -186 
Q 1645 -275 1555 -275 
L 1306 -275 
Q 1216 -275 1216 -186 
L 1216 2413 
L 442 2413 
Q 352 2413 352 2502 
L 352 2694 
Q 352 2784 442 2784 
L 1216 2784 
L 1216 3066 
Q 1216 3763 1344 4070 
Q 1542 4531 2138 4531 
Q 2438 4531 2694 4422 
z
" transform="scale(0.015625)"/>
     <path id="NanumGothicCoding-40" d="M 3174 -883 
L 3174 -1037 
Q 3174 -1107 3164 -1116 
Q 3155 -1126 3085 -1126 
L 115 -1126 
Q 45 -1126 35 -1116 
Q 26 -1107 26 -1037 
L 26 -883 
Q 26 -813 35 -803 
Q 45 -794 115 -794 
L 3085 -794 
Q 3155 -794 3164 -803 
Q 3174 -813 3174 -883 
z
" transform="scale(0.015625)"/>
     <path id="NanumGothicCoding-54" d="M 582 147 
Q 992 -13 1427 -13 
Q 1792 -13 2045 169 
Q 2298 352 2298 538 
Q 2298 710 2157 838 
Q 2016 966 1811 1069 
Q 1594 1184 1386 1289 
Q 1178 1395 966 1504 
Q 723 1626 611 1802 
Q 499 1978 499 2144 
Q 499 2349 588 2509 
Q 678 2669 832 2790 
Q 986 2912 1206 2973 
Q 1427 3034 1677 3034 
Q 1907 3034 2099 3008 
Q 2291 2982 2496 2918 
Q 2541 2906 2569 2880 
Q 2598 2854 2592 2816 
L 2573 2611 
Q 2566 2560 2531 2547 
Q 2496 2534 2464 2547 
Q 2278 2618 2105 2643 
Q 1933 2669 1722 2669 
Q 947 2669 947 2144 
Q 947 2048 1049 1942 
Q 1152 1837 1402 1728 
Q 1645 1613 1840 1520 
Q 2035 1427 2272 1299 
Q 2554 1133 2659 953 
Q 2765 774 2765 544 
Q 2765 358 2656 166 
Q 2547 -26 2364 -141 
Q 2182 -256 1945 -317 
Q 1709 -378 1466 -378 
Q 1312 -378 1193 -371 
Q 1075 -365 969 -352 
Q 864 -339 758 -320 
Q 653 -301 538 -269 
Q 435 -237 442 -160 
L 474 90 
Q 493 186 582 147 
z
" transform="scale(0.015625)"/>
     <path id="NanumGothicCoding-4d" d="M 2605 122 
Q 2694 122 2694 32 
L 2694 -186 
Q 2694 -275 2605 -275 
L 531 -275 
Q 442 -275 442 -186 
L 442 32 
Q 442 122 531 122 
L 1389 122 
L 1389 4032 
L 710 4032 
Q 621 4032 621 4122 
L 621 4339 
Q 621 4429 710 4429 
L 1760 4429 
Q 1850 4429 1850 4339 
L 1850 122 
L 2605 122 
z
" transform="scale(0.015625)"/>
     <path id="NanumGothicCoding-57" d="M 1856 -192 
Q 1824 -275 1728 -275 
L 1414 -275 
Q 1318 -275 1293 -192 
L 282 2842 
Q 269 2874 288 2902 
Q 307 2931 346 2931 
L 627 2931 
Q 704 2931 742 2842 
L 1581 166 
L 2458 2842 
Q 2470 2880 2502 2905 
Q 2534 2931 2573 2931 
L 2854 2931 
Q 2893 2931 2912 2902 
Q 2931 2874 2918 2842 
L 1856 -192 
z
" transform="scale(0.015625)"/>
     <path id="NanumGothicCoding-4dd" d="M 5344 -806 
Q 5344 -896 5254 -896 
L 4992 -896 
Q 4902 -896 4902 -806 
L 4902 4915 
Q 4902 5005 4992 5005 
L 5254 5005 
Q 5344 5005 5344 4915 
L 5344 -806 
z
M 3629 4064 
Q 3597 3514 3411 2982 
Q 3226 2451 2896 1968 
Q 2566 1485 2102 1072 
Q 1638 659 1050 346 
Q 966 301 928 365 
L 787 589 
Q 742 666 813 698 
Q 1357 979 1776 1340 
Q 2195 1702 2492 2124 
Q 2790 2547 2963 3014 
Q 3136 3482 3181 3974 
Q 3194 4070 3155 4105 
Q 3117 4141 3027 4141 
L 992 4141 
Q 915 4141 915 4224 
L 915 4448 
Q 915 4525 992 4525 
L 3149 4525 
Q 3450 4525 3546 4413 
Q 3642 4301 3629 4064 
z
" transform="scale(0.015625)"/>
     <path id="NanumGothicCoding-ab3" d="M 4685 4179 
Q 4499 4013 4268 3859 
Q 4038 3706 3770 3558 
Q 4192 3424 4653 3299 
Q 5114 3174 5523 3091 
Q 5606 3072 5581 3002 
L 5491 2790 
Q 5459 2720 5376 2739 
Q 5165 2778 4899 2842 
Q 4634 2906 4355 2982 
Q 4077 3059 3795 3145 
Q 3514 3232 3277 3315 
Q 2368 2906 1062 2598 
Q 1005 2586 979 2605 
Q 954 2624 941 2662 
L 883 2848 
Q 858 2938 928 2957 
Q 1453 3078 1933 3228 
Q 2413 3379 2832 3548 
Q 3251 3718 3600 3904 
Q 3949 4090 4198 4275 
Q 4301 4352 4278 4393 
Q 4256 4435 4166 4435 
L 1402 4435 
Q 1318 4435 1318 4518 
L 1318 4742 
Q 1318 4819 1402 4819 
L 4326 4819 
Q 4819 4819 4915 4643 
Q 5011 4467 4685 4179 
z
M 3104 339 
Q 3072 339 3046 368 
Q 3021 397 3021 435 
L 3021 1728 
L 480 1728 
Q 442 1728 413 1753 
Q 384 1779 384 1811 
L 384 2029 
Q 384 2067 413 2089 
Q 442 2112 480 2112 
L 5920 2112 
Q 5952 2112 5984 2089 
Q 6016 2067 6016 2029 
L 6016 1811 
Q 6016 1779 5984 1753 
Q 5952 1728 5920 1728 
L 3462 1728 
L 3462 435 
Q 3462 397 3440 368 
Q 3418 339 3379 339 
L 3104 339 
z
M 5325 -704 
Q 5325 -742 5293 -761 
Q 5261 -781 5229 -781 
L 1702 -781 
Q 1402 -781 1309 -656 
Q 1216 -531 1216 -269 
L 1216 1005 
Q 1216 1094 1306 1094 
L 1568 1094 
Q 1658 1094 1658 1005 
L 1658 -262 
Q 1658 -352 1686 -374 
Q 1715 -397 1805 -397 
L 5229 -397 
Q 5261 -397 5293 -419 
Q 5325 -442 5325 -474 
L 5325 -704 
z
" transform="scale(0.015625)"/>
     <path id="NanumGothicCoding-d" d="M 2157 179 
Q 2227 179 2240 147 
Q 2253 115 2221 77 
L 1318 -1184 
Q 1280 -1242 1254 -1258 
Q 1229 -1274 1178 -1274 
L 864 -1274 
Q 774 -1274 826 -1178 
L 1536 64 
Q 1562 102 1590 140 
Q 1619 179 1696 179 
L 2157 179 
z
" transform="scale(0.015625)"/>
     <path id="NanumGothicCoding-599" d="M 4902 4205 
L 4902 4915 
Q 4902 5005 4992 5005 
L 5254 5005 
Q 5344 5005 5344 4915 
L 5344 787 
Q 5344 698 5254 698 
L 4992 698 
Q 4902 698 4902 787 
L 4902 2726 
L 3302 2726 
Q 3219 2726 3219 2803 
L 3219 3027 
Q 3219 3104 3302 3104 
L 4902 3104 
L 4902 3827 
L 3302 3827 
Q 3219 3827 3219 3904 
L 3219 4128 
Q 3219 4205 3302 4205 
L 4902 4205 
z
M 1408 2227 
Q 1408 2131 1440 2099 
Q 1472 2067 1562 2061 
Q 1837 2048 2134 2051 
Q 2432 2054 2729 2067 
Q 3027 2080 3312 2109 
Q 3597 2138 3853 2182 
Q 3910 2195 3939 2179 
Q 3968 2163 3981 2106 
L 4000 1933 
Q 4006 1856 3974 1833 
Q 3942 1811 3917 1811 
Q 3661 1766 3350 1731 
Q 3040 1696 2713 1677 
Q 2387 1658 2067 1654 
Q 1747 1651 1472 1664 
Q 1184 1677 1075 1801 
Q 966 1926 966 2195 
L 966 4640 
Q 966 4730 1056 4730 
L 1318 4730 
Q 1408 4730 1408 4640 
L 1408 2227 
z
M 5542 -704 
Q 5542 -742 5510 -761 
Q 5478 -781 5446 -781 
L 2240 -781 
Q 1939 -781 1846 -669 
Q 1754 -557 1754 -294 
L 1754 915 
Q 1754 1005 1843 1005 
L 2106 1005 
Q 2195 1005 2195 915 
L 2195 -262 
Q 2195 -352 2224 -374 
Q 2253 -397 2342 -397 
L 5446 -397 
Q 5478 -397 5510 -419 
Q 5542 -442 5542 -474 
L 5542 -704 
z
" transform="scale(0.015625)"/>
     <path id="NanumGothicCoding-817" d="M 1690 2419 
Q 1536 2419 1443 2438 
Q 1350 2458 1299 2512 
Q 1248 2566 1229 2652 
Q 1210 2739 1210 2874 
L 1210 4909 
Q 1210 4941 1235 4963 
Q 1261 4986 1293 4986 
L 1568 4986 
Q 1600 4986 1622 4960 
Q 1645 4934 1645 4909 
L 1645 4058 
L 4723 4058 
L 4723 4902 
Q 4723 4934 4745 4960 
Q 4768 4986 4800 4986 
L 5075 4986 
Q 5107 4986 5132 4963 
Q 5158 4941 5158 4909 
L 5158 2829 
Q 5158 2586 5056 2502 
Q 4954 2419 4672 2419 
L 1690 2419 
z
M 3046 -858 
Q 3014 -858 2988 -829 
Q 2963 -800 2963 -762 
L 2963 1242 
L 480 1242 
Q 442 1242 413 1267 
Q 384 1293 384 1325 
L 384 1542 
Q 384 1581 413 1603 
Q 442 1626 480 1626 
L 5920 1626 
Q 5952 1626 5984 1603 
Q 6016 1581 6016 1542 
L 6016 1325 
Q 6016 1293 5984 1267 
Q 5952 1242 5920 1242 
L 3405 1242 
L 3405 -762 
Q 3405 -800 3382 -829 
Q 3360 -858 3322 -858 
L 3046 -858 
z
M 1645 3680 
L 1645 2950 
Q 1645 2854 1677 2825 
Q 1709 2797 1798 2797 
L 4570 2797 
Q 4659 2797 4691 2825 
Q 4723 2854 4723 2950 
L 4723 3680 
L 1645 3680 
z
" transform="scale(0.015625)"/>
     <path id="NanumGothicCoding-c20" d="M 3174 2464 
Q 2989 2451 2774 2441 
Q 2560 2432 2342 2425 
Q 2125 2419 1920 2419 
Q 1715 2419 1549 2426 
L 1280 2426 
L 1280 1229 
Q 1280 1133 1312 1097 
Q 1344 1062 1434 1062 
Q 1971 1050 2598 1098 
Q 3226 1146 3782 1254 
Q 3891 1274 3910 1184 
L 3942 998 
Q 3955 941 3936 918 
Q 3917 896 3859 883 
Q 3590 826 3270 784 
Q 2950 742 2617 713 
Q 2285 685 1955 672 
Q 1626 659 1338 666 
Q 1050 672 944 800 
Q 838 928 838 1197 
L 838 4077 
Q 838 4346 940 4435 
Q 1043 4525 1325 4525 
L 3334 4525 
Q 3418 4525 3418 4448 
L 3418 4218 
Q 3418 4141 3334 4141 
L 1408 4141 
Q 1318 4141 1299 4118 
Q 1280 4096 1280 4000 
L 1280 2797 
L 1549 2797 
Q 1709 2797 1910 2797 
Q 2112 2797 2329 2803 
Q 2547 2810 2764 2816 
Q 2982 2822 3174 2835 
Q 3213 2842 3235 2816 
Q 3258 2790 3258 2758 
L 3258 2541 
Q 3258 2477 3174 2464 
z
M 5344 -806 
Q 5344 -896 5254 -896 
L 4992 -896 
Q 4902 -896 4902 -806 
L 4902 2470 
L 3814 2470 
Q 3731 2470 3731 2547 
L 3731 2778 
Q 3731 2854 3814 2854 
L 4902 2854 
L 4902 4915 
Q 4902 5005 4992 5005 
L 5254 5005 
Q 5344 5005 5344 4915 
L 5344 -806 
z
" transform="scale(0.015625)"/>
     <path id="NanumGothicCoding-4e9" d="M 5120 -806 
Q 5120 -896 5030 -896 
L 4768 -896 
Q 4678 -896 4678 -806 
L 4678 4915 
Q 4678 5005 4768 5005 
L 5030 5005 
Q 5120 5005 5120 4915 
L 5120 2656 
L 6003 2656 
Q 6042 2656 6070 2633 
Q 6099 2611 6099 2573 
L 6099 2355 
Q 6099 2323 6070 2297 
Q 6042 2272 6003 2272 
L 5120 2272 
L 5120 -806 
z
M 3891 4058 
Q 3872 3520 3753 3001 
Q 3635 2483 3436 2006 
Q 3238 1530 2963 1104 
Q 2688 678 2349 333 
Q 2291 262 2227 307 
L 2035 454 
Q 1965 506 2029 582 
Q 2643 1216 3014 2099 
Q 3386 2982 3462 3987 
Q 3469 4083 3433 4118 
Q 3398 4154 3309 4154 
L 2483 4154 
Q 2406 4154 2406 4237 
L 2406 4442 
Q 2406 4518 2483 4518 
L 3411 4518 
Q 3565 4518 3661 4492 
Q 3757 4467 3808 4409 
Q 3859 4352 3878 4265 
Q 3898 4179 3891 4058 
z
M 2272 4058 
Q 2221 3181 1853 2397 
Q 1485 1613 819 973 
Q 755 909 698 960 
L 525 1133 
Q 461 1184 525 1248 
Q 1139 1830 1456 2505 
Q 1773 3181 1843 3987 
Q 1856 4083 1817 4118 
Q 1779 4154 1690 4154 
L 646 4154 
Q 570 4154 570 4237 
L 570 4442 
Q 570 4518 646 4518 
L 1792 4518 
Q 2093 4518 2189 4406 
Q 2285 4294 2272 4058 
z
" transform="scale(0.015625)"/>
     <path id="NanumGothicCoding-ad1" d="M 4019 858 
Q 4000 826 3971 819 
Q 3942 813 3891 851 
Q 3738 966 3565 1116 
Q 3392 1267 3225 1436 
Q 3059 1606 2899 1788 
Q 2739 1971 2605 2150 
Q 2285 1747 1875 1379 
Q 1466 1011 941 646 
Q 909 627 877 617 
Q 845 608 826 634 
L 672 832 
Q 646 864 652 899 
Q 659 934 685 954 
Q 1709 1677 2281 2419 
Q 2854 3162 3078 3968 
Q 3104 4058 3081 4099 
Q 3059 4141 2970 4141 
L 1030 4141 
Q 954 4141 954 4224 
L 954 4448 
Q 954 4525 1043 4525 
L 3142 4525 
Q 3475 4525 3564 4409 
Q 3654 4294 3565 4000 
Q 3315 3181 2861 2496 
Q 3008 2291 3174 2092 
Q 3341 1894 3507 1718 
Q 3674 1542 3840 1398 
Q 4006 1254 4154 1158 
Q 4186 1133 4186 1101 
Q 4186 1069 4166 1043 
L 4019 858 
z
M 5344 -806 
Q 5344 -896 5254 -896 
L 4992 -896 
Q 4902 -896 4902 -806 
L 4902 4915 
Q 4902 5005 4992 5005 
L 5254 5005 
Q 5344 5005 5344 4915 
L 5344 -806 
z
" transform="scale(0.015625)"/>
     <path id="NanumGothicCoding-733" d="M 5920 2278 
Q 5952 2278 5984 2256 
Q 6016 2234 6016 2195 
L 6016 1978 
Q 6016 1946 5984 1920 
Q 5952 1894 5920 1894 
L 480 1894 
Q 442 1894 413 1920 
Q 384 1946 384 1978 
L 384 2195 
Q 384 2234 413 2256 
Q 442 2278 480 2278 
L 5920 2278 
z
M 5254 -781 
Q 5254 -813 5225 -835 
Q 5197 -858 5171 -858 
L 1760 -858 
Q 1459 -858 1366 -746 
Q 1274 -634 1274 -365 
L 1274 13 
Q 1274 282 1386 374 
Q 1498 467 1786 467 
L 4544 467 
Q 4634 467 4656 492 
Q 4678 518 4678 614 
L 4678 858 
Q 4678 954 4656 979 
Q 4634 1005 4544 1005 
L 1350 1005 
Q 1318 1005 1289 1024 
Q 1261 1043 1261 1075 
L 1261 1299 
Q 1261 1331 1289 1350 
Q 1318 1370 1350 1370 
L 4608 1370 
Q 4762 1370 4858 1347 
Q 4954 1325 5011 1273 
Q 5069 1222 5091 1129 
Q 5114 1037 5114 902 
L 5114 557 
Q 5114 288 5002 195 
Q 4890 102 4602 102 
L 1843 102 
Q 1754 102 1731 76 
Q 1709 51 1709 -45 
L 1709 -339 
Q 1709 -429 1734 -457 
Q 1760 -486 1850 -486 
L 5165 -486 
Q 5197 -486 5225 -505 
Q 5254 -525 5254 -557 
L 5254 -781 
z
M 5203 2880 
Q 5203 2848 5174 2825 
Q 5146 2803 5120 2803 
L 1786 2803 
Q 1485 2803 1392 2915 
Q 1299 3027 1299 3296 
L 1299 3642 
Q 1299 3910 1411 4003 
Q 1523 4096 1811 4096 
L 4525 4096 
Q 4614 4096 4636 4118 
Q 4659 4141 4659 4243 
L 4659 4506 
Q 4659 4602 4636 4627 
Q 4614 4653 4525 4653 
L 1389 4653 
Q 1357 4653 1328 4672 
Q 1299 4691 1299 4723 
L 1299 4954 
Q 1299 4986 1328 5005 
Q 1357 5024 1389 5024 
L 4595 5024 
Q 4749 5024 4845 5001 
Q 4941 4979 4998 4928 
Q 5056 4877 5078 4784 
Q 5101 4691 5101 4557 
L 5101 4186 
Q 5101 3910 4989 3820 
Q 4877 3731 4589 3731 
L 1869 3731 
Q 1779 3731 1756 3705 
Q 1734 3680 1734 3584 
L 1734 3315 
Q 1734 3226 1760 3197 
Q 1786 3168 1875 3168 
L 5114 3168 
Q 5146 3168 5174 3149 
Q 5203 3130 5203 3098 
L 5203 2880 
z
" transform="scale(0.015625)"/>
     <path id="NanumGothicCoding-ad8" d="M 2170 -845 
Q 2016 -845 1923 -825 
Q 1830 -806 1779 -752 
Q 1728 -698 1709 -611 
Q 1690 -525 1690 -390 
L 1690 1446 
Q 1690 1478 1715 1497 
Q 1741 1517 1773 1517 
L 2054 1517 
Q 2086 1517 2108 1494 
Q 2131 1472 2131 1446 
L 2131 768 
L 4902 768 
L 4902 1434 
Q 4902 1466 4924 1491 
Q 4947 1517 4979 1517 
L 5261 1517 
Q 5293 1517 5318 1494 
Q 5344 1472 5344 1440 
L 5344 -435 
Q 5344 -678 5241 -761 
Q 5139 -845 4858 -845 
L 2170 -845 
z
M 3520 4250 
Q 3437 4013 3289 3776 
Q 3142 3539 2938 3302 
Q 3181 3053 3504 2838 
Q 3827 2624 4173 2496 
Q 4211 2483 4208 2448 
Q 4205 2413 4192 2381 
L 4064 2157 
Q 4045 2125 4019 2112 
Q 3994 2099 3936 2131 
Q 3584 2291 3248 2515 
Q 2912 2739 2650 3002 
Q 2298 2656 1856 2358 
Q 1414 2061 915 1843 
Q 883 1830 851 1824 
Q 819 1818 800 1850 
L 672 2074 
Q 653 2106 669 2141 
Q 685 2176 717 2189 
Q 1606 2611 2166 3107 
Q 2726 3603 3034 4224 
Q 3078 4314 3046 4352 
Q 3014 4390 2925 4390 
L 1050 4390 
Q 973 4390 973 4474 
L 973 4698 
Q 973 4774 1062 4774 
L 3098 4774 
Q 3430 4774 3526 4656 
Q 3622 4538 3520 4250 
z
M 2131 384 
L 2131 -307 
Q 2131 -403 2163 -432 
Q 2195 -461 2285 -461 
L 4749 -461 
Q 4838 -461 4870 -432 
Q 4902 -403 4902 -307 
L 4902 384 
L 2131 384 
z
M 5344 1958 
Q 5344 1869 5254 1869 
L 4992 1869 
Q 4902 1869 4902 1958 
L 4902 4915 
Q 4902 5005 4992 5005 
L 5254 5005 
Q 5344 5005 5344 4915 
L 5344 1958 
z
" transform="scale(0.015625)"/>
     <path id="NanumGothicCoding-cee" d="M 3245 2426 
Q 3245 2234 3165 2051 
Q 3085 1869 2928 1728 
Q 2771 1587 2544 1500 
Q 2317 1414 2029 1414 
Q 1734 1414 1507 1500 
Q 1280 1587 1126 1728 
Q 973 1869 893 2051 
Q 813 2234 813 2426 
Q 813 2624 893 2803 
Q 973 2982 1126 3123 
Q 1280 3264 1507 3347 
Q 1734 3430 2029 3430 
Q 2317 3430 2544 3344 
Q 2771 3258 2928 3120 
Q 3085 2982 3165 2800 
Q 3245 2618 3245 2426 
z
M 4320 3328 
L 5133 3328 
L 5133 4915 
Q 5133 5005 5222 5005 
L 5466 5005 
Q 5555 5005 5555 4915 
L 5555 1498 
Q 5555 1408 5466 1408 
L 5222 1408 
Q 5133 1408 5133 1498 
L 5133 2944 
L 4320 2944 
L 4320 1613 
Q 4320 1523 4230 1523 
L 3987 1523 
Q 3898 1523 3898 1613 
L 3898 4806 
Q 3898 4896 3987 4896 
L 4230 4896 
Q 4320 4896 4320 4806 
L 4320 3328 
z
M 6016 -832 
Q 5984 -883 5955 -883 
Q 5926 -883 5875 -858 
Q 5453 -634 5177 -371 
Q 4902 -109 4749 198 
Q 4602 -70 4358 -323 
Q 4115 -576 3770 -845 
Q 3718 -877 3673 -873 
Q 3629 -870 3578 -838 
Q 3213 -621 2976 -384 
Q 2739 -147 2605 128 
Q 2291 -416 1440 -883 
Q 1350 -941 1306 -883 
L 1158 -666 
Q 1146 -640 1155 -605 
Q 1165 -570 1203 -550 
Q 1536 -378 1757 -218 
Q 1978 -58 2115 128 
Q 2253 314 2313 531 
Q 2374 749 2387 1037 
Q 2387 1120 2451 1120 
L 2758 1114 
Q 2829 1114 2829 1037 
Q 2829 979 2825 921 
Q 2822 864 2816 813 
Q 2829 448 3040 134 
Q 3251 -179 3635 -416 
Q 3667 -435 3686 -438 
Q 3706 -442 3738 -416 
Q 4141 -90 4336 262 
Q 4531 614 4531 1037 
Q 4531 1069 4547 1101 
Q 4563 1133 4602 1133 
L 4902 1126 
Q 4973 1126 4973 1050 
Q 4973 902 4954 781 
Q 5024 358 5299 28 
Q 5574 -301 6099 -525 
Q 6182 -557 6131 -640 
L 6016 -832 
z
M 2835 2426 
Q 2835 2688 2633 2877 
Q 2432 3066 2029 3066 
Q 1626 3066 1424 2880 
Q 1222 2694 1222 2426 
Q 1222 2170 1424 1974 
Q 1626 1779 2029 1779 
Q 2432 1779 2633 1974 
Q 2835 2170 2835 2426 
z
M 3443 3802 
Q 3443 3718 3347 3718 
L 666 3718 
Q 634 3718 605 3744 
Q 576 3770 576 3808 
L 576 4013 
Q 576 4051 605 4076 
Q 634 4102 666 4102 
L 3347 4102 
Q 3443 4102 3443 4019 
L 3443 3802 
z
M 2803 4570 
Q 2803 4480 2707 4480 
L 1344 4480 
Q 1312 4480 1283 4502 
Q 1254 4525 1254 4563 
L 1254 4781 
Q 1254 4819 1280 4844 
Q 1306 4870 1338 4870 
L 2707 4870 
Q 2803 4870 2803 4781 
L 2803 4570 
z
" transform="scale(0.015625)"/>
    </defs>
    <use xlink:href="#NanumGothicCoding-44"/>
    <use xlink:href="#NanumGothicCoding-42" transform="translate(50 0)"/>
    <use xlink:href="#NanumGothicCoding-47" transform="translate(100 0)"/>
    <use xlink:href="#NanumGothicCoding-46" transform="translate(150 0)"/>
    <use xlink:href="#NanumGothicCoding-40" transform="translate(200 0)"/>
    <use xlink:href="#NanumGothicCoding-54" transform="translate(250 0)"/>
    <use xlink:href="#NanumGothicCoding-42" transform="translate(300 0)"/>
    <use xlink:href="#NanumGothicCoding-4d" transform="translate(350 0)"/>
    <use xlink:href="#NanumGothicCoding-46" transform="translate(400 0)"/>
    <use xlink:href="#NanumGothicCoding-54" transform="translate(450 0)"/>
    <use xlink:href="#NanumGothicCoding-40" transform="translate(500 0)"/>
    <use xlink:href="#NanumGothicCoding-44" transform="translate(550 0)"/>
    <use xlink:href="#NanumGothicCoding-4d" transform="translate(600 0)"/>
    <use xlink:href="#NanumGothicCoding-46" transform="translate(650 0)"/>
    <use xlink:href="#NanumGothicCoding-42" transform="translate(700 0)"/>
    <use xlink:href="#NanumGothicCoding-4f" transform="translate(750 0)"/>
    <use xlink:href="#NanumGothicCoding-f" transform="translate(800 0)"/>
    <use xlink:href="#NanumGothicCoding-44" transform="translate(850 0)"/>
    <use xlink:href="#NanumGothicCoding-54" transform="translate(900 0)"/>
    <use xlink:href="#NanumGothicCoding-57" transform="translate(950 0)"/>
    <use xlink:href="#NanumGothicCoding-1" transform="translate(1000 0)"/>
    <use xlink:href="#NanumGothicCoding-4dd" transform="translate(1050 0)"/>
    <use xlink:href="#NanumGothicCoding-ab3" transform="translate(1150 0)"/>
    <use xlink:href="#NanumGothicCoding-d" transform="translate(1250 0)"/>
    <use xlink:href="#NanumGothicCoding-1" transform="translate(1300 0)"/>
    <use xlink:href="#NanumGothicCoding-13" transform="translate(1350 0)"/>
    <use xlink:href="#NanumGothicCoding-11" transform="translate(1400 0)"/>
    <use xlink:href="#NanumGothicCoding-13" transform="translate(1450 0)"/>
    <use xlink:href="#NanumGothicCoding-16" transform="translate(1500 0)"/>
    <use xlink:href="#NanumGothicCoding-599" transform="translate(1550 0)"/>
    <use xlink:href="#NanumGothicCoding-1" transform="translate(1650 0)"/>
    <use xlink:href="#NanumGothicCoding-12" transform="translate(1700 0)"/>
    <use xlink:href="#NanumGothicCoding-a18" transform="translate(1750 0)"/>
    <use xlink:href="#NanumGothicCoding-817" transform="translate(1850 0)"/>
    <use xlink:href="#NanumGothicCoding-c20" transform="translate(1950 0)"/>
    <use xlink:href="#NanumGothicCoding-1" transform="translate(2050 0)"/>
    <use xlink:href="#NanumGothicCoding-17" transform="translate(2100 0)"/>
    <use xlink:href="#NanumGothicCoding-a18" transform="translate(2150 0)"/>
    <use xlink:href="#NanumGothicCoding-4e9" transform="translate(2250 0)"/>
    <use xlink:href="#NanumGothicCoding-ad1" transform="translate(2350 0)"/>
    <use xlink:href="#NanumGothicCoding-1" transform="translate(2450 0)"/>
    <use xlink:href="#NanumGothicCoding-a18" transform="translate(2500 0)"/>
    <use xlink:href="#NanumGothicCoding-7f9" transform="translate(2600 0)"/>
    <use xlink:href="#NanumGothicCoding-1" transform="translate(2700 0)"/>
    <use xlink:href="#NanumGothicCoding-752" transform="translate(2750 0)"/>
    <use xlink:href="#NanumGothicCoding-b79" transform="translate(2850 0)"/>
    <use xlink:href="#NanumGothicCoding-ce4" transform="translate(2950 0)"/>
    <use xlink:href="#NanumGothicCoding-485" transform="translate(3050 0)"/>
    <use xlink:href="#NanumGothicCoding-733" transform="translate(3150 0)"/>
    <use xlink:href="#NanumGothicCoding-1" transform="translate(3250 0)"/>
    <use xlink:href="#NanumGothicCoding-ad8" transform="translate(3300 0)"/>
    <use xlink:href="#NanumGothicCoding-485" transform="translate(3400 0)"/>
    <use xlink:href="#NanumGothicCoding-cee" transform="translate(3500 0)"/>
    <use xlink:href="#NanumGothicCoding-5ee" transform="translate(3600 0)"/>
    <use xlink:href="#NanumGothicCoding-f" transform="translate(3700 0)"/>
   </g>
  </g>
 </g>
 <defs>
  <clipPath id="pc16ff5dda3">
   <rect x="76.7" y="54" width="491.04" height="280.8"/>
  </clipPath>
 </defs>
</svg>
