<?xml version="1.0" encoding="utf-8" standalone="no"?>
<!DOCTYPE svg PUBLIC "-//W3C//DTD SVG 1.1//EN"
  "http://www.w3.org/Graphics/SVG/1.1/DTD/svg11.dtd">
<svg xmlns:xlink="http://www.w3.org/1999/xlink" width="652.795204pt" height="403.7pt" viewBox="0 0 652.795204 403.7" xmlns="http://www.w3.org/2000/svg" version="1.1">
 <metadata>
  <rdf:RDF xmlns:dc="http://purl.org/dc/elements/1.1/" xmlns:cc="http://creativecommons.org/ns#" xmlns:rdf="http://www.w3.org/1999/02/22-rdf-syntax-ns#">
   <cc:Work>
    <dc:type rdf:resource="http://purl.org/dc/dcmitype/StillImage"/>
    <dc:date>2026-07-06T12:13:15.470478</dc:date>
    <dc:format>image/svg+xml</dc:format>
    <dc:creator>
     <cc:Agent>
      <dc:title>Matplotlib v3.11.0, https://matplotlib.org/</dc:title>
     </cc:Agent>
    </dc:creator>
   </cc:Work>
  </rdf:RDF>
 </metadata>
 <defs>
  <style type="text/css">*{stroke-linejoin: round; stroke-linecap: butt}</style>
 </defs>
 <g id="figure_1">
  <g id="patch_1">
   <path d="M 0 403.7 
L 652.795204 403.7 
L 652.795204 -0 
L 0 -0 
z
" style="fill: #fcfcfd"/>
  </g>
  <g id="axes_1">
   <g id="patch_2">
    <path d="M 49.2 360 
L 635.1 360 
L 635.1 57.6 
L 49.2 57.6 
z
" style="fill: #ffffff"/>
   </g>
   <g id="matplotlib.axis_1">
    <g id="xtick_1">
     <g id="line2d_1">
      <path d="M 75.831818 360 
L 75.831818 57.6 
" clip-path="url(#p2b1ebd7d7e)" style="fill: none; stroke: #e6e8f0; stroke-width: 0.8; stroke-linecap: round"/>
     </g>
     <g id="text_1">
      <!-- 2000 -->
      <g style="fill: #262626" transform="translate(64.831818 378.3) scale(0.11 -0.11)">
       <defs>
        <path id="NanumGothicCoding-13" d="M 442 -301 
Q 378 -301 342 -297 
Q 307 -294 291 -278 
Q 275 -262 272 -227 
Q 269 -192 269 -122 
L 269 19 
Q 269 102 320 147 
L 1286 1146 
Q 2317 2246 2310 2854 
Q 2317 3277 2125 3501 
Q 1907 3744 1523 3757 
Q 1069 3757 602 3469 
Q 518 3424 499 3507 
L 461 3718 
Q 442 3827 525 3859 
Q 781 4000 1017 4070 
Q 1254 4141 1510 4141 
Q 2022 4141 2387 3834 
Q 2790 3501 2790 2886 
Q 2790 2650 2681 2365 
Q 2573 2080 2336 1760 
Q 2112 1478 1971 1308 
Q 1830 1139 1600 890 
Q 1350 627 1206 480 
Q 1062 333 826 96 
L 2803 96 
Q 2899 90 2893 6 
L 2893 -218 
Q 2893 -301 2810 -301 
L 442 -301 
z
" transform="scale(0.015625)"/>
        <path id="NanumGothicCoding-11" d="M 1747 1242 
L 1453 1242 
Q 1376 1242 1376 1331 
L 1376 2355 
Q 1376 2445 1453 2445 
L 1747 2445 
Q 1824 2445 1824 2355 
L 1824 1331 
Q 1824 1242 1747 1242 
z
M 2470 1907 
Q 2483 3731 1600 3731 
Q 717 3731 730 1907 
Q 717 77 1600 77 
Q 2483 77 2470 1907 
z
M 2906 1907 
Q 2906 -326 1606 -326 
Q 294 -326 294 1907 
Q 294 2726 544 3354 
Q 909 4141 1606 4141 
Q 2285 4141 2662 3354 
Q 2790 3040 2848 2637 
Q 2906 2234 2906 1907 
z
" transform="scale(0.015625)"/>
       </defs>
       <use xlink:href="#NanumGothicCoding-13"/>
       <use xlink:href="#NanumGothicCoding-11" transform="translate(50 0)"/>
       <use xlink:href="#NanumGothicCoding-11" transform="translate(100 0)"/>
       <use xlink:href="#NanumGothicCoding-11" transform="translate(150 0)"/>
      </g>
     </g>
    </g>
    <g id="xtick_2">
     <g id="line2d_2">
      <path d="M 187.621208 360 
L 187.621208 57.6 
" clip-path="url(#p2b1ebd7d7e)" style="fill: none; stroke: #e6e8f0; stroke-width: 0.8; stroke-linecap: round"/>
     </g>
     <g id="text_2">
      <!-- 2005 -->
      <g style="fill: #262626" transform="translate(176.621208 378.3) scale(0.11 -0.11)">
       <defs>
        <path id="NanumGothicCoding-16" d="M 576 -205 
Q 493 -173 493 -90 
L 493 179 
Q 493 288 576 243 
Q 800 134 979 89 
Q 1158 45 1350 45 
Q 1773 45 2112 320 
Q 2464 621 2470 1062 
Q 2470 2042 1414 2042 
Q 1267 2042 1100 2013 
Q 934 1984 704 1907 
Q 634 1888 589 1923 
Q 544 1958 544 2029 
L 582 3910 
Q 582 4045 604 4067 
Q 627 4090 755 4090 
L 2611 4090 
Q 2694 4090 2694 4000 
L 2694 3789 
Q 2694 3699 2611 3699 
L 1005 3699 
Q 998 3296 988 2998 
Q 979 2701 973 2317 
Q 1254 2419 1581 2419 
Q 2099 2419 2496 2074 
Q 2899 1702 2899 1152 
Q 2899 486 2445 51 
Q 1965 -346 1350 -346 
Q 1184 -346 989 -317 
Q 794 -288 576 -205 
z
" transform="scale(0.015625)"/>
       </defs>
       <use xlink:href="#NanumGothicCoding-13"/>
       <use xlink:href="#NanumGothicCoding-11" transform="translate(50 0)"/>
       <use xlink:href="#NanumGothicCoding-11" transform="translate(100 0)"/>
       <use xlink:href="#NanumGothicCoding-16" transform="translate(150 0)"/>
      </g>
     </g>
    </g>
    <g id="xtick_3">
     <g id="line2d_3">
      <path d="M 299.34941 360 
L 299.34941 57.6 
" clip-path="url(#p2b1ebd7d7e)" style="fill: none; stroke: #e6e8f0; stroke-width: 0.8; stroke-linecap: round"/>
     </g>
     <g id="text_3">
      <!-- 2010 -->
      <g style="fill: #262626" transform="translate(288.34941 378.3) scale(0.11 -0.11)">
       <defs>
        <path id="NanumGothicCoding-12" d="M 2022 -211 
Q 2022 -301 1933 -301 
L 1670 -301 
Q 1581 -301 1581 -211 
L 1581 3565 
Q 1382 3398 1209 3251 
Q 1037 3104 845 2938 
Q 774 2880 717 2950 
L 589 3104 
Q 570 3136 570 3171 
Q 570 3206 602 3232 
L 1594 4064 
Q 1619 4090 1670 4090 
L 1843 4090 
Q 1978 4090 2000 4067 
Q 2022 4045 2022 3910 
L 2022 -211 
z
" transform="scale(0.015625)"/>
       </defs>
       <use xlink:href="#NanumGothicCoding-13"/>
       <use xlink:href="#NanumGothicCoding-11" transform="translate(50 0)"/>
       <use xlink:href="#NanumGothicCoding-12" transform="translate(100 0)"/>
       <use xlink:href="#NanumGothicCoding-11" transform="translate(150 0)"/>
      </g>
     </g>
    </g>
    <g id="xtick_4">
     <g id="line2d_4">
      <path d="M 411.077612 360 
L 411.077612 57.6 
" clip-path="url(#p2b1ebd7d7e)" style="fill: none; stroke: #e6e8f0; stroke-width: 0.8; stroke-linecap: round"/>
     </g>
     <g id="text_4">
      <!-- 2015 -->
      <g style="fill: #262626" transform="translate(400.077612 378.3) scale(0.11 -0.11)">
       <use xlink:href="#NanumGothicCoding-13"/>
       <use xlink:href="#NanumGothicCoding-11" transform="translate(50 0)"/>
       <use xlink:href="#NanumGothicCoding-12" transform="translate(100 0)"/>
       <use xlink:href="#NanumGothicCoding-16" transform="translate(150 0)"/>
      </g>
     </g>
    </g>
    <g id="xtick_5">
     <g id="line2d_5">
      <path d="M 522.805814 360 
L 522.805814 57.6 
" clip-path="url(#p2b1ebd7d7e)" style="fill: none; stroke: #e6e8f0; stroke-width: 0.8; stroke-linecap: round"/>
     </g>
     <g id="text_5">
      <!-- 2020 -->
      <g style="fill: #262626" transform="translate(511.805814 378.3) scale(0.11 -0.11)">
       <use xlink:href="#NanumGothicCoding-13"/>
       <use xlink:href="#NanumGothicCoding-11" transform="translate(50 0)"/>
       <use xlink:href="#NanumGothicCoding-13" transform="translate(100 0)"/>
       <use xlink:href="#NanumGothicCoding-11" transform="translate(150 0)"/>
      </g>
     </g>
    </g>
    <g id="xtick_6">
     <g id="line2d_6">
      <path d="M 634.595204 360 
L 634.595204 57.6 
" clip-path="url(#p2b1ebd7d7e)" style="fill: none; stroke: #e6e8f0; stroke-width: 0.8; stroke-linecap: round"/>
     </g>
     <g id="text_6">
      <!-- 2025 -->
      <g style="fill: #262626" transform="translate(623.595204 378.3) scale(0.11 -0.11)">
       <use xlink:href="#NanumGothicCoding-13"/>
       <use xlink:href="#NanumGothicCoding-11" transform="translate(50 0)"/>
       <use xlink:href="#NanumGothicCoding-13" transform="translate(100 0)"/>
       <use xlink:href="#NanumGothicCoding-16" transform="translate(150 0)"/>
      </g>
     </g>
    </g>
    <g id="text_7">
     <!-- 기준월 -->
     <g style="fill: #1f2430" transform="translate(324.15 394.1) scale(0.12 -0.12)">
      <defs>
       <path id="NanumGothicCoding-4dd" d="M 5344 -806 
Q 5344 -896 5254 -896 
L 4992 -896 
Q 4902 -896 4902 -806 
L 4902 4915 
Q 4902 5005 4992 5005 
L 5254 5005 
Q 5344 5005 5344 4915 
L 5344 -806 
z
M 3629 4064 
Q 3597 3514 3411 2982 
Q 3226 2451 2896 1968 
Q 2566 1485 2102 1072 
Q 1638 659 1050 346 
Q 966 301 928 365 
L 787 589 
Q 742 666 813 698 
Q 1357 979 1776 1340 
Q 2195 1702 2492 2124 
Q 2790 2547 2963 3014 
Q 3136 3482 3181 3974 
Q 3194 4070 3155 4105 
Q 3117 4141 3027 4141 
L 992 4141 
Q 915 4141 915 4224 
L 915 4448 
Q 915 4525 992 4525 
L 3149 4525 
Q 3450 4525 3546 4413 
Q 3642 4301 3629 4064 
z
" transform="scale(0.015625)"/>
       <path id="NanumGothicCoding-ab3" d="M 4685 4179 
Q 4499 4013 4268 3859 
Q 4038 3706 3770 3558 
Q 4192 3424 4653 3299 
Q 5114 3174 5523 3091 
Q 5606 3072 5581 3002 
L 5491 2790 
Q 5459 2720 5376 2739 
Q 5165 2778 4899 2842 
Q 4634 2906 4355 2982 
Q 4077 3059 3795 3145 
Q 3514 3232 3277 3315 
Q 2368 2906 1062 2598 
Q 1005 2586 979 2605 
Q 954 2624 941 2662 
L 883 2848 
Q 858 2938 928 2957 
Q 1453 3078 1933 3228 
Q 2413 3379 2832 3548 
Q 3251 3718 3600 3904 
Q 3949 4090 4198 4275 
Q 4301 4352 4278 4393 
Q 4256 4435 4166 4435 
L 1402 4435 
Q 1318 4435 1318 4518 
L 1318 4742 
Q 1318 4819 1402 4819 
L 4326 4819 
Q 4819 4819 4915 4643 
Q 5011 4467 4685 4179 
z
M 3104 339 
Q 3072 339 3046 368 
Q 3021 397 3021 435 
L 3021 1728 
L 480 1728 
Q 442 1728 413 1753 
Q 384 1779 384 1811 
L 384 2029 
Q 384 2067 413 2089 
Q 442 2112 480 2112 
L 5920 2112 
Q 5952 2112 5984 2089 
Q 6016 2067 6016 2029 
L 6016 1811 
Q 6016 1779 5984 1753 
Q 5952 1728 5920 1728 
L 3462 1728 
L 3462 435 
Q 3462 397 3440 368 
Q 3418 339 3379 339 
L 3104 339 
z
M 5325 -704 
Q 5325 -742 5293 -761 
Q 5261 -781 5229 -781 
L 1702 -781 
Q 1402 -781 1309 -656 
Q 1216 -531 1216 -269 
L 1216 1005 
Q 1216 1094 1306 1094 
L 1568 1094 
Q 1658 1094 1658 1005 
L 1658 -262 
Q 1658 -352 1686 -374 
Q 1715 -397 1805 -397 
L 5229 -397 
Q 5261 -397 5293 -419 
Q 5325 -442 5325 -474 
L 5325 -704 
z
" transform="scale(0.015625)"/>
       <path id="NanumGothicCoding-a18" d="M 3834 3942 
Q 3834 3725 3718 3542 
Q 3603 3360 3408 3225 
Q 3213 3091 2947 3017 
Q 2682 2944 2374 2944 
Q 2080 2944 1817 3017 
Q 1555 3091 1360 3222 
Q 1165 3354 1053 3536 
Q 941 3718 941 3942 
Q 941 4192 1053 4377 
Q 1165 4563 1360 4691 
Q 1555 4819 1817 4883 
Q 2080 4947 2374 4947 
Q 2656 4947 2918 4883 
Q 3181 4819 3385 4691 
Q 3590 4563 3712 4374 
Q 3834 4186 3834 3942 
z
M 5472 -838 
Q 5472 -870 5443 -892 
Q 5414 -915 5389 -915 
L 2022 -915 
Q 1722 -915 1629 -803 
Q 1536 -691 1536 -422 
L 1536 -134 
Q 1536 134 1648 227 
Q 1760 320 2048 320 
L 4755 320 
Q 4845 320 4870 345 
Q 4896 371 4896 467 
L 4896 640 
Q 4896 736 4873 761 
Q 4851 787 4762 787 
L 1613 787 
Q 1581 787 1552 806 
Q 1523 826 1523 858 
L 1523 1088 
Q 1523 1120 1552 1139 
Q 1581 1158 1613 1158 
L 4832 1158 
Q 4986 1158 5082 1136 
Q 5178 1114 5235 1062 
Q 5293 1011 5315 918 
Q 5338 826 5338 691 
L 5338 403 
Q 5338 134 5226 41 
Q 5114 -51 4826 -51 
L 2112 -51 
Q 2022 -51 2000 -76 
Q 1978 -102 1978 -198 
L 1978 -397 
Q 1978 -486 2003 -515 
Q 2029 -544 2118 -544 
L 5382 -544 
Q 5414 -544 5443 -563 
Q 5472 -582 5472 -614 
L 5472 -838 
z
M 3411 3949 
Q 3411 4122 3318 4240 
Q 3226 4358 3075 4432 
Q 2925 4506 2739 4541 
Q 2554 4576 2374 4576 
Q 2189 4576 2006 4541 
Q 1824 4506 1680 4429 
Q 1536 4352 1449 4233 
Q 1363 4115 1363 3949 
Q 1363 3789 1446 3667 
Q 1530 3546 1670 3466 
Q 1811 3386 1993 3347 
Q 2176 3309 2374 3309 
Q 2554 3309 2739 3350 
Q 2925 3392 3075 3475 
Q 3226 3558 3318 3676 
Q 3411 3795 3411 3949 
z
M 4902 2029 
L 4902 4915 
Q 4902 5005 4992 5005 
L 5254 5005 
Q 5344 5005 5344 4915 
L 5344 1555 
Q 5344 1466 5254 1466 
L 4992 1466 
Q 4902 1466 4902 1555 
L 4902 1658 
L 3616 1658 
Q 3533 1658 3533 1734 
L 3533 1952 
Q 3533 2029 3616 2029 
L 4902 2029 
z
M 4384 2778 
Q 4416 2784 4445 2768 
Q 4474 2752 4480 2726 
L 4506 2509 
Q 4525 2426 4429 2413 
Q 4026 2362 3558 2320 
Q 3091 2278 2630 2259 
L 2630 1427 
Q 2630 1389 2608 1360 
Q 2586 1331 2547 1331 
L 2272 1331 
Q 2240 1331 2214 1360 
Q 2189 1389 2189 1427 
L 2189 2240 
Q 1997 2234 1776 2224 
Q 1555 2214 1340 2211 
Q 1126 2208 928 2205 
Q 730 2202 582 2208 
Q 544 2208 515 2233 
Q 486 2259 486 2291 
L 486 2509 
Q 486 2547 515 2569 
Q 544 2592 582 2592 
Q 762 2592 1014 2595 
Q 1267 2598 1536 2604 
Q 1805 2611 2057 2617 
Q 2310 2624 2490 2630 
Q 2714 2637 2963 2653 
Q 3213 2669 3462 2688 
Q 3712 2707 3949 2729 
Q 4186 2752 4384 2778 
z
" transform="scale(0.015625)"/>
      </defs>
      <use xlink:href="#NanumGothicCoding-4dd"/>
      <use xlink:href="#NanumGothicCoding-ab3" transform="translate(100 0)"/>
      <use xlink:href="#NanumGothicCoding-a18" transform="translate(200 0)"/>
     </g>
    </g>
   </g>
   <g id="matplotlib.axis_2">
    <g id="ytick_1">
     <g id="line2d_7">
      <path d="M 49.2 324.631324 
L 635.1 324.631324 
" clip-path="url(#p2b1ebd7d7e)" style="fill: none; stroke: #e6e8f0; stroke-width: 0.8; stroke-linecap: round"/>
     </g>
     <g id="text_8">
      <!-- 70 -->
      <g style="fill: #262626" transform="translate(28.7 329.031324) scale(0.11 -0.11)">
       <defs>
        <path id="NanumGothicCoding-18" d="M 1325 -211 
Q 1280 -301 1197 -301 
L 877 -301 
Q 838 -301 822 -275 
Q 806 -250 826 -211 
L 2400 3693 
L 429 3693 
Q 339 3693 339 3782 
L 339 4000 
Q 339 4090 429 4090 
L 2682 4090 
Q 2816 4090 2838 4067 
Q 2861 4045 2861 3910 
L 2861 3750 
Q 2861 3699 2842 3661 
L 1325 -211 
z
" transform="scale(0.015625)"/>
       </defs>
       <use xlink:href="#NanumGothicCoding-18"/>
       <use xlink:href="#NanumGothicCoding-11" transform="translate(50 0)"/>
      </g>
     </g>
    </g>
    <g id="ytick_2">
     <g id="line2d_8">
      <path d="M 49.2 273.474669 
L 635.1 273.474669 
" clip-path="url(#p2b1ebd7d7e)" style="fill: none; stroke: #e6e8f0; stroke-width: 0.8; stroke-linecap: round"/>
     </g>
     <g id="text_9">
      <!-- 80 -->
      <g style="fill: #262626" transform="translate(28.7 277.874669) scale(0.11 -0.11)">
       <defs>
        <path id="NanumGothicCoding-19" d="M 3008 832 
Q 3008 538 2893 307 
Q 2778 77 2554 -70 
Q 2362 -198 2122 -272 
Q 1882 -346 1594 -346 
Q 1306 -346 1072 -272 
Q 838 -198 634 -70 
Q 422 77 304 307 
Q 186 538 186 832 
Q 186 1286 480 1574 
Q 710 1811 1184 1990 
Q 314 2438 314 3110 
Q 314 3360 435 3552 
Q 557 3744 768 3891 
Q 954 4013 1139 4077 
Q 1325 4141 1600 4141 
Q 1875 4141 2067 4077 
Q 2259 4013 2432 3891 
Q 2874 3610 2874 3110 
Q 2874 2490 1990 1990 
Q 2214 1907 2403 1798 
Q 2592 1690 2701 1574 
Q 3008 1286 3008 832 
z
M 2445 3040 
Q 2445 3379 2202 3565 
Q 1965 3750 1600 3750 
Q 1235 3750 998 3565 
Q 742 3379 742 3040 
Q 742 2771 1005 2541 
Q 1094 2470 1222 2380 
Q 1350 2291 1517 2202 
Q 1568 2170 1597 2170 
Q 1626 2170 1683 2202 
Q 2035 2432 2240 2643 
Q 2445 2854 2445 3040 
z
M 2592 858 
Q 2592 1184 2310 1408 
Q 2221 1478 2064 1580 
Q 1907 1683 1670 1792 
Q 1587 1837 1504 1792 
Q 1286 1702 1120 1590 
Q 954 1478 864 1408 
Q 749 1306 678 1162 
Q 608 1018 608 858 
Q 608 467 928 237 
Q 1210 38 1600 38 
Q 2003 38 2272 237 
Q 2592 467 2592 858 
z
" transform="scale(0.015625)"/>
       </defs>
       <use xlink:href="#NanumGothicCoding-19"/>
       <use xlink:href="#NanumGothicCoding-11" transform="translate(50 0)"/>
      </g>
     </g>
    </g>
    <g id="ytick_3">
     <g id="line2d_9">
      <path d="M 49.2 222.318013 
L 635.1 222.318013 
" clip-path="url(#p2b1ebd7d7e)" style="fill: none; stroke: #e6e8f0; stroke-width: 0.8; stroke-linecap: round"/>
     </g>
     <g id="text_10">
      <!-- 90 -->
      <g style="fill: #262626" transform="translate(28.7 226.718013) scale(0.11 -0.11)">
       <defs>
        <path id="NanumGothicCoding-1a" d="M 563 154 
Q 704 102 848 73 
Q 992 45 1126 45 
Q 1760 45 2157 608 
Q 2483 1120 2502 1926 
Q 2374 1683 2163 1517 
Q 1888 1299 1510 1299 
Q 1088 1299 755 1587 
Q 282 1997 282 2694 
Q 282 3315 659 3738 
Q 1043 4160 1555 4160 
Q 2067 4160 2458 3744 
Q 2931 3219 2938 2054 
Q 2938 998 2477 339 
Q 1926 -352 1139 -352 
Q 1018 -352 851 -329 
Q 685 -307 538 -262 
Q 442 -250 454 -160 
L 467 96 
Q 467 134 499 150 
Q 531 166 563 154 
z
M 723 2726 
Q 717 2362 896 2074 
Q 1152 1702 1555 1702 
Q 1709 1696 1878 1779 
Q 2048 1862 2166 2022 
Q 2285 2182 2339 2368 
Q 2394 2554 2394 2726 
Q 2394 3091 2214 3379 
Q 1958 3770 1555 3770 
Q 1152 3770 896 3379 
Q 730 3091 723 2726 
z
" transform="scale(0.015625)"/>
       </defs>
       <use xlink:href="#NanumGothicCoding-1a"/>
       <use xlink:href="#NanumGothicCoding-11" transform="translate(50 0)"/>
      </g>
     </g>
    </g>
    <g id="ytick_4">
     <g id="line2d_10">
      <path d="M 49.2 171.161357 
L 635.1 171.161357 
" clip-path="url(#p2b1ebd7d7e)" style="fill: none; stroke: #e6e8f0; stroke-width: 0.8; stroke-linecap: round"/>
     </g>
     <g id="text_11">
      <!-- 100 -->
      <g style="fill: #262626" transform="translate(23.2 175.561357) scale(0.11 -0.11)">
       <use xlink:href="#NanumGothicCoding-12"/>
       <use xlink:href="#NanumGothicCoding-11" transform="translate(50 0)"/>
       <use xlink:href="#NanumGothicCoding-11" transform="translate(100 0)"/>
      </g>
     </g>
    </g>
    <g id="ytick_5">
     <g id="line2d_11">
      <path d="M 49.2 120.004702 
L 635.1 120.004702 
" clip-path="url(#p2b1ebd7d7e)" style="fill: none; stroke: #e6e8f0; stroke-width: 0.8; stroke-linecap: round"/>
     </g>
     <g id="text_12">
      <!-- 110 -->
      <g style="fill: #262626" transform="translate(23.2 124.404702) scale(0.11 -0.11)">
       <use xlink:href="#NanumGothicCoding-12"/>
       <use xlink:href="#NanumGothicCoding-12" transform="translate(50 0)"/>
       <use xlink:href="#NanumGothicCoding-11" transform="translate(100 0)"/>
      </g>
     </g>
    </g>
    <g id="ytick_6">
     <g id="line2d_12">
      <path d="M 49.2 68.848046 
L 635.1 68.848046 
" clip-path="url(#p2b1ebd7d7e)" style="fill: none; stroke: #e6e8f0; stroke-width: 0.8; stroke-linecap: round"/>
     </g>
     <g id="text_13">
      <!-- 120 -->
      <g style="fill: #262626" transform="translate(23.2 73.248046) scale(0.11 -0.11)">
       <use xlink:href="#NanumGothicCoding-12"/>
       <use xlink:href="#NanumGothicCoding-13" transform="translate(50 0)"/>
       <use xlink:href="#NanumGothicCoding-11" transform="translate(100 0)"/>
      </g>
     </g>
    </g>
    <g id="text_14">
     <!-- 소비자물가지수 -->
     <g style="fill: #1f2430" transform="translate(16.8 250.8) rotate(-90) scale(0.12 -0.12)">
      <defs>
       <path id="NanumGothicCoding-8d7" d="M 3315 2112 
Q 3347 2112 3372 2083 
Q 3398 2054 3398 2016 
L 3398 499 
L 5920 499 
Q 5952 499 5984 476 
Q 6016 454 6016 416 
L 6016 198 
Q 6016 166 5984 140 
Q 5952 115 5920 115 
L 480 115 
Q 442 115 413 140 
Q 384 166 384 198 
L 384 416 
Q 384 454 413 476 
Q 442 499 480 499 
L 2957 499 
L 2957 2016 
Q 2957 2054 2979 2083 
Q 3002 2112 3040 2112 
L 3315 2112 
z
M 3424 4608 
Q 3411 4525 3398 4441 
Q 3386 4358 3360 4275 
Q 3373 4205 3392 4141 
Q 3411 4077 3437 4032 
Q 3590 3725 3811 3459 
Q 4032 3194 4301 2976 
Q 4570 2758 4880 2595 
Q 5190 2432 5517 2336 
Q 5555 2323 5568 2284 
Q 5581 2246 5568 2214 
L 5466 1997 
Q 5446 1965 5424 1945 
Q 5402 1926 5338 1952 
Q 4621 2208 4054 2662 
Q 3488 3117 3149 3718 
Q 2848 3117 2304 2627 
Q 1760 2138 1062 1875 
Q 960 1837 934 1901 
L 819 2125 
Q 806 2157 816 2192 
Q 826 2227 864 2246 
Q 1754 2592 2307 3216 
Q 2861 3840 2982 4653 
Q 2989 4730 3066 4730 
L 3354 4698 
Q 3430 4685 3424 4608 
z
" transform="scale(0.015625)"/>
       <path id="NanumGothicCoding-83a" d="M 5350 -806 
Q 5350 -896 5261 -896 
L 4998 -896 
Q 4909 -896 4909 -806 
L 4909 4915 
Q 4909 5005 4998 5005 
L 5261 5005 
Q 5350 5005 5350 4915 
L 5350 -806 
z
M 1370 781 
Q 1216 781 1123 800 
Q 1030 819 979 873 
Q 928 928 909 1014 
Q 890 1101 890 1235 
L 890 4602 
Q 890 4634 915 4656 
Q 941 4678 973 4678 
L 1248 4678 
Q 1280 4678 1302 4652 
Q 1325 4627 1325 4602 
L 1325 3117 
L 3309 3117 
L 3309 4595 
Q 3309 4627 3331 4652 
Q 3354 4678 3386 4678 
L 3661 4678 
Q 3693 4678 3718 4656 
Q 3744 4634 3744 4602 
L 3744 1190 
Q 3744 947 3641 864 
Q 3539 781 3258 781 
L 1370 781 
z
M 1325 2739 
L 1325 1312 
Q 1325 1216 1357 1187 
Q 1389 1158 1478 1158 
L 3155 1158 
Q 3245 1158 3277 1187 
Q 3309 1216 3309 1312 
L 3309 2739 
L 1325 2739 
z
" transform="scale(0.015625)"/>
       <path id="NanumGothicCoding-a57" d="M 3866 858 
Q 3846 826 3817 819 
Q 3789 813 3738 851 
Q 3584 966 3411 1116 
Q 3238 1267 3072 1436 
Q 2906 1606 2746 1788 
Q 2586 1971 2451 2150 
Q 2131 1747 1721 1379 
Q 1312 1011 787 646 
Q 755 627 723 617 
Q 691 608 672 634 
L 518 832 
Q 493 864 499 899 
Q 506 934 531 954 
Q 1555 1677 2128 2419 
Q 2701 3162 2925 3968 
Q 2950 4058 2928 4099 
Q 2906 4141 2816 4141 
L 877 4141 
Q 800 4141 800 4224 
L 800 4448 
Q 800 4525 890 4525 
L 2989 4525 
Q 3322 4525 3411 4409 
Q 3501 4294 3411 4000 
Q 3162 3181 2707 2496 
Q 2854 2291 3020 2092 
Q 3187 1894 3353 1718 
Q 3520 1542 3686 1398 
Q 3853 1254 4000 1158 
Q 4032 1133 4032 1101 
Q 4032 1069 4013 1043 
L 3866 858 
z
M 5120 -806 
Q 5120 -896 5030 -896 
L 4768 -896 
Q 4678 -896 4678 -806 
L 4678 4915 
Q 4678 5005 4768 5005 
L 5030 5005 
Q 5120 5005 5120 4915 
L 5120 2586 
L 6003 2586 
Q 6042 2586 6070 2563 
Q 6099 2541 6099 2502 
L 6099 2285 
Q 6099 2253 6070 2227 
Q 6042 2202 6003 2202 
L 5120 2202 
L 5120 -806 
z
" transform="scale(0.015625)"/>
       <path id="NanumGothicCoding-79b" d="M 1299 4538 
Q 1299 4806 1401 4899 
Q 1504 4992 1786 4992 
L 4614 4992 
Q 4768 4992 4861 4973 
Q 4954 4954 5008 4902 
Q 5062 4851 5081 4761 
Q 5101 4672 5101 4538 
L 5101 3475 
Q 5101 3206 4998 3113 
Q 4896 3021 4614 3021 
L 1786 3021 
Q 1632 3021 1539 3040 
Q 1446 3059 1392 3113 
Q 1338 3168 1318 3254 
Q 1299 3341 1299 3475 
L 1299 4538 
z
M 5248 -781 
Q 5248 -813 5219 -835 
Q 5190 -858 5165 -858 
L 1760 -858 
Q 1459 -858 1366 -746 
Q 1274 -634 1274 -365 
L 1274 45 
Q 1274 314 1386 406 
Q 1498 499 1786 499 
L 4538 499 
Q 4627 499 4652 524 
Q 4678 550 4678 646 
L 4678 954 
Q 4678 1050 4656 1075 
Q 4634 1101 4544 1101 
L 1350 1101 
Q 1318 1101 1289 1120 
Q 1261 1139 1261 1171 
L 1261 1395 
Q 1261 1427 1289 1446 
Q 1318 1466 1350 1466 
L 2970 1466 
L 2970 2093 
L 480 2093 
Q 442 2093 413 2118 
Q 384 2144 384 2176 
L 384 2394 
Q 384 2432 413 2454 
Q 442 2477 480 2477 
L 5920 2477 
Q 5952 2477 5984 2454 
Q 6016 2432 6016 2394 
L 6016 2176 
Q 6016 2144 5984 2118 
Q 5952 2093 5920 2093 
L 3411 2093 
L 3411 1466 
L 4608 1466 
Q 4762 1466 4858 1443 
Q 4954 1421 5011 1369 
Q 5069 1318 5091 1225 
Q 5114 1133 5114 998 
L 5114 589 
Q 5114 320 5002 227 
Q 4890 134 4602 134 
L 1843 134 
Q 1754 134 1731 108 
Q 1709 83 1709 -13 
L 1709 -339 
Q 1709 -429 1734 -457 
Q 1760 -486 1850 -486 
L 5158 -486 
Q 5190 -486 5219 -505 
Q 5248 -525 5248 -557 
L 5248 -781 
z
M 1894 4608 
Q 1805 4608 1773 4573 
Q 1741 4538 1741 4442 
L 1741 3571 
Q 1741 3475 1773 3440 
Q 1805 3405 1894 3405 
L 4506 3405 
Q 4595 3405 4627 3440 
Q 4659 3475 4659 3571 
L 4659 4442 
Q 4659 4538 4627 4573 
Q 4595 4608 4506 4608 
L 1894 4608 
z
" transform="scale(0.015625)"/>
       <path id="NanumGothicCoding-43e" d="M 3437 4064 
Q 3405 3514 3219 2982 
Q 3034 2451 2704 1968 
Q 2374 1485 1910 1072 
Q 1446 659 858 346 
Q 774 301 736 365 
L 595 589 
Q 550 666 621 698 
Q 1165 979 1584 1340 
Q 2003 1702 2300 2124 
Q 2598 2547 2771 3014 
Q 2944 3482 2989 3974 
Q 3002 4070 2963 4105 
Q 2925 4141 2835 4141 
L 851 4141 
Q 774 4141 774 4224 
L 774 4448 
Q 774 4525 851 4525 
L 2957 4525 
Q 3258 4525 3354 4413 
Q 3450 4301 3437 4064 
z
M 5120 -806 
Q 5120 -896 5030 -896 
L 4768 -896 
Q 4678 -896 4678 -806 
L 4678 4915 
Q 4678 5005 4768 5005 
L 5030 5005 
Q 5120 5005 5120 4915 
L 5120 2650 
L 6003 2650 
Q 6042 2650 6070 2627 
Q 6099 2605 6099 2566 
L 6099 2349 
Q 6099 2317 6070 2291 
Q 6042 2266 6003 2266 
L 5120 2266 
L 5120 -806 
z
" transform="scale(0.015625)"/>
       <path id="NanumGothicCoding-ad1" d="M 4019 858 
Q 4000 826 3971 819 
Q 3942 813 3891 851 
Q 3738 966 3565 1116 
Q 3392 1267 3225 1436 
Q 3059 1606 2899 1788 
Q 2739 1971 2605 2150 
Q 2285 1747 1875 1379 
Q 1466 1011 941 646 
Q 909 627 877 617 
Q 845 608 826 634 
L 672 832 
Q 646 864 652 899 
Q 659 934 685 954 
Q 1709 1677 2281 2419 
Q 2854 3162 3078 3968 
Q 3104 4058 3081 4099 
Q 3059 4141 2970 4141 
L 1030 4141 
Q 954 4141 954 4224 
L 954 4448 
Q 954 4525 1043 4525 
L 3142 4525 
Q 3475 4525 3564 4409 
Q 3654 4294 3565 4000 
Q 3315 3181 2861 2496 
Q 3008 2291 3174 2092 
Q 3341 1894 3507 1718 
Q 3674 1542 3840 1398 
Q 4006 1254 4154 1158 
Q 4186 1133 4186 1101 
Q 4186 1069 4166 1043 
L 4019 858 
z
M 5344 -806 
Q 5344 -896 5254 -896 
L 4992 -896 
Q 4902 -896 4902 -806 
L 4902 4915 
Q 4902 5005 4992 5005 
L 5254 5005 
Q 5344 5005 5344 4915 
L 5344 -806 
z
" transform="scale(0.015625)"/>
       <path id="NanumGothicCoding-8fb" d="M 3046 -858 
Q 3014 -858 2988 -829 
Q 2963 -800 2963 -762 
L 2963 1325 
L 480 1325 
Q 442 1325 413 1350 
Q 384 1376 384 1408 
L 384 1626 
Q 384 1664 413 1686 
Q 442 1709 480 1709 
L 5920 1709 
Q 5952 1709 5984 1686 
Q 6016 1664 6016 1626 
L 6016 1408 
Q 6016 1376 5984 1350 
Q 5952 1325 5920 1325 
L 3405 1325 
L 3405 -762 
Q 3405 -800 3382 -829 
Q 3360 -858 3322 -858 
L 3046 -858 
z
M 3424 4864 
Q 3411 4781 3392 4704 
Q 3373 4627 3354 4557 
Q 3373 4486 3398 4425 
Q 3424 4365 3456 4307 
Q 3565 4096 3776 3881 
Q 3987 3667 4262 3478 
Q 4538 3290 4858 3142 
Q 5178 2995 5517 2912 
Q 5555 2899 5568 2860 
Q 5581 2822 5568 2790 
L 5466 2573 
Q 5446 2541 5424 2528 
Q 5402 2515 5338 2528 
Q 4998 2618 4665 2774 
Q 4333 2931 4045 3136 
Q 3757 3341 3523 3577 
Q 3290 3814 3142 4058 
Q 2867 3558 2355 3158 
Q 1843 2758 1069 2451 
Q 966 2413 941 2477 
L 819 2701 
Q 806 2733 816 2771 
Q 826 2810 864 2822 
Q 1280 2963 1657 3196 
Q 2035 3430 2323 3712 
Q 2611 3994 2787 4301 
Q 2963 4608 2982 4909 
Q 2989 4986 3066 4986 
L 3354 4954 
Q 3386 4947 3411 4928 
Q 3437 4909 3424 4864 
z
" transform="scale(0.015625)"/>
      </defs>
      <use xlink:href="#NanumGothicCoding-8d7"/>
      <use xlink:href="#NanumGothicCoding-83a" transform="translate(100 0)"/>
      <use xlink:href="#NanumGothicCoding-a57" transform="translate(200 0)"/>
      <use xlink:href="#NanumGothicCoding-79b" transform="translate(300 0)"/>
      <use xlink:href="#NanumGothicCoding-43e" transform="translate(400 0)"/>
      <use xlink:href="#NanumGothicCoding-ad1" transform="translate(500 0)"/>
      <use xlink:href="#NanumGothicCoding-8fb" transform="translate(600 0)"/>
     </g>
    </g>
   </g>
   <g id="FillBetweenPolyCollection_1"/>
   <g id="line2d_13">
    <path d="M 75.831818 345.914799 
L 77.728628 344.884773 
L 79.503063 343.186039 
L 81.399872 344.550419 
L 83.235494 346.254545 
L 85.132304 344.550419 
L 86.967926 343.186039 
L 88.864736 341.487305 
L 90.761545 337.059811 
L 92.597167 337.399557 
L 94.493977 339.443431 
L 96.329599 338.084444 
L 98.226409 334.331051 
L 100.123218 332.632317 
L 101.836465 329.56381 
L 103.733275 328.204822 
L 105.568897 328.544569 
L 107.465707 327.525329 
L 109.301329 326.845835 
L 111.198138 325.481455 
L 113.094948 325.821202 
L 114.93057 325.821202 
L 116.82738 327.859683 
L 118.663002 327.180189 
L 120.559811 325.141708 
L 122.456621 323.437582 
L 124.169868 321.393708 
L 126.066678 319.349834 
L 127.9023 317.990847 
L 129.79911 318.330594 
L 131.634732 319.349834 
L 133.531541 316.966214 
L 135.428351 314.916948 
L 137.263973 315.946974 
L 139.160783 315.601834 
L 140.996405 313.908493 
L 142.893214 311.514087 
L 144.790024 309.475606 
L 146.503271 305.048112 
L 150.235703 306.407099 
L 152.132513 307.431732 
L 153.968135 307.766086 
L 155.864944 306.067352 
L 157.761754 302.659099 
L 159.597376 302.324745 
L 161.494186 303.004238 
L 163.329808 301.294719 
L 165.226617 298.911098 
L 167.123427 297.212364 
L 168.897862 293.469757 
L 170.794671 293.469757 
L 172.630293 293.804111 
L 174.527103 293.804111 
L 176.362725 291.42049 
L 178.259535 288.023022 
L 181.991966 288.023022 
L 183.888776 290.40125 
L 185.724398 289.716363 
L 187.621208 285.849721 
L 189.518017 284.242665 
L 191.231265 281.837473 
L 193.128074 281.433013 
L 194.963696 281.837473 
L 196.860506 283.045462 
L 198.696128 281.433013 
L 200.592938 280.230417 
L 202.489747 278.224293 
L 204.325369 279.027821 
L 206.222179 280.634877 
L 208.057801 279.426889 
L 209.954611 277.021697 
L 211.85142 276.212776 
L 213.564668 273.807585 
L 215.461477 273.403124 
L 217.297099 272.604989 
L 219.193909 273.403124 
L 221.029531 271.801461 
L 222.926341 269.396269 
L 224.82315 268.193673 
L 228.555582 272.200528 
L 230.391204 270.997932 
L 232.288014 270.199797 
L 235.898071 264.97956 
L 237.79488 263.377897 
L 239.630502 262.973437 
L 241.527312 262.973437 
L 243.362934 261.36638 
L 245.259744 260.967313 
L 247.156553 258.556728 
L 248.992175 257.758593 
L 250.888985 257.758593 
L 252.724607 256.151536 
L 254.621417 254.150805 
L 256.518226 252.538356 
L 258.292661 248.526108 
L 260.189471 246.115524 
L 262.025093 242.513129 
L 263.921902 239.703477 
L 265.757524 236.489364 
L 267.654334 237.292893 
L 269.551144 236.888432 
L 271.386766 237.292893 
L 273.283575 238.495488 
L 275.119197 238.495488 
L 277.016007 238.091028 
L 278.912817 234.882308 
L 280.626064 231.673588 
L 282.522873 230.476385 
L 284.358496 230.476385 
L 286.255305 230.875453 
L 289.987737 227.66134 
L 291.884546 227.25688 
L 293.720169 228.464868 
L 295.616978 227.66134 
L 297.4526 226.054284 
L 299.34941 222.446497 
L 302.959467 220.585978 
L 304.856276 218.72546 
L 306.691899 218.256286 
L 308.588708 218.72546 
L 310.42433 217.792505 
L 312.32114 215.457419 
L 314.217949 211.736383 
L 316.053572 211.736383 
L 317.950381 214.060683 
L 319.786003 212.200164 
L 321.682813 206.607824 
L 323.579622 203.350569 
L 325.29287 201.484658 
L 327.189679 201.015484 
L 330.922111 199.154966 
L 332.757733 196.825273 
L 334.654543 193.562626 
L 336.551352 194.0318 
L 338.386975 194.959362 
L 340.283784 194.495581 
L 345.913025 188.811563 
L 347.68746 188.67135 
L 349.58427 188.719885 
L 351.419892 187.835465 
L 353.316701 188.53653 
L 355.152324 189.652841 
L 357.049133 187.371684 
L 358.945943 183.82861 
L 360.781565 184.761566 
L 362.678374 186.530406 
L 364.513997 185.645986 
L 366.410806 182.663764 
L 368.307616 180.991994 
L 370.020863 181.455775 
L 371.917673 182.151447 
L 373.753295 182.151447 
L 375.650104 182.760834 
L 377.485727 181.687666 
L 379.382536 179.913433 
L 381.279346 178.937335 
L 383.114968 180.474284 
L 385.011777 180.571355 
L 386.8474 179.961968 
L 388.744209 177.260172 
L 390.641019 175.91197 
L 392.354266 174.979015 
L 394.251076 174.650054 
L 396.086698 173.814169 
L 397.983507 174.466698 
L 399.81913 173.722491 
L 401.715939 172.832678 
L 403.612749 173.161639 
L 405.448371 174.698589 
L 407.34518 175.723222 
L 409.180803 175.771757 
L 411.077612 172.33654 
L 412.974422 172.638537 
L 416.584479 172.43361 
L 418.420101 171.004516 
L 420.31691 170.902053 
L 422.152533 169.979883 
L 424.049342 169.26264 
L 425.946152 170.594663 
L 427.781774 170.594663 
L 429.678583 171.565368 
L 431.514206 170.033811 
L 433.411015 169.160177 
L 435.307825 166.959912 
L 437.082259 168.291935 
L 438.979069 167.32123 
L 440.814691 167.01384 
L 442.711501 167.116303 
L 444.547123 168.087008 
L 446.443932 166.760378 
L 448.340742 163.686478 
L 450.176364 162.974628 
L 452.073174 163.740406 
L 453.908796 163.174162 
L 455.805605 157.651928 
L 457.702415 156.217441 
L 459.415662 156.578759 
L 461.312472 157.242075 
L 463.148094 156.681223 
L 465.044904 157.802926 
L 466.880526 156.934685 
L 468.777335 153.920106 
L 470.674145 153.305326 
L 472.509767 153.817643 
L 474.406577 157.754391 
L 476.242199 155.861516 
L 478.139008 153.661251 
L 480.035818 149.622039 
L 481.749065 150.182891 
L 483.645875 149.212186 
L 485.481497 148.953331 
L 489.213929 151.051133 
L 491.110738 146.348606 
L 493.007548 142.255466 
L 494.84317 143.226171 
L 496.73998 147.060456 
L 498.575602 148.904796 
L 500.472411 149.465648 
L 502.369221 147.162919 
L 504.082468 148.187553 
L 505.979278 146.246142 
L 507.8149 145.323972 
L 509.71171 146.192214 
L 511.547332 147.831627 
L 513.444141 146.54814 
L 515.340951 144.558194 
L 517.176573 143.226171 
L 519.073383 146.246142 
L 520.909005 144.962654 
L 522.805814 142.961923 
L 524.702624 142.584427 
L 526.477059 143.770844 
L 528.373868 146.143679 
L 530.20949 146.467247 
L 532.1063 145.01119 
L 533.941922 145.442614 
L 537.735541 139.456599 
L 539.571163 142.476571 
L 541.467973 142.961923 
L 543.303595 141.66765 
L 545.200405 137.838757 
L 547.097214 134.926642 
L 548.810462 133.524512 
L 550.707271 132.769519 
L 552.542893 132.392023 
L 554.439703 132.392023 
L 556.275325 131.259533 
L 558.172135 128.617058 
L 560.068944 126.35208 
L 561.904566 125.381374 
L 563.801376 122.577115 
L 565.636998 121.660338 
L 569.430617 114.865402 
L 573.040674 106.506552 
L 574.876296 102.67766 
L 576.773106 99.118407 
L 578.608728 96.314148 
L 580.505538 96.961285 
L 584.237969 93.779529 
L 586.134779 94.372738 
L 587.970401 93.402033 
L 589.867211 88.979931 
L 591.76402 87.469946 
L 593.477268 86.49924 
L 595.374077 85.204967 
L 597.209699 83.425341 
L 599.106509 83.479269 
L 600.942131 83.047844 
L 602.838941 76.953973 
L 604.73575 73.394721 
L 606.571372 71.345455 
L 608.468182 74.742923 
L 608.468182 74.742923 
" clip-path="url(#p2b1ebd7d7e)" style="fill: none; stroke: #a3befa; stroke-width: 1.2; stroke-linecap: round"/>
   </g>
   <g id="patch_3">
    <path d="M 49.2 360 
L 49.2 57.6 
" style="fill: none; stroke: #d7dbe7; stroke-width: 1.25; stroke-linejoin: miter; stroke-linecap: square"/>
   </g>
   <g id="patch_4">
    <path d="M 49.2 360 
L 635.1 360 
" style="fill: none; stroke: #d7dbe7; stroke-width: 1.25; stroke-linejoin: miter; stroke-linecap: square"/>
   </g>
  </g>
  <g id="text_15">
   <!-- 한국 소비자물가지수는 장기적으로 우상향했다 -->
   <g style="fill: #1f2430" transform="translate(49.2 18.328203) scale(0.13 -0.13)">
    <defs>
     <path id="NanumGothicCoding-ce0" d="M 3680 2170 
Q 3680 1939 3577 1734 
Q 3475 1530 3299 1376 
Q 3123 1222 2880 1136 
Q 2637 1050 2355 1050 
Q 2074 1050 1830 1136 
Q 1587 1222 1411 1376 
Q 1235 1530 1136 1734 
Q 1037 1939 1037 2170 
Q 1037 2400 1136 2601 
Q 1235 2803 1411 2953 
Q 1587 3104 1830 3190 
Q 2074 3277 2355 3277 
Q 2637 3277 2880 3190 
Q 3123 3104 3299 2953 
Q 3475 2803 3577 2601 
Q 3680 2400 3680 2170 
z
M 5120 544 
Q 5120 454 5030 454 
L 4768 454 
Q 4678 454 4678 544 
L 4678 4915 
Q 4678 5005 4768 5005 
L 5030 5005 
Q 5120 5005 5120 4915 
L 5120 2797 
L 6003 2797 
Q 6042 2797 6070 2774 
Q 6099 2752 6099 2714 
L 6099 2496 
Q 6099 2464 6070 2438 
Q 6042 2413 6003 2413 
L 5120 2413 
L 5120 544 
z
M 3245 2170 
Q 3245 2323 3177 2454 
Q 3110 2586 2992 2682 
Q 2874 2778 2710 2832 
Q 2547 2886 2355 2886 
Q 2163 2886 2003 2832 
Q 1843 2778 1721 2682 
Q 1600 2586 1533 2454 
Q 1466 2323 1466 2170 
Q 1466 2016 1533 1881 
Q 1600 1747 1721 1651 
Q 1843 1555 2003 1497 
Q 2163 1440 2355 1440 
Q 2547 1440 2710 1497 
Q 2874 1555 2992 1651 
Q 3110 1747 3177 1881 
Q 3245 2016 3245 2170 
z
M 5408 -723 
Q 5408 -762 5376 -781 
Q 5344 -800 5312 -800 
L 2010 -800 
Q 1709 -800 1616 -688 
Q 1523 -576 1523 -314 
L 1523 570 
Q 1523 659 1613 659 
L 1875 659 
Q 1965 659 1965 570 
L 1965 -288 
Q 1965 -378 1993 -397 
Q 2022 -416 2112 -416 
L 5312 -416 
Q 5344 -416 5376 -438 
Q 5408 -461 5408 -493 
L 5408 -723 
z
M 4218 3667 
Q 4218 3584 4122 3584 
L 589 3584 
Q 557 3584 528 3609 
Q 499 3635 499 3674 
L 499 3878 
Q 499 3917 528 3942 
Q 557 3968 589 3968 
L 4122 3968 
Q 4218 3968 4218 3885 
L 4218 3667 
z
M 3283 4538 
Q 3283 4454 3187 4454 
L 1434 4454 
Q 1402 4454 1373 4473 
Q 1344 4493 1344 4531 
L 1344 4755 
Q 1344 4794 1369 4819 
Q 1395 4845 1427 4845 
L 3187 4845 
Q 3283 4845 3283 4755 
L 3283 4538 
z
" transform="scale(0.015625)"/>
     <path id="NanumGothicCoding-4b4" d="M 4698 4326 
Q 4698 4422 4666 4457 
Q 4634 4493 4544 4493 
L 1331 4493 
Q 1248 4493 1248 4576 
L 1248 4794 
Q 1248 4877 1331 4877 
L 4640 4877 
Q 4941 4877 5037 4771 
Q 5133 4666 5133 4390 
Q 5133 4198 5117 3977 
Q 5101 3757 5075 3536 
Q 5050 3315 5014 3097 
Q 4979 2880 4934 2701 
L 5920 2701 
Q 5952 2701 5984 2678 
Q 6016 2656 6016 2618 
L 6016 2400 
Q 6016 2368 5984 2342 
Q 5952 2317 5920 2317 
L 3411 2317 
L 3411 1082 
L 4640 1082 
Q 4941 1082 5033 970 
Q 5126 858 5126 595 
L 5126 -870 
Q 5126 -960 5037 -960 
L 4774 -960 
Q 4685 -960 4685 -870 
L 4685 563 
Q 4685 653 4656 675 
Q 4627 698 4538 698 
L 1261 698 
Q 1229 698 1197 720 
Q 1165 742 1165 774 
L 1165 1005 
Q 1165 1043 1197 1062 
Q 1229 1082 1261 1082 
L 2970 1082 
L 2970 2317 
L 480 2317 
Q 442 2317 413 2342 
Q 384 2368 384 2400 
L 384 2618 
Q 384 2656 413 2678 
Q 442 2701 480 2701 
L 4531 2701 
Q 4570 2886 4602 3094 
Q 4634 3302 4656 3516 
Q 4678 3731 4688 3936 
Q 4698 4141 4698 4326 
z
" transform="scale(0.015625)"/>
     <path id="NanumGothicCoding-1" transform="scale(0.015625)"/>
     <path id="NanumGothicCoding-5d7" d="M 5229 2893 
Q 5229 2854 5197 2835 
Q 5165 2816 5133 2816 
L 1811 2816 
Q 1510 2816 1417 2941 
Q 1325 3066 1325 3328 
L 1325 4806 
Q 1325 4896 1414 4896 
L 1677 4896 
Q 1766 4896 1766 4806 
L 1766 3341 
Q 1766 3251 1795 3225 
Q 1824 3200 1914 3200 
L 5133 3200 
Q 5165 3200 5197 3177 
Q 5229 3155 5229 3123 
L 5229 2893 
z
M 5325 -704 
Q 5325 -742 5293 -761 
Q 5261 -781 5229 -781 
L 1754 -781 
Q 1453 -781 1360 -656 
Q 1267 -531 1267 -269 
L 1267 979 
Q 1267 1069 1357 1069 
L 1619 1069 
Q 1709 1069 1709 979 
L 1709 -262 
Q 1709 -352 1737 -374 
Q 1766 -397 1856 -397 
L 5229 -397 
Q 5261 -397 5293 -419 
Q 5325 -442 5325 -474 
L 5325 -704 
z
M 5920 1958 
Q 5952 1958 5984 1936 
Q 6016 1914 6016 1875 
L 6016 1658 
Q 6016 1626 5984 1600 
Q 5952 1574 5920 1574 
L 480 1574 
Q 442 1574 413 1600 
Q 384 1626 384 1658 
L 384 1875 
Q 384 1914 413 1936 
Q 442 1958 480 1958 
L 5920 1958 
z
" transform="scale(0.015625)"/>
     <path id="NanumGothicCoding-a62" d="M 5197 250 
Q 5197 -26 5049 -243 
Q 4902 -461 4649 -611 
Q 4397 -762 4061 -842 
Q 3725 -922 3341 -922 
Q 2925 -922 2585 -842 
Q 2246 -762 2003 -611 
Q 1760 -461 1625 -243 
Q 1491 -26 1491 250 
Q 1491 518 1625 732 
Q 1760 947 2003 1097 
Q 2246 1248 2585 1328 
Q 2925 1408 3341 1408 
Q 3725 1408 4061 1328 
Q 4397 1248 4649 1101 
Q 4902 954 5049 739 
Q 5197 525 5197 250 
z
M 4742 230 
Q 4742 422 4627 569 
Q 4512 717 4317 816 
Q 4122 915 3866 969 
Q 3610 1024 3334 1024 
Q 3027 1024 2771 969 
Q 2515 915 2332 816 
Q 2150 717 2048 569 
Q 1946 422 1946 230 
Q 1946 45 2048 -99 
Q 2150 -243 2332 -339 
Q 2515 -435 2771 -486 
Q 3027 -538 3334 -538 
Q 3610 -538 3866 -486 
Q 4122 -435 4317 -339 
Q 4512 -243 4627 -99 
Q 4742 45 4742 230 
z
M 3456 4198 
Q 3366 3949 3212 3699 
Q 3059 3450 2848 3206 
Q 3072 2976 3401 2765 
Q 3731 2554 4109 2387 
Q 4147 2368 4144 2336 
Q 4141 2304 4128 2272 
L 4000 2048 
Q 3981 2016 3955 2003 
Q 3930 1990 3872 2022 
Q 3731 2086 3568 2176 
Q 3405 2266 3232 2381 
Q 3059 2496 2889 2630 
Q 2720 2765 2573 2912 
Q 2202 2547 1757 2243 
Q 1312 1939 851 1734 
Q 819 1722 787 1715 
Q 755 1709 736 1741 
L 608 1965 
Q 589 1997 605 2032 
Q 621 2067 653 2080 
Q 1478 2477 2060 2989 
Q 2643 3501 2970 4173 
Q 3014 4262 2982 4300 
Q 2950 4339 2861 4339 
L 986 4339 
Q 909 4339 909 4422 
L 909 4646 
Q 909 4723 998 4723 
L 3034 4723 
Q 3366 4723 3462 4604 
Q 3558 4486 3456 4198 
z
M 5120 1568 
Q 5120 1478 5030 1478 
L 4768 1478 
Q 4678 1478 4678 1568 
L 4678 4915 
Q 4678 5005 4768 5005 
L 5030 5005 
Q 5120 5005 5120 4915 
L 5120 3386 
L 6003 3386 
Q 6042 3386 6070 3363 
Q 6099 3341 6099 3302 
L 6099 3085 
Q 6099 3053 6070 3027 
Q 6042 3002 6003 3002 
L 5120 3002 
L 5120 1568 
z
" transform="scale(0.015625)"/>
     <path id="NanumGothicCoding-a78" d="M 3501 4166 
Q 3411 3904 3248 3648 
Q 3085 3392 2861 3142 
Q 3078 2912 3398 2704 
Q 3718 2496 4096 2336 
Q 4147 2317 4153 2281 
Q 4160 2246 4141 2214 
L 4013 1984 
Q 3994 1952 3955 1949 
Q 3917 1946 3885 1958 
Q 3744 2022 3581 2112 
Q 3418 2202 3245 2317 
Q 3072 2432 2902 2566 
Q 2733 2701 2586 2848 
Q 2221 2490 1782 2195 
Q 1344 1901 896 1702 
Q 864 1690 832 1683 
Q 800 1677 781 1709 
L 653 1933 
Q 634 1965 650 2000 
Q 666 2035 698 2048 
Q 1523 2445 2105 2957 
Q 2688 3469 3014 4141 
Q 3059 4230 3027 4268 
Q 2995 4307 2906 4307 
L 1030 4307 
Q 954 4307 954 4390 
L 954 4614 
Q 954 4691 1030 4691 
L 3078 4691 
Q 3411 4691 3507 4572 
Q 3603 4454 3501 4166 
z
M 1613 1133 
Q 1613 1171 1645 1190 
Q 1677 1210 1709 1210 
L 4858 1210 
Q 5158 1210 5251 1098 
Q 5344 986 5344 723 
L 5344 -832 
Q 5344 -922 5254 -922 
L 4992 -922 
Q 4902 -922 4902 -832 
L 4902 691 
Q 4902 781 4873 803 
Q 4845 826 4755 826 
L 1709 826 
Q 1677 826 1645 848 
Q 1613 870 1613 902 
L 1613 1133 
z
M 4902 3462 
L 4902 4915 
Q 4902 5005 4992 5005 
L 5254 5005 
Q 5344 5005 5344 4915 
L 5344 1651 
Q 5344 1562 5254 1562 
L 4992 1562 
Q 4902 1562 4902 1651 
L 4902 3078 
L 3693 3078 
Q 3610 3078 3610 3155 
L 3610 3386 
Q 3610 3462 3693 3462 
L 4902 3462 
z
" transform="scale(0.015625)"/>
     <path id="NanumGothicCoding-a35" d="M 3187 1741 
Q 2848 1741 2486 1824 
Q 2125 1907 1824 2083 
Q 1523 2259 1331 2531 
Q 1139 2803 1139 3187 
Q 1139 3571 1331 3843 
Q 1523 4115 1824 4291 
Q 2125 4467 2486 4547 
Q 2848 4627 3187 4627 
Q 3533 4627 3894 4547 
Q 4256 4467 4553 4291 
Q 4851 4115 5043 3843 
Q 5235 3571 5235 3187 
Q 5235 2803 5043 2531 
Q 4851 2259 4553 2083 
Q 4256 1907 3894 1824 
Q 3533 1741 3187 1741 
z
M 3187 4218 
Q 2957 4218 2681 4170 
Q 2406 4122 2169 4003 
Q 1933 3885 1773 3683 
Q 1613 3482 1613 3181 
Q 1613 2880 1773 2681 
Q 1933 2483 2169 2364 
Q 2406 2246 2681 2198 
Q 2957 2150 3187 2150 
Q 3411 2150 3683 2198 
Q 3955 2246 4195 2364 
Q 4435 2483 4598 2681 
Q 4762 2880 4762 3181 
Q 4762 3482 4598 3683 
Q 4435 3885 4195 4003 
Q 3955 4122 3683 4170 
Q 3411 4218 3187 4218 
z
M 5920 499 
Q 5952 499 5984 476 
Q 6016 454 6016 416 
L 6016 198 
Q 6016 166 5984 140 
Q 5952 115 5920 115 
L 480 115 
Q 442 115 413 140 
Q 384 166 384 198 
L 384 416 
Q 384 454 413 476 
Q 442 499 480 499 
L 5920 499 
z
" transform="scale(0.015625)"/>
     <path id="NanumGothicCoding-6fd" d="M 2963 499 
L 2963 1613 
L 1683 1613 
Q 1382 1613 1289 1725 
Q 1197 1837 1197 2106 
L 1197 2906 
Q 1197 3181 1309 3270 
Q 1421 3360 1709 3360 
L 4595 3360 
Q 4685 3360 4707 3385 
Q 4730 3411 4730 3507 
L 4730 4173 
Q 4730 4269 4707 4294 
Q 4685 4320 4595 4320 
L 1286 4320 
Q 1254 4320 1225 4339 
Q 1197 4358 1197 4390 
L 1197 4634 
Q 1197 4666 1225 4685 
Q 1254 4704 1286 4704 
L 4666 4704 
Q 4819 4704 4915 4681 
Q 5011 4659 5068 4608 
Q 5126 4557 5148 4464 
Q 5171 4371 5171 4237 
L 5171 3437 
Q 5171 3162 5059 3072 
Q 4947 2982 4659 2982 
L 1773 2982 
Q 1683 2982 1660 2956 
Q 1638 2931 1638 2835 
L 1638 2144 
Q 1638 2054 1664 2025 
Q 1690 1997 1779 1997 
L 5216 1997 
Q 5248 1997 5277 1977 
Q 5306 1958 5306 1926 
L 5306 1690 
Q 5306 1658 5277 1635 
Q 5248 1613 5222 1613 
L 3405 1613 
L 3405 499 
L 5920 499 
Q 5952 499 5984 476 
Q 6016 454 6016 416 
L 6016 198 
Q 6016 166 5984 140 
Q 5952 115 5920 115 
L 480 115 
Q 442 115 413 140 
Q 384 166 384 198 
L 384 416 
Q 384 454 413 476 
Q 442 499 480 499 
L 2963 499 
z
" transform="scale(0.015625)"/>
     <path id="NanumGothicCoding-a0b" d="M 3187 2387 
Q 2861 2387 2499 2457 
Q 2138 2528 1834 2678 
Q 1530 2829 1334 3072 
Q 1139 3315 1139 3661 
Q 1139 4006 1334 4249 
Q 1530 4493 1834 4643 
Q 2138 4794 2499 4861 
Q 2861 4928 3187 4928 
Q 3520 4928 3885 4861 
Q 4250 4794 4547 4643 
Q 4845 4493 5040 4249 
Q 5235 4006 5235 3661 
Q 5235 3315 5040 3072 
Q 4845 2829 4547 2678 
Q 4250 2528 3885 2457 
Q 3520 2387 3187 2387 
z
M 3187 4525 
Q 2963 4525 2691 4489 
Q 2419 4454 2179 4358 
Q 1939 4262 1776 4092 
Q 1613 3923 1613 3654 
Q 1613 3386 1776 3219 
Q 1939 3053 2179 2957 
Q 2419 2861 2691 2825 
Q 2963 2790 3187 2790 
Q 3405 2790 3677 2825 
Q 3949 2861 4189 2957 
Q 4429 3053 4595 3219 
Q 4762 3386 4762 3654 
Q 4762 3923 4595 4092 
Q 4429 4262 4189 4358 
Q 3949 4454 3677 4489 
Q 3405 4525 3187 4525 
z
M 3046 -858 
Q 3014 -858 2988 -829 
Q 2963 -800 2963 -762 
L 2963 1331 
L 480 1331 
Q 442 1331 413 1356 
Q 384 1382 384 1414 
L 384 1632 
Q 384 1670 413 1692 
Q 442 1715 480 1715 
L 5920 1715 
Q 5952 1715 5984 1692 
Q 6016 1670 6016 1632 
L 6016 1414 
Q 6016 1382 5984 1356 
Q 5952 1331 5920 1331 
L 3405 1331 
L 3405 -762 
Q 3405 -800 3382 -829 
Q 3360 -858 3322 -858 
L 3046 -858 
z
" transform="scale(0.015625)"/>
     <path id="NanumGothicCoding-89a" d="M 1491 250 
Q 1491 518 1625 732 
Q 1760 947 2003 1097 
Q 2246 1248 2585 1328 
Q 2925 1408 3341 1408 
Q 3725 1408 4061 1328 
Q 4397 1248 4649 1101 
Q 4902 954 5049 739 
Q 5197 525 5197 250 
Q 5197 -26 5049 -243 
Q 4902 -461 4649 -611 
Q 4397 -762 4061 -842 
Q 3725 -922 3341 -922 
Q 2925 -922 2585 -842 
Q 2246 -762 2003 -611 
Q 1760 -461 1625 -243 
Q 1491 -26 1491 250 
z
M 1946 230 
Q 1946 45 2048 -99 
Q 2150 -243 2332 -339 
Q 2515 -435 2771 -486 
Q 3027 -538 3334 -538 
Q 3610 -538 3866 -486 
Q 4122 -435 4317 -339 
Q 4512 -243 4627 -99 
Q 4742 45 4742 230 
Q 4742 422 4627 569 
Q 4512 717 4317 816 
Q 4122 915 3866 969 
Q 3610 1024 3334 1024 
Q 3027 1024 2771 969 
Q 2515 915 2332 816 
Q 2150 717 2048 569 
Q 1946 422 1946 230 
z
M 2534 4774 
Q 2534 4307 2438 3904 
Q 2515 3635 2652 3392 
Q 2790 3149 2976 2937 
Q 3162 2726 3382 2556 
Q 3603 2387 3846 2272 
Q 3885 2253 3881 2217 
Q 3878 2182 3866 2157 
L 3731 1946 
Q 3712 1914 3686 1901 
Q 3661 1888 3603 1920 
Q 3456 1997 3267 2128 
Q 3078 2259 2886 2438 
Q 2694 2618 2521 2832 
Q 2349 3046 2234 3277 
Q 2022 2790 1664 2393 
Q 1306 1997 826 1683 
Q 794 1664 755 1657 
Q 717 1651 691 1683 
L 531 1894 
Q 512 1920 525 1958 
Q 538 1997 570 2016 
Q 1331 2483 1715 3193 
Q 2099 3904 2086 4781 
Q 2086 4883 2163 4883 
L 2464 4864 
Q 2534 4864 2534 4774 
z
M 5120 1530 
Q 5120 1440 5030 1440 
L 4768 1440 
Q 4678 1440 4678 1530 
L 4678 4915 
Q 4678 5005 4768 5005 
L 5030 5005 
Q 5120 5005 5120 4915 
L 5120 3373 
L 6003 3373 
Q 6042 3373 6070 3350 
Q 6099 3328 6099 3290 
L 6099 3072 
Q 6099 3040 6070 3014 
Q 6042 2989 6003 2989 
L 5120 2989 
L 5120 1530 
z
" transform="scale(0.015625)"/>
     <path id="NanumGothicCoding-cf1" d="M 5197 64 
Q 5197 -160 5049 -339 
Q 4902 -518 4649 -646 
Q 4397 -774 4061 -844 
Q 3725 -915 3341 -915 
Q 2925 -915 2585 -844 
Q 2246 -774 2003 -646 
Q 1760 -518 1625 -339 
Q 1491 -160 1491 64 
Q 1491 282 1625 458 
Q 1760 634 2003 762 
Q 2246 890 2585 960 
Q 2925 1030 3341 1030 
Q 3725 1030 4061 963 
Q 4397 896 4649 768 
Q 4902 640 5049 461 
Q 5197 282 5197 64 
z
M 3725 2413 
Q 3725 2182 3619 1993 
Q 3514 1805 3331 1664 
Q 3149 1523 2896 1446 
Q 2643 1370 2349 1370 
Q 2048 1370 1798 1446 
Q 1549 1523 1363 1664 
Q 1178 1805 1075 1997 
Q 973 2189 973 2413 
Q 973 2643 1075 2835 
Q 1178 3027 1363 3161 
Q 1549 3296 1798 3373 
Q 2048 3450 2349 3450 
Q 2643 3450 2896 3373 
Q 3149 3296 3331 3158 
Q 3514 3021 3619 2829 
Q 3725 2637 3725 2413 
z
M 4742 45 
Q 4742 192 4627 307 
Q 4512 422 4317 502 
Q 4122 582 3866 624 
Q 3610 666 3334 666 
Q 3027 666 2771 624 
Q 2515 582 2332 502 
Q 2150 422 2048 307 
Q 1946 192 1946 45 
Q 1946 -96 2048 -208 
Q 2150 -320 2332 -397 
Q 2515 -474 2771 -512 
Q 3027 -550 3334 -550 
Q 3610 -550 3866 -512 
Q 4122 -474 4317 -397 
Q 4512 -320 4627 -208 
Q 4742 -96 4742 45 
z
M 5120 1254 
Q 5120 1165 5030 1165 
L 4768 1165 
Q 4678 1165 4678 1254 
L 4678 4915 
Q 4678 5005 4768 5005 
L 5030 5005 
Q 5120 5005 5120 4915 
L 5120 3776 
L 6003 3776 
Q 6042 3776 6070 3753 
Q 6099 3731 6099 3693 
L 6099 3482 
Q 6099 3450 6070 3424 
Q 6042 3398 6003 3398 
L 5120 3398 
L 5120 2630 
L 6003 2630 
Q 6042 2630 6070 2608 
Q 6099 2586 6099 2547 
L 6099 2336 
Q 6099 2304 6070 2278 
Q 6042 2253 6003 2253 
L 5120 2253 
L 5120 1254 
z
M 3296 2413 
Q 3296 2566 3225 2691 
Q 3155 2816 3027 2902 
Q 2899 2989 2726 3037 
Q 2554 3085 2349 3085 
Q 2144 3085 1971 3037 
Q 1798 2989 1670 2902 
Q 1542 2816 1468 2691 
Q 1395 2566 1395 2413 
Q 1395 2259 1468 2134 
Q 1542 2010 1670 1920 
Q 1798 1830 1971 1782 
Q 2144 1734 2349 1734 
Q 2554 1734 2726 1782 
Q 2899 1830 3027 1920 
Q 3155 2010 3225 2134 
Q 3296 2259 3296 2413 
z
M 4218 3827 
Q 4218 3744 4122 3744 
L 589 3744 
Q 557 3744 528 3769 
Q 499 3795 499 3834 
L 499 4038 
Q 499 4077 528 4102 
Q 557 4128 589 4128 
L 4122 4128 
Q 4218 4128 4218 4045 
L 4218 3827 
z
M 3283 4608 
Q 3283 4518 3187 4518 
L 1434 4518 
Q 1402 4518 1373 4540 
Q 1344 4563 1344 4602 
L 1344 4819 
Q 1344 4858 1369 4883 
Q 1395 4909 1427 4909 
L 3187 4909 
Q 3283 4909 3283 4819 
L 3283 4608 
z
" transform="scale(0.015625)"/>
     <path id="NanumGothicCoding-cee" d="M 3245 2426 
Q 3245 2234 3165 2051 
Q 3085 1869 2928 1728 
Q 2771 1587 2544 1500 
Q 2317 1414 2029 1414 
Q 1734 1414 1507 1500 
Q 1280 1587 1126 1728 
Q 973 1869 893 2051 
Q 813 2234 813 2426 
Q 813 2624 893 2803 
Q 973 2982 1126 3123 
Q 1280 3264 1507 3347 
Q 1734 3430 2029 3430 
Q 2317 3430 2544 3344 
Q 2771 3258 2928 3120 
Q 3085 2982 3165 2800 
Q 3245 2618 3245 2426 
z
M 4320 3328 
L 5133 3328 
L 5133 4915 
Q 5133 5005 5222 5005 
L 5466 5005 
Q 5555 5005 5555 4915 
L 5555 1498 
Q 5555 1408 5466 1408 
L 5222 1408 
Q 5133 1408 5133 1498 
L 5133 2944 
L 4320 2944 
L 4320 1613 
Q 4320 1523 4230 1523 
L 3987 1523 
Q 3898 1523 3898 1613 
L 3898 4806 
Q 3898 4896 3987 4896 
L 4230 4896 
Q 4320 4896 4320 4806 
L 4320 3328 
z
M 6016 -832 
Q 5984 -883 5955 -883 
Q 5926 -883 5875 -858 
Q 5453 -634 5177 -371 
Q 4902 -109 4749 198 
Q 4602 -70 4358 -323 
Q 4115 -576 3770 -845 
Q 3718 -877 3673 -873 
Q 3629 -870 3578 -838 
Q 3213 -621 2976 -384 
Q 2739 -147 2605 128 
Q 2291 -416 1440 -883 
Q 1350 -941 1306 -883 
L 1158 -666 
Q 1146 -640 1155 -605 
Q 1165 -570 1203 -550 
Q 1536 -378 1757 -218 
Q 1978 -58 2115 128 
Q 2253 314 2313 531 
Q 2374 749 2387 1037 
Q 2387 1120 2451 1120 
L 2758 1114 
Q 2829 1114 2829 1037 
Q 2829 979 2825 921 
Q 2822 864 2816 813 
Q 2829 448 3040 134 
Q 3251 -179 3635 -416 
Q 3667 -435 3686 -438 
Q 3706 -442 3738 -416 
Q 4141 -90 4336 262 
Q 4531 614 4531 1037 
Q 4531 1069 4547 1101 
Q 4563 1133 4602 1133 
L 4902 1126 
Q 4973 1126 4973 1050 
Q 4973 902 4954 781 
Q 5024 358 5299 28 
Q 5574 -301 6099 -525 
Q 6182 -557 6131 -640 
L 6016 -832 
z
M 2835 2426 
Q 2835 2688 2633 2877 
Q 2432 3066 2029 3066 
Q 1626 3066 1424 2880 
Q 1222 2694 1222 2426 
Q 1222 2170 1424 1974 
Q 1626 1779 2029 1779 
Q 2432 1779 2633 1974 
Q 2835 2170 2835 2426 
z
M 3443 3802 
Q 3443 3718 3347 3718 
L 666 3718 
Q 634 3718 605 3744 
Q 576 3770 576 3808 
L 576 4013 
Q 576 4051 605 4076 
Q 634 4102 666 4102 
L 3347 4102 
Q 3443 4102 3443 4019 
L 3443 3802 
z
M 2803 4570 
Q 2803 4480 2707 4480 
L 1344 4480 
Q 1312 4480 1283 4502 
Q 1254 4525 1254 4563 
L 1254 4781 
Q 1254 4819 1280 4844 
Q 1306 4870 1338 4870 
L 2707 4870 
Q 2803 4870 2803 4781 
L 2803 4570 
z
" transform="scale(0.015625)"/>
     <path id="NanumGothicCoding-5ee" d="M 4211 1171 
Q 4224 1082 4128 1062 
Q 3891 1005 3529 953 
Q 3168 902 2768 864 
Q 2368 826 1977 806 
Q 1587 787 1299 794 
Q 1011 800 905 928 
Q 800 1056 800 1325 
L 800 4077 
Q 800 4346 902 4435 
Q 1005 4525 1286 4525 
L 3488 4525 
Q 3571 4525 3571 4448 
L 3571 4218 
Q 3571 4141 3488 4141 
L 1370 4141 
Q 1280 4141 1261 4118 
Q 1242 4096 1242 4000 
L 1242 1357 
Q 1242 1261 1274 1229 
Q 1306 1197 1395 1190 
Q 1702 1178 2044 1194 
Q 2387 1210 2736 1245 
Q 3085 1280 3421 1328 
Q 3757 1376 4058 1434 
Q 4160 1453 4179 1363 
L 4211 1171 
z
M 5120 -806 
Q 5120 -896 5030 -896 
L 4768 -896 
Q 4678 -896 4678 -806 
L 4678 4915 
Q 4678 5005 4768 5005 
L 5030 5005 
Q 5120 5005 5120 4915 
L 5120 2586 
L 6003 2586 
Q 6042 2586 6070 2563 
Q 6099 2541 6099 2502 
L 6099 2285 
Q 6099 2253 6070 2227 
Q 6042 2202 6003 2202 
L 5120 2202 
L 5120 -806 
z
" transform="scale(0.015625)"/>
    </defs>
    <use xlink:href="#NanumGothicCoding-ce0"/>
    <use xlink:href="#NanumGothicCoding-4b4" transform="translate(100 0)"/>
    <use xlink:href="#NanumGothicCoding-1" transform="translate(200 0)"/>
    <use xlink:href="#NanumGothicCoding-8d7" transform="translate(250 0)"/>
    <use xlink:href="#NanumGothicCoding-83a" transform="translate(350 0)"/>
    <use xlink:href="#NanumGothicCoding-a57" transform="translate(450 0)"/>
    <use xlink:href="#NanumGothicCoding-79b" transform="translate(550 0)"/>
    <use xlink:href="#NanumGothicCoding-43e" transform="translate(650 0)"/>
    <use xlink:href="#NanumGothicCoding-ad1" transform="translate(750 0)"/>
    <use xlink:href="#NanumGothicCoding-8fb" transform="translate(850 0)"/>
    <use xlink:href="#NanumGothicCoding-5d7" transform="translate(950 0)"/>
    <use xlink:href="#NanumGothicCoding-1" transform="translate(1050 0)"/>
    <use xlink:href="#NanumGothicCoding-a62" transform="translate(1100 0)"/>
    <use xlink:href="#NanumGothicCoding-4dd" transform="translate(1200 0)"/>
    <use xlink:href="#NanumGothicCoding-a78" transform="translate(1300 0)"/>
    <use xlink:href="#NanumGothicCoding-a35" transform="translate(1400 0)"/>
    <use xlink:href="#NanumGothicCoding-6fd" transform="translate(1500 0)"/>
    <use xlink:href="#NanumGothicCoding-1" transform="translate(1600 0)"/>
    <use xlink:href="#NanumGothicCoding-a0b" transform="translate(1650 0)"/>
    <use xlink:href="#NanumGothicCoding-89a" transform="translate(1750 0)"/>
    <use xlink:href="#NanumGothicCoding-cf1" transform="translate(1850 0)"/>
    <use xlink:href="#NanumGothicCoding-cee" transform="translate(1950 0)"/>
    <use xlink:href="#NanumGothicCoding-5ee" transform="translate(2050 0)"/>
   </g>
  </g>
  <g id="text_16">
   <!-- FRED 월별 CPI 지수, 2000년 1월부터 2023년 11월까지의 월별 시계열이다. -->
   <g style="fill: #6f768a" transform="translate(49.2 37.309359) scale(0.09 -0.09)">
    <defs>
     <path id="NanumGothicCoding-27" d="M 941 -186 
Q 941 -275 851 -275 
L 563 -275 
Q 474 -275 474 -186 
L 474 3904 
Q 474 4045 496 4067 
Q 518 4090 659 4090 
L 2630 4090 
Q 2720 4090 2720 4000 
L 2720 3782 
Q 2720 3693 2630 3693 
L 941 3693 
L 941 2170 
L 2541 2170 
Q 2630 2170 2630 2080 
L 2630 1850 
Q 2630 1760 2541 1760 
L 941 1760 
L 941 -186 
z
" transform="scale(0.015625)"/>
     <path id="NanumGothicCoding-33" d="M 2349 2842 
Q 2349 3091 2288 3232 
Q 2227 3373 2089 3481 
Q 1952 3590 1760 3641 
Q 1568 3693 1184 3693 
L 826 3693 
L 826 1965 
L 1197 1965 
Q 1459 1965 1660 2016 
Q 1862 2067 2022 2176 
Q 2182 2285 2265 2457 
Q 2349 2630 2349 2842 
z
M 3110 -186 
Q 3123 -218 3110 -246 
Q 3098 -275 3059 -275 
L 2726 -275 
Q 2630 -275 2586 -186 
Q 2272 384 2128 643 
Q 1984 902 1818 1210 
Q 1715 1395 1606 1606 
Q 1453 1581 1305 1571 
Q 1158 1562 1011 1562 
L 826 1562 
L 826 -186 
Q 826 -275 736 -275 
L 448 -275 
Q 358 -275 358 -186 
L 358 3898 
Q 358 3968 361 4006 
Q 365 4045 384 4064 
Q 403 4083 441 4086 
Q 480 4090 550 4090 
L 1408 4090 
Q 1773 4090 2038 3990 
Q 2304 3891 2480 3721 
Q 2656 3552 2742 3341 
Q 2829 3130 2829 2842 
Q 2829 2650 2787 2486 
Q 2746 2323 2627 2163 
Q 2509 2003 2358 1897 
Q 2208 1792 2003 1734 
L 3110 -186 
z
" transform="scale(0.015625)"/>
     <path id="NanumGothicCoding-26" d="M 666 -282 
Q 531 -282 508 -259 
Q 486 -237 486 -102 
L 486 3923 
Q 486 4045 508 4067 
Q 531 4090 653 4090 
L 2643 4090 
Q 2733 4090 2733 4000 
L 2733 3776 
Q 2733 3686 2643 3686 
L 954 3686 
L 954 2189 
L 2547 2189 
Q 2637 2189 2637 2099 
L 2637 1869 
Q 2637 1779 2547 1779 
L 954 1779 
L 954 128 
L 2720 128 
Q 2810 128 2810 38 
L 2810 -192 
Q 2810 -282 2720 -282 
L 666 -282 
z
" transform="scale(0.015625)"/>
     <path id="NanumGothicCoding-25" d="M 2496 1952 
Q 2496 2758 2112 3264 
Q 1766 3693 1267 3693 
L 826 3693 
L 826 128 
L 1210 128 
Q 2483 237 2496 1952 
z
M 2950 1926 
Q 2950 1344 2822 953 
Q 2694 563 2419 256 
Q 2157 -13 1849 -144 
Q 1542 -275 1197 -275 
L 512 -275 
Q 397 -275 377 -252 
Q 358 -230 358 -96 
L 358 3910 
Q 358 4045 377 4067 
Q 397 4090 512 4090 
L 1293 4090 
Q 2099 4090 2528 3430 
Q 2950 2822 2950 1926 
z
" transform="scale(0.015625)"/>
     <path id="NanumGothicCoding-7f9" d="M 1382 2106 
Q 1229 2106 1136 2125 
Q 1043 2144 992 2198 
Q 941 2253 921 2339 
Q 902 2426 902 2560 
L 902 4838 
Q 902 4870 928 4892 
Q 954 4915 986 4915 
L 1261 4915 
Q 1293 4915 1315 4889 
Q 1338 4864 1338 4838 
L 1338 3821 
L 3206 3821 
L 3206 4832 
Q 3206 4864 3228 4889 
Q 3251 4915 3283 4915 
L 3558 4915 
Q 3590 4915 3616 4892 
Q 3642 4870 3642 4838 
L 3642 4102 
L 4902 4102 
L 4902 4915 
Q 4902 5005 4992 5005 
L 5254 5005 
Q 5344 5005 5344 4915 
L 5344 1997 
Q 5344 1907 5254 1907 
L 4992 1907 
Q 4902 1907 4902 1997 
L 4902 2688 
L 3642 2688 
L 3642 2515 
Q 3642 2272 3539 2189 
Q 3437 2106 3155 2106 
L 1382 2106 
z
M 5478 -838 
Q 5478 -870 5449 -892 
Q 5421 -915 5395 -915 
L 2170 -915 
Q 1869 -915 1776 -803 
Q 1683 -691 1683 -422 
L 1683 58 
Q 1683 326 1795 419 
Q 1907 512 2195 512 
L 4762 512 
Q 4851 512 4876 537 
Q 4902 563 4902 659 
L 4902 1024 
Q 4902 1120 4880 1145 
Q 4858 1171 4768 1171 
L 1760 1171 
Q 1728 1171 1699 1190 
Q 1670 1210 1670 1242 
L 1670 1472 
Q 1670 1504 1699 1523 
Q 1728 1542 1760 1542 
L 4838 1542 
Q 4992 1542 5088 1520 
Q 5184 1498 5241 1446 
Q 5299 1395 5321 1302 
Q 5344 1210 5344 1075 
L 5344 595 
Q 5344 326 5232 233 
Q 5120 141 4832 141 
L 2266 141 
Q 2176 141 2153 115 
Q 2131 90 2131 -6 
L 2131 -397 
Q 2131 -486 2156 -515 
Q 2182 -544 2272 -544 
L 5389 -544 
Q 5421 -544 5449 -563 
Q 5478 -582 5478 -614 
L 5478 -838 
z
M 1338 3443 
L 1338 2637 
Q 1338 2541 1370 2512 
Q 1402 2483 1491 2483 
L 3053 2483 
Q 3142 2483 3174 2512 
Q 3206 2541 3206 2637 
L 3206 3443 
L 1338 3443 
z
M 3642 3066 
L 4902 3066 
L 4902 3725 
L 3642 3725 
L 3642 3066 
z
" transform="scale(0.015625)"/>
     <path id="NanumGothicCoding-24" d="M 2682 205 
Q 2714 218 2736 208 
Q 2758 198 2758 160 
L 2771 -90 
Q 2778 -173 2701 -205 
Q 2541 -275 2374 -307 
Q 2208 -339 2035 -339 
Q 1261 -339 774 339 
Q 557 672 451 1085 
Q 346 1498 346 1920 
Q 346 2304 451 2717 
Q 557 3130 774 3462 
Q 1261 4141 2035 4141 
Q 2208 4141 2374 4109 
Q 2541 4077 2701 4006 
Q 2778 3974 2771 3891 
L 2758 3642 
Q 2758 3603 2736 3593 
Q 2714 3584 2682 3597 
Q 2534 3661 2384 3699 
Q 2234 3738 2035 3738 
Q 1485 3738 1120 3168 
Q 954 2893 874 2550 
Q 794 2208 794 1920 
Q 794 1594 874 1251 
Q 954 909 1120 634 
Q 1485 64 2035 64 
Q 2253 64 2393 102 
Q 2534 141 2682 205 
z
" transform="scale(0.015625)"/>
     <path id="NanumGothicCoding-31" d="M 2547 2835 
Q 2547 3194 2307 3440 
Q 2067 3686 1613 3686 
L 845 3686 
L 845 1965 
L 1171 1965 
Q 1542 1965 1756 1997 
Q 1971 2029 2147 2125 
Q 2323 2221 2425 2368 
Q 2528 2515 2547 2835 
z
M 845 -186 
Q 845 -275 755 -275 
L 474 -275 
Q 384 -275 384 -186 
L 384 3898 
Q 384 4038 413 4064 
Q 442 4090 576 4090 
L 1517 4090 
Q 2221 4090 2618 3750 
Q 3027 3398 3027 2835 
Q 3027 2502 2908 2284 
Q 2790 2067 2576 1897 
Q 2362 1728 2074 1645 
Q 1786 1562 1466 1562 
L 845 1562 
L 845 -186 
z
" transform="scale(0.015625)"/>
     <path id="NanumGothicCoding-2a" d="M 634 -186 
L 634 32 
Q 634 122 723 122 
L 1357 122 
L 1357 3693 
L 787 3693 
Q 698 3693 698 3782 
L 698 4000 
Q 698 4090 787 4090 
L 2413 4090 
Q 2502 4090 2502 4000 
L 2502 3782 
Q 2502 3693 2413 3693 
L 1843 3693 
L 1843 122 
L 2477 122 
Q 2566 122 2566 32 
L 2566 -186 
Q 2566 -275 2477 -275 
L 723 -275 
Q 634 -275 634 -186 
z
" transform="scale(0.015625)"/>
     <path id="NanumGothicCoding-d" d="M 2157 179 
Q 2227 179 2240 147 
Q 2253 115 2221 77 
L 1318 -1184 
Q 1280 -1242 1254 -1258 
Q 1229 -1274 1178 -1274 
L 864 -1274 
Q 774 -1274 826 -1178 
L 1536 64 
Q 1562 102 1590 140 
Q 1619 179 1696 179 
L 2157 179 
z
" transform="scale(0.015625)"/>
     <path id="NanumGothicCoding-599" d="M 4902 4205 
L 4902 4915 
Q 4902 5005 4992 5005 
L 5254 5005 
Q 5344 5005 5344 4915 
L 5344 787 
Q 5344 698 5254 698 
L 4992 698 
Q 4902 698 4902 787 
L 4902 2726 
L 3302 2726 
Q 3219 2726 3219 2803 
L 3219 3027 
Q 3219 3104 3302 3104 
L 4902 3104 
L 4902 3827 
L 3302 3827 
Q 3219 3827 3219 3904 
L 3219 4128 
Q 3219 4205 3302 4205 
L 4902 4205 
z
M 1408 2227 
Q 1408 2131 1440 2099 
Q 1472 2067 1562 2061 
Q 1837 2048 2134 2051 
Q 2432 2054 2729 2067 
Q 3027 2080 3312 2109 
Q 3597 2138 3853 2182 
Q 3910 2195 3939 2179 
Q 3968 2163 3981 2106 
L 4000 1933 
Q 4006 1856 3974 1833 
Q 3942 1811 3917 1811 
Q 3661 1766 3350 1731 
Q 3040 1696 2713 1677 
Q 2387 1658 2067 1654 
Q 1747 1651 1472 1664 
Q 1184 1677 1075 1801 
Q 966 1926 966 2195 
L 966 4640 
Q 966 4730 1056 4730 
L 1318 4730 
Q 1408 4730 1408 4640 
L 1408 2227 
z
M 5542 -704 
Q 5542 -742 5510 -761 
Q 5478 -781 5446 -781 
L 2240 -781 
Q 1939 -781 1846 -669 
Q 1754 -557 1754 -294 
L 1754 915 
Q 1754 1005 1843 1005 
L 2106 1005 
Q 2195 1005 2195 915 
L 2195 -262 
Q 2195 -352 2224 -374 
Q 2253 -397 2342 -397 
L 5446 -397 
Q 5478 -397 5510 -419 
Q 5542 -442 5542 -474 
L 5542 -704 
z
" transform="scale(0.015625)"/>
     <path id="NanumGothicCoding-817" d="M 1690 2419 
Q 1536 2419 1443 2438 
Q 1350 2458 1299 2512 
Q 1248 2566 1229 2652 
Q 1210 2739 1210 2874 
L 1210 4909 
Q 1210 4941 1235 4963 
Q 1261 4986 1293 4986 
L 1568 4986 
Q 1600 4986 1622 4960 
Q 1645 4934 1645 4909 
L 1645 4058 
L 4723 4058 
L 4723 4902 
Q 4723 4934 4745 4960 
Q 4768 4986 4800 4986 
L 5075 4986 
Q 5107 4986 5132 4963 
Q 5158 4941 5158 4909 
L 5158 2829 
Q 5158 2586 5056 2502 
Q 4954 2419 4672 2419 
L 1690 2419 
z
M 3046 -858 
Q 3014 -858 2988 -829 
Q 2963 -800 2963 -762 
L 2963 1242 
L 480 1242 
Q 442 1242 413 1267 
Q 384 1293 384 1325 
L 384 1542 
Q 384 1581 413 1603 
Q 442 1626 480 1626 
L 5920 1626 
Q 5952 1626 5984 1603 
Q 6016 1581 6016 1542 
L 6016 1325 
Q 6016 1293 5984 1267 
Q 5952 1242 5920 1242 
L 3405 1242 
L 3405 -762 
Q 3405 -800 3382 -829 
Q 3360 -858 3322 -858 
L 3046 -858 
z
M 1645 3680 
L 1645 2950 
Q 1645 2854 1677 2825 
Q 1709 2797 1798 2797 
L 4570 2797 
Q 4659 2797 4691 2825 
Q 4723 2854 4723 2950 
L 4723 3680 
L 1645 3680 
z
" transform="scale(0.015625)"/>
     <path id="NanumGothicCoding-c20" d="M 3174 2464 
Q 2989 2451 2774 2441 
Q 2560 2432 2342 2425 
Q 2125 2419 1920 2419 
Q 1715 2419 1549 2426 
L 1280 2426 
L 1280 1229 
Q 1280 1133 1312 1097 
Q 1344 1062 1434 1062 
Q 1971 1050 2598 1098 
Q 3226 1146 3782 1254 
Q 3891 1274 3910 1184 
L 3942 998 
Q 3955 941 3936 918 
Q 3917 896 3859 883 
Q 3590 826 3270 784 
Q 2950 742 2617 713 
Q 2285 685 1955 672 
Q 1626 659 1338 666 
Q 1050 672 944 800 
Q 838 928 838 1197 
L 838 4077 
Q 838 4346 940 4435 
Q 1043 4525 1325 4525 
L 3334 4525 
Q 3418 4525 3418 4448 
L 3418 4218 
Q 3418 4141 3334 4141 
L 1408 4141 
Q 1318 4141 1299 4118 
Q 1280 4096 1280 4000 
L 1280 2797 
L 1549 2797 
Q 1709 2797 1910 2797 
Q 2112 2797 2329 2803 
Q 2547 2810 2764 2816 
Q 2982 2822 3174 2835 
Q 3213 2842 3235 2816 
Q 3258 2790 3258 2758 
L 3258 2541 
Q 3258 2477 3174 2464 
z
M 5344 -806 
Q 5344 -896 5254 -896 
L 4992 -896 
Q 4902 -896 4902 -806 
L 4902 2470 
L 3814 2470 
Q 3731 2470 3731 2547 
L 3731 2778 
Q 3731 2854 3814 2854 
L 4902 2854 
L 4902 4915 
Q 4902 5005 4992 5005 
L 5254 5005 
Q 5344 5005 5344 4915 
L 5344 -806 
z
" transform="scale(0.015625)"/>
     <path id="NanumGothicCoding-14" d="M 461 -186 
Q 365 -160 378 -38 
L 403 192 
Q 416 269 506 230 
Q 704 147 928 96 
Q 1152 45 1382 45 
Q 1837 45 2125 262 
Q 2515 538 2515 973 
Q 2509 1798 1222 1798 
L 1088 1798 
Q 1005 1798 1005 1869 
L 1005 2106 
Q 1005 2189 1088 2189 
L 1120 2189 
Q 1536 2189 1914 2330 
Q 2483 2560 2483 3046 
Q 2483 3219 2396 3360 
Q 2310 3501 2125 3597 
Q 2003 3667 1833 3708 
Q 1664 3750 1453 3750 
Q 1254 3750 1056 3692 
Q 858 3635 678 3539 
Q 602 3507 589 3590 
L 563 3821 
Q 550 3910 640 3949 
Q 851 4045 1068 4093 
Q 1286 4141 1498 4141 
Q 2061 4141 2483 3872 
Q 2931 3552 2931 3046 
Q 2931 2643 2650 2368 
Q 2374 2112 1978 2010 
Q 2144 1990 2345 1894 
Q 2547 1798 2669 1664 
Q 2816 1504 2889 1321 
Q 2963 1139 2963 947 
Q 2963 666 2848 432 
Q 2733 198 2496 13 
Q 2259 -173 1987 -259 
Q 1715 -346 1395 -346 
Q 1184 -346 944 -310 
Q 704 -275 461 -186 
z
" transform="scale(0.015625)"/>
     <path id="NanumGothicCoding-4e9" d="M 5120 -806 
Q 5120 -896 5030 -896 
L 4768 -896 
Q 4678 -896 4678 -806 
L 4678 4915 
Q 4678 5005 4768 5005 
L 5030 5005 
Q 5120 5005 5120 4915 
L 5120 2656 
L 6003 2656 
Q 6042 2656 6070 2633 
Q 6099 2611 6099 2573 
L 6099 2355 
Q 6099 2323 6070 2297 
Q 6042 2272 6003 2272 
L 5120 2272 
L 5120 -806 
z
M 3891 4058 
Q 3872 3520 3753 3001 
Q 3635 2483 3436 2006 
Q 3238 1530 2963 1104 
Q 2688 678 2349 333 
Q 2291 262 2227 307 
L 2035 454 
Q 1965 506 2029 582 
Q 2643 1216 3014 2099 
Q 3386 2982 3462 3987 
Q 3469 4083 3433 4118 
Q 3398 4154 3309 4154 
L 2483 4154 
Q 2406 4154 2406 4237 
L 2406 4442 
Q 2406 4518 2483 4518 
L 3411 4518 
Q 3565 4518 3661 4492 
Q 3757 4467 3808 4409 
Q 3859 4352 3878 4265 
Q 3898 4179 3891 4058 
z
M 2272 4058 
Q 2221 3181 1853 2397 
Q 1485 1613 819 973 
Q 755 909 698 960 
L 525 1133 
Q 461 1184 525 1248 
Q 1139 1830 1456 2505 
Q 1773 3181 1843 3987 
Q 1856 4083 1817 4118 
Q 1779 4154 1690 4154 
L 646 4154 
Q 570 4154 570 4237 
L 570 4442 
Q 570 4518 646 4518 
L 1792 4518 
Q 2093 4518 2189 4406 
Q 2285 4294 2272 4058 
z
" transform="scale(0.015625)"/>
     <path id="NanumGothicCoding-a44" d="M 5344 -806 
Q 5344 -896 5254 -896 
L 4992 -896 
Q 4902 -896 4902 -806 
L 4902 4915 
Q 4902 5005 4992 5005 
L 5254 5005 
Q 5344 5005 5344 4915 
L 5344 -806 
z
M 3885 3187 
Q 3885 2867 3769 2601 
Q 3654 2336 3449 2144 
Q 3245 1952 2963 1846 
Q 2682 1741 2349 1741 
Q 2022 1741 1747 1846 
Q 1472 1952 1270 2144 
Q 1069 2336 953 2601 
Q 838 2867 838 3187 
Q 838 3526 953 3795 
Q 1069 4064 1270 4253 
Q 1472 4442 1747 4541 
Q 2022 4640 2349 4640 
Q 2656 4640 2934 4541 
Q 3213 4442 3424 4253 
Q 3635 4064 3760 3795 
Q 3885 3526 3885 3187 
z
M 3437 3194 
Q 3437 3456 3350 3654 
Q 3264 3853 3113 3984 
Q 2963 4115 2764 4179 
Q 2566 4243 2349 4243 
Q 2118 4243 1926 4176 
Q 1734 4109 1590 3977 
Q 1446 3846 1366 3651 
Q 1286 3456 1286 3194 
Q 1286 2701 1577 2416 
Q 1869 2131 2349 2131 
Q 2566 2131 2764 2204 
Q 2963 2278 3113 2412 
Q 3264 2547 3350 2745 
Q 3437 2944 3437 3194 
z
M 4486 1069 
Q 4518 1075 4547 1059 
Q 4576 1043 4582 1018 
L 4614 800 
Q 4621 723 4538 704 
Q 4326 666 4076 630 
Q 3827 595 3561 563 
Q 3296 531 3027 505 
Q 2758 480 2502 461 
Q 2304 448 2038 435 
Q 1773 422 1497 412 
Q 1222 403 972 400 
Q 723 397 563 403 
Q 525 403 496 428 
Q 467 454 467 486 
L 467 704 
Q 467 742 496 764 
Q 525 787 563 787 
Q 749 787 1008 790 
Q 1267 794 1539 800 
Q 1811 806 2064 816 
Q 2317 826 2490 838 
Q 2714 851 2992 876 
Q 3270 902 3545 934 
Q 3821 966 4070 1001 
Q 4320 1037 4486 1069 
z
" transform="scale(0.015625)"/>
     <path id="NanumGothicCoding-926" d="M 2598 4589 
Q 2598 4166 2563 3779 
Q 2528 3392 2451 3034 
Q 2515 2778 2649 2493 
Q 2784 2208 2966 1926 
Q 3149 1645 3376 1379 
Q 3603 1114 3859 902 
Q 3891 877 3894 838 
Q 3898 800 3878 774 
L 3718 576 
Q 3661 506 3584 576 
Q 3405 730 3216 944 
Q 3027 1158 2851 1395 
Q 2675 1632 2521 1881 
Q 2368 2131 2259 2362 
Q 2054 1779 1721 1289 
Q 1389 800 928 378 
Q 864 326 819 371 
L 627 570 
Q 608 589 611 621 
Q 614 653 646 685 
Q 1037 1056 1325 1465 
Q 1613 1875 1795 2348 
Q 1978 2822 2064 3379 
Q 2150 3936 2150 4602 
Q 2150 4646 2172 4668 
Q 2195 4691 2227 4691 
L 2528 4678 
Q 2598 4678 2598 4589 
z
M 5344 -806 
Q 5344 -896 5254 -896 
L 4992 -896 
Q 4902 -896 4902 -806 
L 4902 4915 
Q 4902 5005 4992 5005 
L 5254 5005 
Q 5344 5005 5344 4915 
L 5344 -806 
z
" transform="scale(0.015625)"/>
     <path id="NanumGothicCoding-485" d="M 3130 4000 
Q 3117 3846 3094 3702 
Q 3072 3558 3040 3411 
L 4000 3411 
L 4000 4806 
Q 4000 4896 4090 4896 
L 4333 4896 
Q 4422 4896 4422 4806 
L 4422 -563 
Q 4422 -653 4333 -653 
L 4090 -653 
Q 4000 -653 4000 -563 
L 4000 1568 
L 2778 1568 
Q 2694 1568 2694 1645 
L 2694 1869 
Q 2694 1946 2778 1946 
L 4000 1946 
L 4000 3034 
L 2931 3034 
Q 2464 1594 922 570 
Q 838 512 794 576 
L 653 774 
Q 621 813 633 851 
Q 646 890 678 909 
Q 1107 1178 1456 1507 
Q 1805 1837 2061 2211 
Q 2317 2586 2470 2998 
Q 2624 3411 2662 3846 
Q 2675 4006 2636 4054 
Q 2598 4102 2470 4102 
L 915 4102 
Q 838 4102 838 4179 
L 838 4410 
Q 838 4442 864 4464 
Q 890 4486 922 4486 
L 2624 4486 
Q 2912 4486 3030 4364 
Q 3149 4243 3130 4000 
z
M 5555 -806 
Q 5555 -896 5466 -896 
L 5222 -896 
Q 5133 -896 5133 -806 
L 5133 4915 
Q 5133 5005 5222 5005 
L 5466 5005 
Q 5555 5005 5555 4915 
L 5555 -806 
z
" transform="scale(0.015625)"/>
     <path id="NanumGothicCoding-9cc" d="M 5344 1984 
Q 5344 1894 5254 1894 
L 4992 1894 
Q 4902 1894 4902 1984 
L 4902 2618 
L 3430 2618 
Q 3226 2368 2918 2224 
Q 2611 2080 2246 2080 
Q 1939 2080 1673 2185 
Q 1408 2291 1209 2476 
Q 1011 2662 896 2915 
Q 781 3168 781 3469 
Q 781 3789 896 4045 
Q 1011 4301 1209 4483 
Q 1408 4666 1673 4765 
Q 1939 4864 2246 4864 
Q 2637 4864 2982 4688 
Q 3328 4512 3533 4192 
L 4902 4192 
L 4902 4915 
Q 4902 5005 4992 5005 
L 5254 5005 
Q 5344 5005 5344 4915 
L 5344 1984 
z
M 5478 -838 
Q 5478 -870 5449 -892 
Q 5421 -915 5395 -915 
L 2176 -915 
Q 1875 -915 1782 -803 
Q 1690 -691 1690 -422 
L 1690 58 
Q 1690 326 1802 419 
Q 1914 512 2202 512 
L 4762 512 
Q 4851 512 4876 537 
Q 4902 563 4902 659 
L 4902 1024 
Q 4902 1120 4880 1145 
Q 4858 1171 4768 1171 
L 1766 1171 
Q 1734 1171 1705 1190 
Q 1677 1210 1677 1242 
L 1677 1472 
Q 1677 1504 1705 1523 
Q 1734 1542 1766 1542 
L 4838 1542 
Q 4992 1542 5088 1520 
Q 5184 1498 5241 1446 
Q 5299 1395 5321 1302 
Q 5344 1210 5344 1075 
L 5344 595 
Q 5344 326 5232 233 
Q 5120 141 4832 141 
L 2266 141 
Q 2176 141 2153 115 
Q 2131 90 2131 -6 
L 2131 -397 
Q 2131 -486 2156 -515 
Q 2182 -544 2272 -544 
L 5389 -544 
Q 5421 -544 5449 -563 
Q 5478 -582 5478 -614 
L 5478 -838 
z
M 3290 3475 
Q 3290 3706 3203 3888 
Q 3117 4070 2973 4195 
Q 2829 4320 2640 4387 
Q 2451 4454 2246 4454 
Q 2035 4454 1849 4390 
Q 1664 4326 1526 4201 
Q 1389 4077 1309 3894 
Q 1229 3712 1229 3475 
Q 1229 3251 1305 3068 
Q 1382 2886 1516 2755 
Q 1651 2624 1836 2553 
Q 2022 2483 2246 2483 
Q 2451 2483 2640 2553 
Q 2829 2624 2973 2752 
Q 3117 2880 3203 3065 
Q 3290 3251 3290 3475 
z
M 3738 3469 
Q 3738 3226 3648 2995 
L 4902 2995 
L 4902 3814 
L 3693 3814 
Q 3738 3661 3738 3469 
z
" transform="scale(0.015625)"/>
     <path id="NanumGothicCoding-a49" d="M 3846 2566 
Q 3846 2208 3760 1843 
Q 3674 1478 3488 1184 
Q 3302 890 3011 701 
Q 2720 512 2310 512 
Q 1888 512 1597 697 
Q 1306 883 1130 1180 
Q 954 1478 877 1843 
Q 800 2208 800 2566 
Q 800 2944 877 3312 
Q 954 3680 1130 3974 
Q 1306 4269 1597 4448 
Q 1888 4627 2310 4627 
Q 2720 4627 3011 4448 
Q 3302 4269 3488 3977 
Q 3674 3686 3760 3318 
Q 3846 2950 3846 2566 
z
M 3392 2573 
Q 3392 2867 3331 3168 
Q 3270 3469 3142 3709 
Q 3014 3949 2809 4099 
Q 2605 4250 2310 4250 
Q 2003 4250 1801 4099 
Q 1600 3949 1478 3709 
Q 1357 3469 1305 3168 
Q 1254 2867 1254 2573 
Q 1254 2291 1302 1993 
Q 1350 1696 1472 1449 
Q 1594 1203 1798 1046 
Q 2003 890 2310 890 
Q 2605 890 2809 1046 
Q 3014 1203 3142 1449 
Q 3270 1696 3331 1993 
Q 3392 2291 3392 2573 
z
M 5344 -806 
Q 5344 -896 5254 -896 
L 4992 -896 
Q 4902 -896 4902 -806 
L 4902 4915 
Q 4902 5005 4992 5005 
L 5254 5005 
Q 5344 5005 5344 4915 
L 5344 -806 
z
" transform="scale(0.015625)"/>
     <path id="NanumGothicCoding-f" d="M 1210 -256 
Q 1210 -96 1325 19 
Q 1440 134 1600 134 
Q 1760 134 1872 19 
Q 1984 -96 1984 -256 
Q 1984 -416 1872 -531 
Q 1760 -646 1600 -646 
Q 1440 -646 1325 -531 
Q 1210 -416 1210 -256 
z
" transform="scale(0.015625)"/>
    </defs>
    <use xlink:href="#NanumGothicCoding-27"/>
    <use xlink:href="#NanumGothicCoding-33" transform="translate(50 0)"/>
    <use xlink:href="#NanumGothicCoding-26" transform="translate(100 0)"/>
    <use xlink:href="#NanumGothicCoding-25" transform="translate(150 0)"/>
    <use xlink:href="#NanumGothicCoding-1" transform="translate(200 0)"/>
    <use xlink:href="#NanumGothicCoding-a18" transform="translate(250 0)"/>
    <use xlink:href="#NanumGothicCoding-7f9" transform="translate(350 0)"/>
    <use xlink:href="#NanumGothicCoding-1" transform="translate(450 0)"/>
    <use xlink:href="#NanumGothicCoding-24" transform="translate(500 0)"/>
    <use xlink:href="#NanumGothicCoding-31" transform="translate(550 0)"/>
    <use xlink:href="#NanumGothicCoding-2a" transform="translate(600 0)"/>
    <use xlink:href="#NanumGothicCoding-1" transform="translate(650 0)"/>
    <use xlink:href="#NanumGothicCoding-ad1" transform="translate(700 0)"/>
    <use xlink:href="#NanumGothicCoding-8fb" transform="translate(800 0)"/>
    <use xlink:href="#NanumGothicCoding-d" transform="translate(900 0)"/>
    <use xlink:href="#NanumGothicCoding-1" transform="translate(950 0)"/>
    <use xlink:href="#NanumGothicCoding-13" transform="translate(1000 0)"/>
    <use xlink:href="#NanumGothicCoding-11" transform="translate(1050 0)"/>
    <use xlink:href="#NanumGothicCoding-11" transform="translate(1100 0)"/>
    <use xlink:href="#NanumGothicCoding-11" transform="translate(1150 0)"/>
    <use xlink:href="#NanumGothicCoding-599" transform="translate(1200 0)"/>
    <use xlink:href="#NanumGothicCoding-1" transform="translate(1300 0)"/>
    <use xlink:href="#NanumGothicCoding-12" transform="translate(1350 0)"/>
    <use xlink:href="#NanumGothicCoding-a18" transform="translate(1400 0)"/>
    <use xlink:href="#NanumGothicCoding-817" transform="translate(1500 0)"/>
    <use xlink:href="#NanumGothicCoding-c20" transform="translate(1600 0)"/>
    <use xlink:href="#NanumGothicCoding-1" transform="translate(1700 0)"/>
    <use xlink:href="#NanumGothicCoding-13" transform="translate(1750 0)"/>
    <use xlink:href="#NanumGothicCoding-11" transform="translate(1800 0)"/>
    <use xlink:href="#NanumGothicCoding-13" transform="translate(1850 0)"/>
    <use xlink:href="#NanumGothicCoding-14" transform="translate(1900 0)"/>
    <use xlink:href="#NanumGothicCoding-599" transform="translate(1950 0)"/>
    <use xlink:href="#NanumGothicCoding-1" transform="translate(2050 0)"/>
    <use xlink:href="#NanumGothicCoding-12" transform="translate(2100 0)"/>
    <use xlink:href="#NanumGothicCoding-12" transform="translate(2150 0)"/>
    <use xlink:href="#NanumGothicCoding-a18" transform="translate(2200 0)"/>
    <use xlink:href="#NanumGothicCoding-4e9" transform="translate(2300 0)"/>
    <use xlink:href="#NanumGothicCoding-ad1" transform="translate(2400 0)"/>
    <use xlink:href="#NanumGothicCoding-a44" transform="translate(2500 0)"/>
    <use xlink:href="#NanumGothicCoding-1" transform="translate(2600 0)"/>
    <use xlink:href="#NanumGothicCoding-a18" transform="translate(2650 0)"/>
    <use xlink:href="#NanumGothicCoding-7f9" transform="translate(2750 0)"/>
    <use xlink:href="#NanumGothicCoding-1" transform="translate(2850 0)"/>
    <use xlink:href="#NanumGothicCoding-926" transform="translate(2900 0)"/>
    <use xlink:href="#NanumGothicCoding-485" transform="translate(3000 0)"/>
    <use xlink:href="#NanumGothicCoding-9cc" transform="translate(3100 0)"/>
    <use xlink:href="#NanumGothicCoding-a49" transform="translate(3200 0)"/>
    <use xlink:href="#NanumGothicCoding-5ee" transform="translate(3300 0)"/>
    <use xlink:href="#NanumGothicCoding-f" transform="translate(3400 0)"/>
   </g>
  </g>
 </g>
 <defs>
  <clipPath id="p2b1ebd7d7e">
   <rect x="49.2" y="57.6" width="585.9" height="302.4"/>
  </clipPath>
 </defs>
</svg>
