<?xml version="1.0" encoding="utf-8" standalone="no"?>
<!DOCTYPE svg PUBLIC "-//W3C//DTD SVG 1.1//EN"
  "http://www.w3.org/Graphics/SVG/1.1/DTD/svg11.dtd">
<svg xmlns:xlink="http://www.w3.org/1999/xlink" width="642.3pt" height="416.3pt" viewBox="0 0 642.3 416.3" xmlns="http://www.w3.org/2000/svg" version="1.1">
 <metadata>
  <rdf:RDF xmlns:dc="http://purl.org/dc/elements/1.1/" xmlns:cc="http://creativecommons.org/ns#" xmlns:rdf="http://www.w3.org/1999/02/22-rdf-syntax-ns#">
   <cc:Work>
    <dc:type rdf:resource="http://purl.org/dc/dcmitype/StillImage"/>
    <dc:date>2026-07-06T12:13:15.066688</dc:date>
    <dc:format>image/svg+xml</dc:format>
    <dc:creator>
     <cc:Agent>
      <dc:title>Matplotlib v3.11.0, https://matplotlib.org/</dc:title>
     </cc:Agent>
    </dc:creator>
   </cc:Work>
  </rdf:RDF>
 </metadata>
 <defs>
  <style type="text/css">*{stroke-linejoin: round; stroke-linecap: butt}</style>
 </defs>
 <g id="figure_1">
  <g id="patch_1">
   <path d="M 0 416.3 
L 642.3 416.3 
L 642.3 0 
L 0 0 
z
" style="fill: #fcfcfd"/>
  </g>
  <g id="axes_1">
   <g id="patch_2">
    <path d="M 49.2 372.6 
L 635.1 372.6 
L 635.1 59.4 
L 49.2 59.4 
z
" style="fill: #ffffff"/>
   </g>
   <g id="matplotlib.axis_1">
    <g id="xtick_1">
     <g id="text_1">
      <!-- 40㎡ 이하 -->
      <g style="fill: #262626" transform="translate(83.04 390.9) scale(0.11 -0.11)">
       <defs>
        <path id="NanumGothicCoding-15" d="M 1907 1216 
L 1907 3622 
L 570 1216 
L 1907 1216 
z
M 2342 -211 
Q 2342 -301 2253 -301 
L 1997 -301 
Q 1907 -301 1907 -211 
L 1907 826 
L 346 826 
Q 211 826 188 848 
Q 166 870 166 1005 
L 166 1203 
Q 166 1261 172 1280 
Q 179 1299 211 1350 
L 1702 4013 
Q 1741 4070 1757 4080 
Q 1773 4090 1843 4090 
L 2163 4090 
Q 2298 4090 2320 4067 
Q 2342 4045 2342 3910 
L 2342 1216 
L 3040 1216 
Q 3130 1216 3130 1126 
L 3130 915 
Q 3130 826 3040 826 
L 2342 826 
L 2342 -211 
z
" transform="scale(0.015625)"/>
        <path id="NanumGothicCoding-11" d="M 1747 1242 
L 1453 1242 
Q 1376 1242 1376 1331 
L 1376 2355 
Q 1376 2445 1453 2445 
L 1747 2445 
Q 1824 2445 1824 2355 
L 1824 1331 
Q 1824 1242 1747 1242 
z
M 2470 1907 
Q 2483 3731 1600 3731 
Q 717 3731 730 1907 
Q 717 77 1600 77 
Q 2483 77 2470 1907 
z
M 2906 1907 
Q 2906 -326 1606 -326 
Q 294 -326 294 1907 
Q 294 2726 544 3354 
Q 909 4141 1606 4141 
Q 2285 4141 2662 3354 
Q 2790 3040 2848 2637 
Q 2906 2234 2906 1907 
z
" transform="scale(0.015625)"/>
        <path id="NanumGothicCoding-25d" d="M 4941 -256 
L 4570 -256 
L 4570 1965 
Q 4570 2157 4544 2313 
Q 4518 2470 4444 2579 
Q 4371 2688 4249 2745 
Q 4128 2803 3936 2803 
Q 3744 2803 3603 2710 
Q 3462 2618 3376 2458 
Q 3290 2298 3248 2080 
Q 3206 1862 3206 1613 
L 3206 -256 
L 2829 -256 
L 2829 1952 
Q 2829 2118 2806 2272 
Q 2784 2426 2723 2544 
Q 2662 2662 2553 2732 
Q 2445 2803 2272 2803 
Q 2048 2803 1897 2713 
Q 1747 2624 1651 2464 
Q 1555 2304 1513 2083 
Q 1472 1862 1472 1606 
L 1472 -256 
L 1101 -256 
L 1101 3046 
L 1472 3046 
L 1472 2490 
Q 1542 2758 1766 2950 
Q 1990 3142 2342 3142 
Q 2682 3142 2893 2963 
Q 3104 2784 3149 2496 
Q 3232 2758 3446 2950 
Q 3661 3142 4019 3142 
Q 4493 3142 4717 2854 
Q 4941 2566 4941 1984 
L 4941 -256 
z
M 5299 3386 
L 4461 3386 
Q 4461 3501 4489 3587 
Q 4518 3674 4569 3744 
Q 4621 3814 4694 3875 
Q 4768 3936 4858 4000 
Q 4947 4064 5017 4137 
Q 5088 4211 5088 4320 
Q 5088 4416 5030 4464 
Q 4973 4512 4883 4512 
Q 4678 4512 4698 4173 
L 4486 4173 
Q 4467 4429 4576 4573 
Q 4685 4717 4883 4717 
Q 5056 4717 5177 4621 
Q 5299 4525 5299 4320 
Q 5299 4122 5145 3981 
Q 4992 3840 4800 3706 
Q 4768 3686 4752 3657 
Q 4736 3629 4723 3597 
L 5299 3597 
L 5299 3386 
z
" transform="scale(0.015625)"/>
        <path id="NanumGothicCoding-1" transform="scale(0.015625)"/>
        <path id="NanumGothicCoding-a49" d="M 3846 2566 
Q 3846 2208 3760 1843 
Q 3674 1478 3488 1184 
Q 3302 890 3011 701 
Q 2720 512 2310 512 
Q 1888 512 1597 697 
Q 1306 883 1130 1180 
Q 954 1478 877 1843 
Q 800 2208 800 2566 
Q 800 2944 877 3312 
Q 954 3680 1130 3974 
Q 1306 4269 1597 4448 
Q 1888 4627 2310 4627 
Q 2720 4627 3011 4448 
Q 3302 4269 3488 3977 
Q 3674 3686 3760 3318 
Q 3846 2950 3846 2566 
z
M 3392 2573 
Q 3392 2867 3331 3168 
Q 3270 3469 3142 3709 
Q 3014 3949 2809 4099 
Q 2605 4250 2310 4250 
Q 2003 4250 1801 4099 
Q 1600 3949 1478 3709 
Q 1357 3469 1305 3168 
Q 1254 2867 1254 2573 
Q 1254 2291 1302 1993 
Q 1350 1696 1472 1449 
Q 1594 1203 1798 1046 
Q 2003 890 2310 890 
Q 2605 890 2809 1046 
Q 3014 1203 3142 1449 
Q 3270 1696 3331 1993 
Q 3392 2291 3392 2573 
z
M 5344 -806 
Q 5344 -896 5254 -896 
L 4992 -896 
Q 4902 -896 4902 -806 
L 4902 4915 
Q 4902 5005 4992 5005 
L 5254 5005 
Q 5344 5005 5344 4915 
L 5344 -806 
z
" transform="scale(0.015625)"/>
        <path id="NanumGothicCoding-cde" d="M 3738 1542 
Q 3738 1280 3632 1056 
Q 3526 832 3340 662 
Q 3155 493 2899 397 
Q 2643 301 2349 301 
Q 2048 301 1795 397 
Q 1542 493 1356 659 
Q 1171 826 1065 1053 
Q 960 1280 960 1542 
Q 960 1811 1065 2038 
Q 1171 2266 1356 2432 
Q 1542 2598 1795 2694 
Q 2048 2790 2349 2790 
Q 2643 2790 2899 2691 
Q 3155 2592 3340 2425 
Q 3526 2259 3632 2028 
Q 3738 1798 3738 1542 
z
M 5120 -806 
Q 5120 -896 5030 -896 
L 4768 -896 
Q 4678 -896 4678 -806 
L 4678 4915 
Q 4678 5005 4768 5005 
L 5030 5005 
Q 5120 5005 5120 4915 
L 5120 2554 
L 6003 2554 
Q 6042 2554 6070 2531 
Q 6099 2509 6099 2470 
L 6099 2253 
Q 6099 2221 6070 2195 
Q 6042 2170 6003 2170 
L 5120 2170 
L 5120 -806 
z
M 3302 1542 
Q 3302 1728 3232 1888 
Q 3162 2048 3034 2166 
Q 2906 2285 2730 2352 
Q 2554 2419 2349 2419 
Q 2144 2419 1968 2352 
Q 1792 2285 1664 2166 
Q 1536 2048 1462 1888 
Q 1389 1728 1389 1542 
Q 1389 1357 1462 1200 
Q 1536 1043 1664 924 
Q 1792 806 1968 739 
Q 2144 672 2349 672 
Q 2554 672 2730 739 
Q 2906 806 3034 921 
Q 3162 1037 3232 1197 
Q 3302 1357 3302 1542 
z
M 4218 3328 
Q 4218 3245 4122 3245 
L 589 3245 
Q 557 3245 528 3270 
Q 499 3296 499 3334 
L 499 3539 
Q 499 3578 528 3603 
Q 557 3629 589 3629 
L 4122 3629 
Q 4218 3629 4218 3546 
L 4218 3328 
z
M 3283 4416 
Q 3283 4326 3187 4326 
L 1434 4326 
Q 1402 4326 1373 4348 
Q 1344 4371 1344 4410 
L 1344 4627 
Q 1344 4666 1369 4691 
Q 1395 4717 1427 4717 
L 3187 4717 
Q 3283 4717 3283 4627 
L 3283 4416 
z
" transform="scale(0.015625)"/>
       </defs>
       <use xlink:href="#NanumGothicCoding-15"/>
       <use xlink:href="#NanumGothicCoding-11" transform="translate(50 0)"/>
       <use xlink:href="#NanumGothicCoding-25d" transform="translate(100 0)"/>
       <use xlink:href="#NanumGothicCoding-1" transform="translate(200 0)"/>
       <use xlink:href="#NanumGothicCoding-a49" transform="translate(250 0)"/>
       <use xlink:href="#NanumGothicCoding-cde" transform="translate(350 0)"/>
      </g>
     </g>
    </g>
    <g id="xtick_2">
     <g id="text_2">
      <!-- 40-60㎡ -->
      <g style="fill: #262626" transform="translate(205.72 390.9) scale(0.11 -0.11)">
       <defs>
        <path id="NanumGothicCoding-e" d="M 2938 2131 
L 2938 1850 
Q 2938 1779 2928 1769 
Q 2918 1760 2848 1760 
L 352 1760 
Q 282 1760 272 1769 
Q 262 1779 262 1850 
L 262 2131 
Q 262 2202 272 2211 
Q 282 2221 352 2221 
L 2848 2221 
Q 2918 2221 2928 2211 
Q 2938 2202 2938 2131 
z
" transform="scale(0.015625)"/>
        <path id="NanumGothicCoding-17" d="M 2643 3661 
Q 2502 3712 2358 3741 
Q 2214 3770 2080 3770 
Q 1446 3770 1056 3200 
Q 723 2694 704 1888 
Q 832 2131 1043 2298 
Q 1318 2515 1696 2515 
Q 2118 2515 2451 2227 
Q 2925 1818 2925 1120 
Q 2925 499 2547 77 
Q 2163 -346 1651 -346 
Q 1139 -346 749 70 
Q 275 595 269 1760 
Q 269 2816 736 3469 
Q 1280 4166 2067 4166 
Q 2189 4166 2355 4144 
Q 2522 4122 2669 4077 
Q 2765 4064 2752 3974 
L 2739 3718 
Q 2739 3680 2707 3664 
Q 2675 3648 2643 3661 
z
M 2483 1088 
Q 2490 1453 2310 1741 
Q 2054 2112 1651 2112 
Q 1498 2118 1328 2035 
Q 1158 1952 1040 1792 
Q 922 1632 867 1446 
Q 813 1261 813 1088 
Q 813 723 992 435 
Q 1248 45 1651 45 
Q 2054 45 2310 435 
Q 2477 723 2483 1088 
z
" transform="scale(0.015625)"/>
       </defs>
       <use xlink:href="#NanumGothicCoding-15"/>
       <use xlink:href="#NanumGothicCoding-11" transform="translate(50 0)"/>
       <use xlink:href="#NanumGothicCoding-e" transform="translate(100 0)"/>
       <use xlink:href="#NanumGothicCoding-17" transform="translate(150 0)"/>
       <use xlink:href="#NanumGothicCoding-11" transform="translate(200 0)"/>
       <use xlink:href="#NanumGothicCoding-25d" transform="translate(250 0)"/>
      </g>
     </g>
    </g>
    <g id="xtick_3">
     <g id="text_3">
      <!-- 60-85㎡ -->
      <g style="fill: #262626" transform="translate(322.9 390.9) scale(0.11 -0.11)">
       <defs>
        <path id="NanumGothicCoding-19" d="M 3008 832 
Q 3008 538 2893 307 
Q 2778 77 2554 -70 
Q 2362 -198 2122 -272 
Q 1882 -346 1594 -346 
Q 1306 -346 1072 -272 
Q 838 -198 634 -70 
Q 422 77 304 307 
Q 186 538 186 832 
Q 186 1286 480 1574 
Q 710 1811 1184 1990 
Q 314 2438 314 3110 
Q 314 3360 435 3552 
Q 557 3744 768 3891 
Q 954 4013 1139 4077 
Q 1325 4141 1600 4141 
Q 1875 4141 2067 4077 
Q 2259 4013 2432 3891 
Q 2874 3610 2874 3110 
Q 2874 2490 1990 1990 
Q 2214 1907 2403 1798 
Q 2592 1690 2701 1574 
Q 3008 1286 3008 832 
z
M 2445 3040 
Q 2445 3379 2202 3565 
Q 1965 3750 1600 3750 
Q 1235 3750 998 3565 
Q 742 3379 742 3040 
Q 742 2771 1005 2541 
Q 1094 2470 1222 2380 
Q 1350 2291 1517 2202 
Q 1568 2170 1597 2170 
Q 1626 2170 1683 2202 
Q 2035 2432 2240 2643 
Q 2445 2854 2445 3040 
z
M 2592 858 
Q 2592 1184 2310 1408 
Q 2221 1478 2064 1580 
Q 1907 1683 1670 1792 
Q 1587 1837 1504 1792 
Q 1286 1702 1120 1590 
Q 954 1478 864 1408 
Q 749 1306 678 1162 
Q 608 1018 608 858 
Q 608 467 928 237 
Q 1210 38 1600 38 
Q 2003 38 2272 237 
Q 2592 467 2592 858 
z
" transform="scale(0.015625)"/>
        <path id="NanumGothicCoding-16" d="M 576 -205 
Q 493 -173 493 -90 
L 493 179 
Q 493 288 576 243 
Q 800 134 979 89 
Q 1158 45 1350 45 
Q 1773 45 2112 320 
Q 2464 621 2470 1062 
Q 2470 2042 1414 2042 
Q 1267 2042 1100 2013 
Q 934 1984 704 1907 
Q 634 1888 589 1923 
Q 544 1958 544 2029 
L 582 3910 
Q 582 4045 604 4067 
Q 627 4090 755 4090 
L 2611 4090 
Q 2694 4090 2694 4000 
L 2694 3789 
Q 2694 3699 2611 3699 
L 1005 3699 
Q 998 3296 988 2998 
Q 979 2701 973 2317 
Q 1254 2419 1581 2419 
Q 2099 2419 2496 2074 
Q 2899 1702 2899 1152 
Q 2899 486 2445 51 
Q 1965 -346 1350 -346 
Q 1184 -346 989 -317 
Q 794 -288 576 -205 
z
" transform="scale(0.015625)"/>
       </defs>
       <use xlink:href="#NanumGothicCoding-17"/>
       <use xlink:href="#NanumGothicCoding-11" transform="translate(50 0)"/>
       <use xlink:href="#NanumGothicCoding-e" transform="translate(100 0)"/>
       <use xlink:href="#NanumGothicCoding-19" transform="translate(150 0)"/>
       <use xlink:href="#NanumGothicCoding-16" transform="translate(200 0)"/>
       <use xlink:href="#NanumGothicCoding-25d" transform="translate(250 0)"/>
      </g>
     </g>
    </g>
    <g id="xtick_4">
     <g id="text_4">
      <!-- 85-120㎡ -->
      <g style="fill: #262626" transform="translate(437.33 390.9) scale(0.11 -0.11)">
       <defs>
        <path id="NanumGothicCoding-12" d="M 2022 -211 
Q 2022 -301 1933 -301 
L 1670 -301 
Q 1581 -301 1581 -211 
L 1581 3565 
Q 1382 3398 1209 3251 
Q 1037 3104 845 2938 
Q 774 2880 717 2950 
L 589 3104 
Q 570 3136 570 3171 
Q 570 3206 602 3232 
L 1594 4064 
Q 1619 4090 1670 4090 
L 1843 4090 
Q 1978 4090 2000 4067 
Q 2022 4045 2022 3910 
L 2022 -211 
z
" transform="scale(0.015625)"/>
        <path id="NanumGothicCoding-13" d="M 442 -301 
Q 378 -301 342 -297 
Q 307 -294 291 -278 
Q 275 -262 272 -227 
Q 269 -192 269 -122 
L 269 19 
Q 269 102 320 147 
L 1286 1146 
Q 2317 2246 2310 2854 
Q 2317 3277 2125 3501 
Q 1907 3744 1523 3757 
Q 1069 3757 602 3469 
Q 518 3424 499 3507 
L 461 3718 
Q 442 3827 525 3859 
Q 781 4000 1017 4070 
Q 1254 4141 1510 4141 
Q 2022 4141 2387 3834 
Q 2790 3501 2790 2886 
Q 2790 2650 2681 2365 
Q 2573 2080 2336 1760 
Q 2112 1478 1971 1308 
Q 1830 1139 1600 890 
Q 1350 627 1206 480 
Q 1062 333 826 96 
L 2803 96 
Q 2899 90 2893 6 
L 2893 -218 
Q 2893 -301 2810 -301 
L 442 -301 
z
" transform="scale(0.015625)"/>
       </defs>
       <use xlink:href="#NanumGothicCoding-19"/>
       <use xlink:href="#NanumGothicCoding-16" transform="translate(50 0)"/>
       <use xlink:href="#NanumGothicCoding-e" transform="translate(100 0)"/>
       <use xlink:href="#NanumGothicCoding-12" transform="translate(150 0)"/>
       <use xlink:href="#NanumGothicCoding-13" transform="translate(200 0)"/>
       <use xlink:href="#NanumGothicCoding-11" transform="translate(250 0)"/>
       <use xlink:href="#NanumGothicCoding-25d" transform="translate(300 0)"/>
      </g>
     </g>
    </g>
    <g id="xtick_5">
     <g id="text_5">
      <!-- 120㎡ 초과 -->
      <g style="fill: #262626" transform="translate(549.01 390.9) scale(0.11 -0.11)">
       <defs>
        <path id="NanumGothicCoding-b61" d="M 4704 3315 
Q 4538 3130 4272 2941 
Q 4006 2752 3667 2566 
Q 3872 2496 4115 2419 
Q 4358 2342 4601 2275 
Q 4845 2208 5072 2153 
Q 5299 2099 5478 2067 
Q 5530 2054 5539 2035 
Q 5549 2016 5536 1971 
L 5478 1754 
Q 5466 1683 5376 1702 
Q 5197 1734 4928 1801 
Q 4659 1869 4355 1955 
Q 4051 2042 3740 2134 
Q 3430 2227 3174 2317 
Q 2682 2093 2138 1913 
Q 1594 1734 1043 1626 
Q 947 1606 922 1670 
L 845 1888 
Q 832 1920 851 1949 
Q 870 1978 909 1990 
Q 1901 2202 2713 2557 
Q 3526 2912 4166 3392 
Q 4269 3469 4262 3523 
Q 4256 3578 4154 3578 
L 1382 3578 
Q 1299 3578 1299 3661 
L 1299 3885 
Q 1299 3962 1382 3962 
L 4339 3962 
Q 5293 3962 4704 3315 
z
M 3315 1664 
Q 3347 1664 3372 1635 
Q 3398 1606 3398 1568 
L 3398 499 
L 5920 499 
Q 5952 499 5984 476 
Q 6016 454 6016 416 
L 6016 198 
Q 6016 166 5984 140 
Q 5952 115 5920 115 
L 480 115 
Q 442 115 413 140 
Q 384 166 384 198 
L 384 416 
Q 384 454 413 476 
Q 442 499 480 499 
L 2957 499 
L 2957 1568 
Q 2957 1606 2979 1635 
Q 3002 1664 3040 1664 
L 3315 1664 
z
M 4006 4877 
Q 4102 4877 4102 4787 
L 4102 4582 
Q 4102 4486 4006 4486 
L 2285 4486 
Q 2189 4486 2189 4582 
L 2189 4787 
Q 2189 4877 2285 4877 
L 4006 4877 
z
" transform="scale(0.015625)"/>
        <path id="NanumGothicCoding-497" d="M 5120 -806 
Q 5120 -896 5030 -896 
L 4768 -896 
Q 4678 -896 4678 -806 
L 4678 4915 
Q 4678 5005 4768 5005 
L 5030 5005 
Q 5120 5005 5120 4915 
L 5120 2413 
L 6003 2413 
Q 6042 2413 6070 2390 
Q 6099 2368 6099 2330 
L 6099 2112 
Q 6099 2080 6070 2054 
Q 6042 2029 6003 2029 
L 5120 2029 
L 5120 -806 
z
M 4282 973 
Q 4384 992 4390 928 
L 4429 704 
Q 4442 627 4346 614 
Q 3917 544 3405 486 
Q 2893 429 2374 397 
Q 2189 384 1939 377 
Q 1690 371 1430 368 
Q 1171 365 924 365 
Q 678 365 499 371 
Q 461 371 432 396 
Q 403 422 403 454 
L 403 672 
Q 403 710 432 732 
Q 461 755 499 755 
Q 621 755 781 752 
Q 941 749 1117 749 
Q 1293 749 1481 752 
Q 1670 755 1850 755 
L 1850 2522 
Q 1850 2560 1872 2589 
Q 1894 2618 1933 2618 
L 2208 2618 
Q 2240 2618 2265 2589 
Q 2291 2560 2291 2522 
L 2291 768 
Q 2304 768 2323 771 
Q 2342 774 2362 774 
Q 2586 787 2842 803 
Q 3098 819 3354 841 
Q 3610 864 3850 896 
Q 4090 928 4282 973 
z
M 800 4410 
Q 800 4448 832 4467 
Q 864 4486 896 4486 
L 3296 4486 
Q 3450 4486 3542 4454 
Q 3635 4422 3686 4361 
Q 3738 4301 3757 4205 
Q 3776 4109 3782 3974 
Q 3789 3712 3779 3437 
Q 3770 3162 3747 2883 
Q 3725 2605 3686 2336 
Q 3648 2067 3597 1830 
Q 3584 1792 3561 1760 
Q 3539 1728 3501 1734 
L 3245 1754 
Q 3136 1760 3168 1869 
Q 3226 2106 3267 2381 
Q 3309 2656 3331 2934 
Q 3354 3213 3360 3478 
Q 3366 3744 3347 3968 
Q 3334 4058 3312 4080 
Q 3290 4102 3200 4102 
L 896 4102 
Q 851 4102 825 4124 
Q 800 4147 800 4179 
L 800 4410 
z
" transform="scale(0.015625)"/>
       </defs>
       <use xlink:href="#NanumGothicCoding-12"/>
       <use xlink:href="#NanumGothicCoding-13" transform="translate(50 0)"/>
       <use xlink:href="#NanumGothicCoding-11" transform="translate(100 0)"/>
       <use xlink:href="#NanumGothicCoding-25d" transform="translate(150 0)"/>
       <use xlink:href="#NanumGothicCoding-1" transform="translate(250 0)"/>
       <use xlink:href="#NanumGothicCoding-b61" transform="translate(300 0)"/>
       <use xlink:href="#NanumGothicCoding-497" transform="translate(400 0)"/>
      </g>
     </g>
    </g>
    <g id="text_6">
     <!-- 면적구간 -->
     <g style="fill: #1f2430" transform="translate(318.15 406.7) scale(0.12 -0.12)">
      <defs>
       <path id="NanumGothicCoding-776" d="M 5344 877 
Q 5344 787 5254 787 
L 4992 787 
Q 4902 787 4902 877 
L 4902 2381 
L 3635 2381 
L 3635 2227 
Q 3635 1958 3532 1865 
Q 3430 1773 3149 1773 
L 1389 1773 
Q 1235 1773 1142 1792 
Q 1050 1811 995 1865 
Q 941 1920 921 2006 
Q 902 2093 902 2227 
L 902 4205 
Q 902 4474 1004 4566 
Q 1107 4659 1389 4659 
L 3149 4659 
Q 3302 4659 3395 4640 
Q 3488 4621 3542 4569 
Q 3597 4518 3616 4428 
Q 3635 4339 3635 4205 
L 3635 3974 
L 4902 3974 
L 4902 4915 
Q 4902 5005 4992 5005 
L 5254 5005 
Q 5344 5005 5344 4915 
L 5344 877 
z
M 1498 4275 
Q 1408 4275 1376 4240 
Q 1344 4205 1344 4109 
L 1344 2323 
Q 1344 2227 1376 2192 
Q 1408 2157 1498 2157 
L 3040 2157 
Q 3130 2157 3162 2192 
Q 3194 2227 3194 2323 
L 3194 4109 
Q 3194 4205 3162 4240 
Q 3130 4275 3040 4275 
L 1498 4275 
z
M 5542 -704 
Q 5542 -742 5510 -761 
Q 5478 -781 5446 -781 
L 2240 -781 
Q 1939 -781 1846 -669 
Q 1754 -557 1754 -294 
L 1754 1005 
Q 1754 1094 1843 1094 
L 2106 1094 
Q 2195 1094 2195 1005 
L 2195 -262 
Q 2195 -352 2224 -374 
Q 2253 -397 2342 -397 
L 5446 -397 
Q 5478 -397 5510 -419 
Q 5542 -442 5542 -474 
L 5542 -704 
z
M 3635 2758 
L 4902 2758 
L 4902 3597 
L 3635 3597 
L 3635 2758 
z
" transform="scale(0.015625)"/>
       <path id="NanumGothicCoding-a78" d="M 3501 4166 
Q 3411 3904 3248 3648 
Q 3085 3392 2861 3142 
Q 3078 2912 3398 2704 
Q 3718 2496 4096 2336 
Q 4147 2317 4153 2281 
Q 4160 2246 4141 2214 
L 4013 1984 
Q 3994 1952 3955 1949 
Q 3917 1946 3885 1958 
Q 3744 2022 3581 2112 
Q 3418 2202 3245 2317 
Q 3072 2432 2902 2566 
Q 2733 2701 2586 2848 
Q 2221 2490 1782 2195 
Q 1344 1901 896 1702 
Q 864 1690 832 1683 
Q 800 1677 781 1709 
L 653 1933 
Q 634 1965 650 2000 
Q 666 2035 698 2048 
Q 1523 2445 2105 2957 
Q 2688 3469 3014 4141 
Q 3059 4230 3027 4268 
Q 2995 4307 2906 4307 
L 1030 4307 
Q 954 4307 954 4390 
L 954 4614 
Q 954 4691 1030 4691 
L 3078 4691 
Q 3411 4691 3507 4572 
Q 3603 4454 3501 4166 
z
M 1613 1133 
Q 1613 1171 1645 1190 
Q 1677 1210 1709 1210 
L 4858 1210 
Q 5158 1210 5251 1098 
Q 5344 986 5344 723 
L 5344 -832 
Q 5344 -922 5254 -922 
L 4992 -922 
Q 4902 -922 4902 -832 
L 4902 691 
Q 4902 781 4873 803 
Q 4845 826 4755 826 
L 1709 826 
Q 1677 826 1645 848 
Q 1613 870 1613 902 
L 1613 1133 
z
M 4902 3462 
L 4902 4915 
Q 4902 5005 4992 5005 
L 5254 5005 
Q 5344 5005 5344 4915 
L 5344 1651 
Q 5344 1562 5254 1562 
L 4992 1562 
Q 4902 1562 4902 1651 
L 4902 3078 
L 3693 3078 
Q 3610 3078 3610 3155 
L 3610 3386 
Q 3610 3462 3693 3462 
L 4902 3462 
z
" transform="scale(0.015625)"/>
       <path id="NanumGothicCoding-4b3" d="M 1158 4749 
Q 1158 4787 1190 4806 
Q 1222 4826 1254 4826 
L 4640 4826 
Q 4794 4826 4886 4794 
Q 4979 4762 5030 4701 
Q 5082 4640 5104 4544 
Q 5126 4448 5126 4314 
Q 5139 3814 5065 3296 
Q 4992 2778 4864 2176 
L 5920 2176 
Q 5952 2176 5984 2153 
Q 6016 2131 6016 2093 
L 6016 1875 
Q 6016 1843 5984 1817 
Q 5952 1792 5920 1792 
L 3405 1792 
L 3405 -762 
Q 3405 -800 3382 -829 
Q 3360 -858 3322 -858 
L 3046 -858 
Q 3014 -858 2988 -829 
Q 2963 -800 2963 -762 
L 2963 1792 
L 480 1792 
Q 442 1792 413 1817 
Q 384 1843 384 1875 
L 384 2093 
Q 384 2131 413 2153 
Q 442 2176 480 2176 
L 4429 2176 
Q 4493 2426 4550 2720 
Q 4608 3014 4643 3308 
Q 4678 3603 4691 3865 
Q 4704 4128 4691 4307 
Q 4678 4397 4656 4419 
Q 4634 4442 4544 4442 
L 1254 4442 
Q 1222 4442 1190 4464 
Q 1158 4486 1158 4518 
L 1158 4749 
z
" transform="scale(0.015625)"/>
       <path id="NanumGothicCoding-440" d="M 3482 4198 
Q 3322 3264 2672 2531 
Q 2022 1798 890 1325 
Q 851 1312 809 1312 
Q 768 1312 749 1363 
L 653 1574 
Q 627 1626 649 1658 
Q 672 1690 704 1702 
Q 1171 1894 1564 2156 
Q 1958 2419 2256 2726 
Q 2554 3034 2746 3379 
Q 2938 3725 3002 4090 
Q 3040 4269 2848 4269 
L 877 4269 
Q 800 4269 800 4352 
L 800 4576 
Q 800 4653 877 4653 
L 2995 4653 
Q 3302 4653 3411 4544 
Q 3520 4435 3482 4198 
z
M 5120 806 
Q 5120 717 5030 717 
L 4768 717 
Q 4678 717 4678 806 
L 4678 4915 
Q 4678 5005 4768 5005 
L 5030 5005 
Q 5120 5005 5120 4915 
L 5120 3066 
L 6003 3066 
Q 6042 3066 6070 3043 
Q 6099 3021 6099 2982 
L 6099 2765 
Q 6099 2733 6070 2707 
Q 6042 2682 6003 2682 
L 5120 2682 
L 5120 806 
z
M 5408 -704 
Q 5408 -742 5376 -761 
Q 5344 -781 5312 -781 
L 2054 -781 
Q 1754 -781 1661 -669 
Q 1568 -557 1568 -294 
L 1568 934 
Q 1568 1024 1658 1024 
L 1920 1024 
Q 2010 1024 2010 934 
L 2010 -262 
Q 2010 -352 2038 -374 
Q 2067 -397 2157 -397 
L 5312 -397 
Q 5344 -397 5376 -419 
Q 5408 -442 5408 -474 
L 5408 -704 
z
" transform="scale(0.015625)"/>
      </defs>
      <use xlink:href="#NanumGothicCoding-776"/>
      <use xlink:href="#NanumGothicCoding-a78" transform="translate(100 0)"/>
      <use xlink:href="#NanumGothicCoding-4b3" transform="translate(200 0)"/>
      <use xlink:href="#NanumGothicCoding-440" transform="translate(300 0)"/>
     </g>
    </g>
   </g>
   <g id="matplotlib.axis_2">
    <g id="ytick_1">
     <g id="line2d_1">
      <path d="M 49.2 361.492507 
L 635.1 361.492507 
" clip-path="url(#pba1f998481)" style="fill: none; stroke: #e6e8f0; stroke-width: 0.8; stroke-linecap: round"/>
     </g>
     <g id="text_7">
      <!-- 0 -->
      <g style="fill: #262626" transform="translate(34.2 365.892507) scale(0.11 -0.11)">
       <use xlink:href="#NanumGothicCoding-11"/>
      </g>
     </g>
    </g>
    <g id="ytick_2">
     <g id="line2d_2">
      <path d="M 49.2 319.774226 
L 635.1 319.774226 
" clip-path="url(#pba1f998481)" style="fill: none; stroke: #e6e8f0; stroke-width: 0.8; stroke-linecap: round"/>
     </g>
     <g id="text_8">
      <!-- 20 -->
      <g style="fill: #262626" transform="translate(28.7 324.174226) scale(0.11 -0.11)">
       <use xlink:href="#NanumGothicCoding-13"/>
       <use xlink:href="#NanumGothicCoding-11" transform="translate(50 0)"/>
      </g>
     </g>
    </g>
    <g id="ytick_3">
     <g id="line2d_3">
      <path d="M 49.2 278.055944 
L 635.1 278.055944 
" clip-path="url(#pba1f998481)" style="fill: none; stroke: #e6e8f0; stroke-width: 0.8; stroke-linecap: round"/>
     </g>
     <g id="text_9">
      <!-- 40 -->
      <g style="fill: #262626" transform="translate(28.7 282.455944) scale(0.11 -0.11)">
       <use xlink:href="#NanumGothicCoding-15"/>
       <use xlink:href="#NanumGothicCoding-11" transform="translate(50 0)"/>
      </g>
     </g>
    </g>
    <g id="ytick_4">
     <g id="line2d_4">
      <path d="M 49.2 236.337662 
L 635.1 236.337662 
" clip-path="url(#pba1f998481)" style="fill: none; stroke: #e6e8f0; stroke-width: 0.8; stroke-linecap: round"/>
     </g>
     <g id="text_10">
      <!-- 60 -->
      <g style="fill: #262626" transform="translate(28.7 240.737662) scale(0.11 -0.11)">
       <use xlink:href="#NanumGothicCoding-17"/>
       <use xlink:href="#NanumGothicCoding-11" transform="translate(50 0)"/>
      </g>
     </g>
    </g>
    <g id="ytick_5">
     <g id="line2d_5">
      <path d="M 49.2 194.619381 
L 635.1 194.619381 
" clip-path="url(#pba1f998481)" style="fill: none; stroke: #e6e8f0; stroke-width: 0.8; stroke-linecap: round"/>
     </g>
     <g id="text_11">
      <!-- 80 -->
      <g style="fill: #262626" transform="translate(28.7 199.019381) scale(0.11 -0.11)">
       <use xlink:href="#NanumGothicCoding-19"/>
       <use xlink:href="#NanumGothicCoding-11" transform="translate(50 0)"/>
      </g>
     </g>
    </g>
    <g id="ytick_6">
     <g id="line2d_6">
      <path d="M 49.2 152.901099 
L 635.1 152.901099 
" clip-path="url(#pba1f998481)" style="fill: none; stroke: #e6e8f0; stroke-width: 0.8; stroke-linecap: round"/>
     </g>
     <g id="text_12">
      <!-- 100 -->
      <g style="fill: #262626" transform="translate(23.2 157.301099) scale(0.11 -0.11)">
       <use xlink:href="#NanumGothicCoding-12"/>
       <use xlink:href="#NanumGothicCoding-11" transform="translate(50 0)"/>
       <use xlink:href="#NanumGothicCoding-11" transform="translate(100 0)"/>
      </g>
     </g>
    </g>
    <g id="ytick_7">
     <g id="line2d_7">
      <path d="M 49.2 111.182817 
L 635.1 111.182817 
" clip-path="url(#pba1f998481)" style="fill: none; stroke: #e6e8f0; stroke-width: 0.8; stroke-linecap: round"/>
     </g>
     <g id="text_13">
      <!-- 120 -->
      <g style="fill: #262626" transform="translate(23.2 115.582817) scale(0.11 -0.11)">
       <use xlink:href="#NanumGothicCoding-12"/>
       <use xlink:href="#NanumGothicCoding-13" transform="translate(50 0)"/>
       <use xlink:href="#NanumGothicCoding-11" transform="translate(100 0)"/>
      </g>
     </g>
    </g>
    <g id="ytick_8">
     <g id="line2d_8">
      <path d="M 49.2 69.464535 
L 635.1 69.464535 
" clip-path="url(#pba1f998481)" style="fill: none; stroke: #e6e8f0; stroke-width: 0.8; stroke-linecap: round"/>
     </g>
     <g id="text_14">
      <!-- 140 -->
      <g style="fill: #262626" transform="translate(23.2 73.864535) scale(0.11 -0.11)">
       <use xlink:href="#NanumGothicCoding-12"/>
       <use xlink:href="#NanumGothicCoding-15" transform="translate(50 0)"/>
       <use xlink:href="#NanumGothicCoding-11" transform="translate(100 0)"/>
      </g>
     </g>
    </g>
    <g id="text_15">
     <!-- 거래금액(억원) -->
     <g style="fill: #1f2430" transform="translate(16.8 258) rotate(-90) scale(0.12 -0.12)">
      <defs>
       <path id="NanumGothicCoding-462" d="M 4902 2701 
L 4902 4915 
Q 4902 5005 4992 5005 
L 5254 5005 
Q 5344 5005 5344 4915 
L 5344 -806 
Q 5344 -896 5254 -896 
L 4992 -896 
Q 4902 -896 4902 -806 
L 4902 2317 
L 3590 2317 
Q 3507 2317 3507 2394 
L 3507 2624 
Q 3507 2701 3590 2701 
L 4902 2701 
z
M 3584 4064 
Q 3552 3514 3366 2982 
Q 3181 2451 2851 1968 
Q 2522 1485 2058 1072 
Q 1594 659 1005 346 
Q 922 301 883 365 
L 742 589 
Q 698 666 768 698 
Q 1312 979 1731 1340 
Q 2150 1702 2448 2124 
Q 2746 2547 2918 3014 
Q 3091 3482 3136 3974 
Q 3149 4070 3110 4105 
Q 3072 4141 2982 4141 
L 947 4141 
Q 870 4141 870 4224 
L 870 4448 
Q 870 4525 947 4525 
L 3104 4525 
Q 3405 4525 3501 4413 
Q 3597 4301 3584 4064 
z
" transform="scale(0.015625)"/>
       <path id="NanumGothicCoding-6d0" d="M 4320 2586 
L 5133 2586 
L 5133 4915 
Q 5133 5005 5222 5005 
L 5466 5005 
Q 5555 5005 5555 4915 
L 5555 -806 
Q 5555 -896 5466 -896 
L 5222 -896 
Q 5133 -896 5133 -806 
L 5133 2202 
L 4320 2202 
L 4320 -563 
Q 4320 -653 4230 -653 
L 3987 -653 
Q 3898 -653 3898 -563 
L 3898 4806 
Q 3898 4896 3987 4896 
L 4230 4896 
Q 4320 4896 4320 4806 
L 4320 2586 
z
M 1165 608 
Q 877 621 777 726 
Q 678 832 678 1101 
L 678 2323 
Q 678 2592 790 2685 
Q 902 2778 1190 2778 
L 2419 2778 
Q 2509 2778 2534 2803 
Q 2560 2829 2560 2925 
L 2560 3949 
Q 2560 4045 2537 4070 
Q 2515 4096 2426 4096 
L 794 4096 
Q 762 4096 733 4115 
Q 704 4134 704 4166 
L 704 4410 
Q 704 4442 733 4461 
Q 762 4480 794 4480 
L 2496 4480 
Q 2650 4480 2746 4457 
Q 2842 4435 2899 4384 
Q 2957 4333 2979 4240 
Q 3002 4147 3002 4013 
L 3002 2848 
Q 3002 2579 2890 2486 
Q 2778 2394 2490 2394 
L 1254 2394 
Q 1165 2394 1142 2368 
Q 1120 2342 1120 2246 
L 1120 1133 
Q 1120 986 1261 986 
Q 1766 973 2316 1033 
Q 2867 1094 3424 1222 
Q 3514 1242 3533 1158 
L 3571 947 
Q 3584 864 3488 838 
Q 2938 710 2352 649 
Q 1766 589 1165 608 
z
" transform="scale(0.015625)"/>
       <path id="NanumGothicCoding-4d8" d="M 1267 858 
Q 1267 1126 1369 1219 
Q 1472 1312 1754 1312 
L 4634 1312 
Q 4787 1312 4880 1293 
Q 4973 1274 5027 1222 
Q 5082 1171 5101 1081 
Q 5120 992 5120 858 
L 5120 -390 
Q 5120 -659 5017 -752 
Q 4915 -845 4634 -845 
L 1754 -845 
Q 1600 -845 1507 -825 
Q 1414 -806 1360 -752 
Q 1306 -698 1286 -611 
Q 1267 -525 1267 -390 
L 1267 858 
z
M 4698 4326 
Q 4698 4422 4666 4457 
Q 4634 4493 4544 4493 
L 1331 4493 
Q 1248 4493 1248 4576 
L 1248 4794 
Q 1248 4877 1331 4877 
L 4640 4877 
Q 4941 4877 5037 4771 
Q 5133 4666 5133 4390 
Q 5133 4198 5120 3968 
Q 5107 3738 5081 3501 
Q 5056 3264 5021 3037 
Q 4986 2810 4941 2624 
L 5920 2624 
Q 5952 2624 5984 2601 
Q 6016 2579 6016 2541 
L 6016 2323 
Q 6016 2291 5984 2265 
Q 5952 2240 5920 2240 
L 480 2240 
Q 442 2240 413 2265 
Q 384 2291 384 2323 
L 384 2541 
Q 384 2579 413 2601 
Q 442 2624 480 2624 
L 4531 2624 
Q 4570 2810 4602 3030 
Q 4634 3251 4656 3478 
Q 4678 3706 4688 3923 
Q 4698 4141 4698 4326 
z
M 1862 928 
Q 1773 928 1741 893 
Q 1709 858 1709 762 
L 1709 -294 
Q 1709 -390 1741 -425 
Q 1773 -461 1862 -461 
L 4525 -461 
Q 4614 -461 4646 -425 
Q 4678 -390 4678 -294 
L 4678 762 
Q 4678 858 4646 893 
Q 4614 928 4525 928 
L 1862 928 
z
" transform="scale(0.015625)"/>
       <path id="NanumGothicCoding-998" d="M 1914 4749 
Q 2144 4749 2377 4665 
Q 2611 4582 2796 4403 
Q 2982 4224 3097 3945 
Q 3213 3667 3213 3283 
Q 3213 2906 3097 2627 
Q 2982 2349 2793 2166 
Q 2605 1984 2371 1897 
Q 2138 1811 1907 1811 
Q 1677 1811 1449 1897 
Q 1222 1984 1043 2166 
Q 864 2349 755 2627 
Q 646 2906 646 3290 
Q 646 3674 758 3949 
Q 870 4224 1049 4403 
Q 1229 4582 1456 4665 
Q 1683 4749 1914 4749 
z
M 4320 3405 
L 5133 3405 
L 5133 4915 
Q 5133 5005 5222 5005 
L 5466 5005 
Q 5555 5005 5555 4915 
L 5555 1645 
Q 5555 1555 5466 1555 
L 5222 1555 
Q 5133 1555 5133 1645 
L 5133 3021 
L 4320 3021 
L 4320 1728 
Q 4320 1638 4230 1638 
L 3987 1638 
Q 3898 1638 3898 1728 
L 3898 4806 
Q 3898 4896 3987 4896 
L 4230 4896 
Q 4320 4896 4320 4806 
L 4320 3405 
z
M 2771 3290 
Q 2771 3539 2704 3737 
Q 2637 3936 2521 4073 
Q 2406 4211 2246 4284 
Q 2086 4358 1907 4358 
Q 1517 4358 1302 4067 
Q 1088 3776 1088 3290 
Q 1088 2797 1312 2499 
Q 1536 2202 1907 2202 
Q 2086 2202 2246 2278 
Q 2406 2355 2521 2496 
Q 2637 2637 2704 2838 
Q 2771 3040 2771 3290 
z
M 1632 1114 
Q 1632 1152 1664 1171 
Q 1696 1190 1728 1190 
L 5069 1190 
Q 5370 1190 5462 1078 
Q 5555 966 5555 704 
L 5555 -832 
Q 5555 -922 5466 -922 
L 5203 -922 
Q 5114 -922 5114 -832 
L 5114 672 
Q 5114 762 5085 784 
Q 5056 806 4966 806 
L 1728 806 
Q 1696 806 1664 828 
Q 1632 851 1632 883 
L 1632 1114 
z
" transform="scale(0.015625)"/>
       <path id="NanumGothicCoding-9" d="M 2106 -915 
Q 2061 -915 2051 -915 
Q 2042 -915 2016 -883 
Q 1434 -205 1152 492 
Q 870 1190 870 1933 
Q 870 2669 1152 3366 
Q 1434 4064 2016 4749 
Q 2042 4781 2051 4781 
Q 2061 4781 2093 4781 
L 2272 4781 
Q 2310 4781 2310 4777 
Q 2310 4774 2291 4742 
Q 1286 3277 1286 1933 
Q 1286 1248 1542 550 
Q 1798 -147 2298 -877 
Q 2330 -915 2266 -915 
L 2106 -915 
z
" transform="scale(0.015625)"/>
       <path id="NanumGothicCoding-9b0" d="M 5344 1638 
Q 5344 1549 5254 1549 
L 4992 1549 
Q 4902 1549 4902 1638 
L 4902 3142 
L 3802 3142 
Q 3770 2861 3638 2633 
Q 3507 2406 3305 2246 
Q 3104 2086 2841 1996 
Q 2579 1907 2278 1907 
Q 1965 1907 1689 2009 
Q 1414 2112 1209 2301 
Q 1005 2490 886 2749 
Q 768 3008 768 3328 
Q 768 3661 886 3926 
Q 1005 4192 1209 4374 
Q 1414 4557 1689 4656 
Q 1965 4755 2278 4755 
Q 2554 4755 2810 4672 
Q 3066 4589 3274 4432 
Q 3482 4275 3622 4048 
Q 3763 3821 3802 3526 
L 4902 3526 
L 4902 4915 
Q 4902 5005 4992 5005 
L 5254 5005 
Q 5344 5005 5344 4915 
L 5344 1638 
z
M 3366 3334 
Q 3366 3584 3276 3776 
Q 3187 3968 3036 4096 
Q 2886 4224 2691 4288 
Q 2496 4352 2278 4352 
Q 2054 4352 1862 4288 
Q 1670 4224 1526 4096 
Q 1382 3968 1299 3776 
Q 1216 3584 1216 3334 
Q 1216 3098 1296 2909 
Q 1376 2720 1517 2585 
Q 1658 2451 1853 2380 
Q 2048 2310 2278 2310 
Q 2496 2310 2691 2380 
Q 2886 2451 3036 2585 
Q 3187 2720 3276 2909 
Q 3366 3098 3366 3334 
z
M 1613 1165 
Q 1613 1203 1645 1222 
Q 1677 1242 1709 1242 
L 4858 1242 
Q 5158 1242 5251 1130 
Q 5344 1018 5344 755 
L 5344 -832 
Q 5344 -922 5254 -922 
L 4992 -922 
Q 4902 -922 4902 -832 
L 4902 723 
Q 4902 813 4873 835 
Q 4845 858 4755 858 
L 1709 858 
Q 1677 858 1645 880 
Q 1613 902 1613 934 
L 1613 1165 
z
" transform="scale(0.015625)"/>
       <path id="NanumGothicCoding-a17" d="M 3834 3699 
Q 3834 3456 3725 3245 
Q 3616 3034 3421 2877 
Q 3226 2720 2957 2627 
Q 2688 2534 2374 2534 
Q 2067 2534 1804 2624 
Q 1542 2714 1350 2874 
Q 1158 3034 1049 3245 
Q 941 3456 941 3699 
Q 941 3968 1049 4185 
Q 1158 4403 1350 4556 
Q 1542 4710 1804 4790 
Q 2067 4870 2374 4870 
Q 2669 4870 2931 4787 
Q 3194 4704 3395 4553 
Q 3597 4403 3715 4185 
Q 3834 3968 3834 3699 
z
M 4902 1434 
L 4902 4915 
Q 4902 5005 4992 5005 
L 5254 5005 
Q 5344 5005 5344 4915 
L 5344 339 
Q 5344 250 5254 250 
L 4992 250 
Q 4902 250 4902 339 
L 4902 1050 
L 3622 1050 
Q 3539 1050 3539 1126 
L 3539 1357 
Q 3539 1434 3622 1434 
L 4902 1434 
z
M 3411 3706 
Q 3411 3898 3328 4045 
Q 3245 4192 3104 4291 
Q 2963 4390 2774 4441 
Q 2586 4493 2374 4493 
Q 2157 4493 1971 4441 
Q 1786 4390 1651 4288 
Q 1517 4186 1440 4042 
Q 1363 3898 1363 3706 
Q 1363 3341 1641 3123 
Q 1920 2906 2374 2906 
Q 2586 2906 2774 2966 
Q 2963 3027 3104 3132 
Q 3245 3238 3328 3385 
Q 3411 3533 3411 3706 
z
M 2246 582 
Q 2214 582 2188 611 
Q 2163 640 2163 678 
L 2163 1709 
Q 1965 1696 1741 1689 
Q 1517 1683 1302 1676 
Q 1088 1670 899 1667 
Q 710 1664 582 1670 
Q 544 1670 515 1696 
Q 486 1722 486 1754 
L 486 1971 
Q 486 2010 515 2032 
Q 544 2054 582 2054 
Q 768 2054 1024 2057 
Q 1280 2061 1549 2067 
Q 1818 2074 2067 2083 
Q 2317 2093 2490 2106 
Q 2714 2118 2989 2144 
Q 3264 2170 3539 2202 
Q 3814 2234 4060 2269 
Q 4307 2304 4474 2336 
Q 4506 2342 4534 2326 
Q 4563 2310 4570 2285 
L 4602 2067 
Q 4608 1990 4525 1971 
Q 4115 1901 3606 1833 
Q 3098 1766 2605 1734 
L 2605 678 
Q 2605 640 2582 611 
Q 2560 582 2522 582 
L 2246 582 
z
M 5498 -704 
Q 5498 -742 5466 -761 
Q 5434 -781 5402 -781 
L 1920 -781 
Q 1619 -781 1526 -669 
Q 1434 -557 1434 -294 
L 1434 512 
Q 1434 602 1523 602 
L 1786 602 
Q 1875 602 1875 512 
L 1875 -262 
Q 1875 -352 1904 -374 
Q 1933 -397 2022 -397 
L 5402 -397 
Q 5434 -397 5466 -419 
Q 5498 -442 5498 -474 
L 5498 -704 
z
" transform="scale(0.015625)"/>
       <path id="NanumGothicCoding-a" d="M 928 -915 
Q 870 -915 902 -877 
Q 1402 -147 1654 550 
Q 1907 1248 1907 1933 
Q 1907 2611 1657 3312 
Q 1408 4013 909 4742 
Q 890 4774 890 4777 
Q 890 4781 922 4781 
L 1101 4781 
Q 1133 4781 1142 4781 
Q 1152 4781 1184 4749 
Q 1766 4064 2044 3366 
Q 2323 2669 2323 1933 
Q 2323 1190 2044 492 
Q 1766 -205 1184 -883 
Q 1152 -915 1142 -915 
Q 1133 -915 1088 -915 
L 928 -915 
z
" transform="scale(0.015625)"/>
      </defs>
      <use xlink:href="#NanumGothicCoding-462"/>
      <use xlink:href="#NanumGothicCoding-6d0" transform="translate(100 0)"/>
      <use xlink:href="#NanumGothicCoding-4d8" transform="translate(200 0)"/>
      <use xlink:href="#NanumGothicCoding-998" transform="translate(300 0)"/>
      <use xlink:href="#NanumGothicCoding-9" transform="translate(400 0)"/>
      <use xlink:href="#NanumGothicCoding-9b0" transform="translate(450 0)"/>
      <use xlink:href="#NanumGothicCoding-a17" transform="translate(550 0)"/>
      <use xlink:href="#NanumGothicCoding-a" transform="translate(650 0)"/>
     </g>
    </g>
   </g>
   <g id="patch_3">
    <path d="M 60.918 353.357443 
L 154.662 353.357443 
L 154.662 340.424775 
L 60.918 340.424775 
L 60.918 353.357443 
z
" clip-path="url(#pba1f998481)" style="fill: #f7dedb; stroke: #747474; stroke-linejoin: miter"/>
   </g>
   <g id="line2d_9">
    <path d="M 107.79 353.357443 
L 107.79 358.363636 
" clip-path="url(#pba1f998481)" style="fill: none; stroke: #747474"/>
   </g>
   <g id="line2d_10">
    <path d="M 107.79 340.424775 
L 107.79 332.081119 
" clip-path="url(#pba1f998481)" style="fill: none; stroke: #747474"/>
   </g>
   <g id="line2d_11">
    <path d="M 84.354 358.363636 
L 131.226 358.363636 
" clip-path="url(#pba1f998481)" style="fill: none; stroke: #747474; stroke-linecap: round"/>
   </g>
   <g id="line2d_12">
    <path d="M 84.354 332.081119 
L 131.226 332.081119 
" clip-path="url(#pba1f998481)" style="fill: none; stroke: #747474; stroke-linecap: round"/>
   </g>
   <g id="line2d_13"/>
   <g id="patch_4">
    <path d="M 178.098 334.375624 
L 271.842 334.375624 
L 271.842 318.731269 
L 178.098 318.731269 
L 178.098 334.375624 
z
" clip-path="url(#pba1f998481)" style="fill: #eec1cf; stroke: #747474; stroke-linejoin: miter"/>
   </g>
   <g id="line2d_14">
    <path d="M 224.97 334.375624 
L 224.97 353.357443 
" clip-path="url(#pba1f998481)" style="fill: none; stroke: #747474"/>
   </g>
   <g id="line2d_15">
    <path d="M 224.97 318.731269 
L 224.97 306.215784 
" clip-path="url(#pba1f998481)" style="fill: none; stroke: #747474"/>
   </g>
   <g id="line2d_16">
    <path d="M 201.534 353.357443 
L 248.406 353.357443 
" clip-path="url(#pba1f998481)" style="fill: none; stroke: #747474; stroke-linecap: round"/>
   </g>
   <g id="line2d_17">
    <path d="M 201.534 306.215784 
L 248.406 306.215784 
" clip-path="url(#pba1f998481)" style="fill: none; stroke: #747474; stroke-linecap: round"/>
   </g>
   <g id="line2d_18"/>
   <g id="patch_5">
    <path d="M 295.278 324.363237 
L 389.022 324.363237 
L 389.022 304.234166 
L 295.278 304.234166 
L 295.278 324.363237 
z
" clip-path="url(#pba1f998481)" style="fill: #e79cc8; stroke: #747474; stroke-linejoin: miter"/>
   </g>
   <g id="line2d_19">
    <path d="M 342.15 324.363237 
L 342.15 348.768432 
" clip-path="url(#pba1f998481)" style="fill: none; stroke: #747474"/>
   </g>
   <g id="line2d_20">
    <path d="M 342.15 304.234166 
L 342.15 274.927073 
" clip-path="url(#pba1f998481)" style="fill: none; stroke: #747474"/>
   </g>
   <g id="line2d_21">
    <path d="M 318.714 348.768432 
L 365.586 348.768432 
" clip-path="url(#pba1f998481)" style="fill: none; stroke: #747474; stroke-linecap: round"/>
   </g>
   <g id="line2d_22">
    <path d="M 318.714 274.927073 
L 365.586 274.927073 
" clip-path="url(#pba1f998481)" style="fill: none; stroke: #747474; stroke-linecap: round"/>
   </g>
   <g id="line2d_23">
    <defs>
     <path id="m3ac008f2cd" d="M 0 3 
C 0.795609 3 1.55874 2.683901 2.12132 2.12132 
C 2.683901 1.55874 3 0.795609 3 0 
C 3 -0.795609 2.683901 -1.55874 2.12132 -2.12132 
C 1.55874 -2.683901 0.795609 -3 0 -3 
C -0.795609 -3 -1.55874 -2.683901 -2.12132 -2.12132 
C -2.683901 -1.55874 -3 -0.795609 -3 0 
C -3 0.795609 -2.683901 1.55874 -2.12132 2.12132 
C -1.55874 2.683901 -0.795609 3 0 3 
z
" style="stroke: #747474"/>
    </defs>
    <g clip-path="url(#pba1f998481)">
     <use xlink:href="#m3ac008f2cd" x="342.15" y="261.368631" style="fill-opacity: 0; stroke: #747474"/>
     <use xlink:href="#m3ac008f2cd" x="342.15" y="265.54046" style="fill-opacity: 0; stroke: #747474"/>
     <use xlink:href="#m3ac008f2cd" x="342.15" y="263.454545" style="fill-opacity: 0; stroke: #747474"/>
     <use xlink:href="#m3ac008f2cd" x="342.15" y="271.798202" style="fill-opacity: 0; stroke: #747474"/>
     <use xlink:href="#m3ac008f2cd" x="342.15" y="261.41035" style="fill-opacity: 0; stroke: #747474"/>
     <use xlink:href="#m3ac008f2cd" x="342.15" y="269.712288" style="fill-opacity: 0; stroke: #747474"/>
     <use xlink:href="#m3ac008f2cd" x="342.15" y="263.454545" style="fill-opacity: 0; stroke: #747474"/>
     <use xlink:href="#m3ac008f2cd" x="342.15" y="263.454545" style="fill-opacity: 0; stroke: #747474"/>
     <use xlink:href="#m3ac008f2cd" x="342.15" y="271.798202" style="fill-opacity: 0; stroke: #747474"/>
     <use xlink:href="#m3ac008f2cd" x="342.15" y="269.712288" style="fill-opacity: 0; stroke: #747474"/>
     <use xlink:href="#m3ac008f2cd" x="342.15" y="263.454545" style="fill-opacity: 0; stroke: #747474"/>
     <use xlink:href="#m3ac008f2cd" x="342.15" y="269.712288" style="fill-opacity: 0; stroke: #747474"/>
     <use xlink:href="#m3ac008f2cd" x="342.15" y="269.712288" style="fill-opacity: 0; stroke: #747474"/>
     <use xlink:href="#m3ac008f2cd" x="342.15" y="268.043556" style="fill-opacity: 0; stroke: #747474"/>
     <use xlink:href="#m3ac008f2cd" x="342.15" y="268.043556" style="fill-opacity: 0; stroke: #747474"/>
     <use xlink:href="#m3ac008f2cd" x="342.15" y="273.884116" style="fill-opacity: 0; stroke: #747474"/>
     <use xlink:href="#m3ac008f2cd" x="342.15" y="272.841159" style="fill-opacity: 0; stroke: #747474"/>
     <use xlink:href="#m3ac008f2cd" x="342.15" y="272.841159" style="fill-opacity: 0; stroke: #747474"/>
    </g>
   </g>
   <g id="patch_6">
    <path d="M 412.458 316.645355 
L 506.202 316.645355 
L 506.202 284.574426 
L 412.458 284.574426 
L 412.458 316.645355 
z
" clip-path="url(#pba1f998481)" style="fill: #eec1cf; stroke: #747474; stroke-linejoin: miter"/>
   </g>
   <g id="line2d_24">
    <path d="M 459.33 316.645355 
L 459.33 347.0997 
" clip-path="url(#pba1f998481)" style="fill: none; stroke: #747474"/>
   </g>
   <g id="line2d_25">
    <path d="M 459.33 284.574426 
L 459.33 242.595405 
" clip-path="url(#pba1f998481)" style="fill: none; stroke: #747474"/>
   </g>
   <g id="line2d_26">
    <path d="M 435.894 347.0997 
L 482.766 347.0997 
" clip-path="url(#pba1f998481)" style="fill: none; stroke: #747474; stroke-linecap: round"/>
   </g>
   <g id="line2d_27">
    <path d="M 435.894 242.595405 
L 482.766 242.595405 
" clip-path="url(#pba1f998481)" style="fill: none; stroke: #747474; stroke-linecap: round"/>
   </g>
   <g id="line2d_28">
    <g clip-path="url(#pba1f998481)">
     <use xlink:href="#m3ac008f2cd" x="459.33" y="234.251748" style="fill-opacity: 0; stroke: #747474"/>
    </g>
   </g>
   <g id="patch_7">
    <path d="M 529.638 296.829171 
L 623.382 296.829171 
L 623.382 250.939061 
L 529.638 250.939061 
L 529.638 296.829171 
z
" clip-path="url(#pba1f998481)" style="fill: #f7dedb; stroke: #747474; stroke-linejoin: miter"/>
   </g>
   <g id="line2d_29">
    <path d="M 576.51 296.829171 
L 576.51 335.575025 
" clip-path="url(#pba1f998481)" style="fill: none; stroke: #747474"/>
   </g>
   <g id="line2d_30">
    <path d="M 576.51 250.939061 
L 576.51 182.103896 
" clip-path="url(#pba1f998481)" style="fill: none; stroke: #747474"/>
   </g>
   <g id="line2d_31">
    <path d="M 553.074 335.575025 
L 599.946 335.575025 
" clip-path="url(#pba1f998481)" style="fill: none; stroke: #747474; stroke-linecap: round"/>
   </g>
   <g id="line2d_32">
    <path d="M 553.074 182.103896 
L 599.946 182.103896 
" clip-path="url(#pba1f998481)" style="fill: none; stroke: #747474; stroke-linecap: round"/>
   </g>
   <g id="line2d_33">
    <g clip-path="url(#pba1f998481)">
     <use xlink:href="#m3ac008f2cd" x="576.51" y="179.392208" style="fill-opacity: 0; stroke: #747474"/>
     <use xlink:href="#m3ac008f2cd" x="576.51" y="73.636364" style="fill-opacity: 0; stroke: #747474"/>
     <use xlink:href="#m3ac008f2cd" x="576.51" y="175.846154" style="fill-opacity: 0; stroke: #747474"/>
     <use xlink:href="#m3ac008f2cd" x="576.51" y="147.894905" style="fill-opacity: 0; stroke: #747474"/>
     <use xlink:href="#m3ac008f2cd" x="576.51" y="173.76024" style="fill-opacity: 0; stroke: #747474"/>
     <use xlink:href="#m3ac008f2cd" x="576.51" y="173.76024" style="fill-opacity: 0; stroke: #747474"/>
     <use xlink:href="#m3ac008f2cd" x="576.51" y="121.612388" style="fill-opacity: 0; stroke: #747474"/>
     <use xlink:href="#m3ac008f2cd" x="576.51" y="152.901099" style="fill-opacity: 0; stroke: #747474"/>
     <use xlink:href="#m3ac008f2cd" x="576.51" y="175.846154" style="fill-opacity: 0; stroke: #747474"/>
     <use xlink:href="#m3ac008f2cd" x="576.51" y="121.612388" style="fill-opacity: 0; stroke: #747474"/>
     <use xlink:href="#m3ac008f2cd" x="576.51" y="146.643357" style="fill-opacity: 0; stroke: #747474"/>
     <use xlink:href="#m3ac008f2cd" x="576.51" y="173.76024" style="fill-opacity: 0; stroke: #747474"/>
    </g>
   </g>
   <g id="line2d_34">
    <path d="M 60.918 343.199041 
L 154.662 343.199041 
" clip-path="url(#pba1f998481)" style="fill: none; stroke: #747474"/>
   </g>
   <g id="line2d_35">
    <path d="M 178.098 327.024863 
L 271.842 327.024863 
" clip-path="url(#pba1f998481)" style="fill: none; stroke: #747474"/>
   </g>
   <g id="line2d_36">
    <path d="M 295.278 313.412188 
L 389.022 313.412188 
" clip-path="url(#pba1f998481)" style="fill: none; stroke: #747474"/>
   </g>
   <g id="line2d_37">
    <path d="M 412.458 301.000999 
L 506.202 301.000999 
" clip-path="url(#pba1f998481)" style="fill: none; stroke: #747474"/>
   </g>
   <g id="line2d_38">
    <path d="M 529.638 279.203197 
L 623.382 279.203197 
" clip-path="url(#pba1f998481)" style="fill: none; stroke: #747474"/>
   </g>
   <g id="patch_8">
    <path d="M 49.2 372.6 
L 49.2 59.4 
" style="fill: none; stroke: #d7dbe7; stroke-width: 1.25; stroke-linejoin: miter; stroke-linecap: square"/>
   </g>
   <g id="patch_9">
    <path d="M 49.2 372.6 
L 635.1 372.6 
" style="fill: none; stroke: #d7dbe7; stroke-width: 1.25; stroke-linejoin: miter; stroke-linecap: square"/>
   </g>
  </g>
  <g id="text_16">
   <!-- 면적구간별 거래금액의 범위 비교 -->
   <g style="fill: #1f2430" transform="translate(49.2 18.366797) scale(0.13 -0.13)">
    <defs>
     <path id="NanumGothicCoding-7f9" d="M 1382 2106 
Q 1229 2106 1136 2125 
Q 1043 2144 992 2198 
Q 941 2253 921 2339 
Q 902 2426 902 2560 
L 902 4838 
Q 902 4870 928 4892 
Q 954 4915 986 4915 
L 1261 4915 
Q 1293 4915 1315 4889 
Q 1338 4864 1338 4838 
L 1338 3821 
L 3206 3821 
L 3206 4832 
Q 3206 4864 3228 4889 
Q 3251 4915 3283 4915 
L 3558 4915 
Q 3590 4915 3616 4892 
Q 3642 4870 3642 4838 
L 3642 4102 
L 4902 4102 
L 4902 4915 
Q 4902 5005 4992 5005 
L 5254 5005 
Q 5344 5005 5344 4915 
L 5344 1997 
Q 5344 1907 5254 1907 
L 4992 1907 
Q 4902 1907 4902 1997 
L 4902 2688 
L 3642 2688 
L 3642 2515 
Q 3642 2272 3539 2189 
Q 3437 2106 3155 2106 
L 1382 2106 
z
M 5478 -838 
Q 5478 -870 5449 -892 
Q 5421 -915 5395 -915 
L 2170 -915 
Q 1869 -915 1776 -803 
Q 1683 -691 1683 -422 
L 1683 58 
Q 1683 326 1795 419 
Q 1907 512 2195 512 
L 4762 512 
Q 4851 512 4876 537 
Q 4902 563 4902 659 
L 4902 1024 
Q 4902 1120 4880 1145 
Q 4858 1171 4768 1171 
L 1760 1171 
Q 1728 1171 1699 1190 
Q 1670 1210 1670 1242 
L 1670 1472 
Q 1670 1504 1699 1523 
Q 1728 1542 1760 1542 
L 4838 1542 
Q 4992 1542 5088 1520 
Q 5184 1498 5241 1446 
Q 5299 1395 5321 1302 
Q 5344 1210 5344 1075 
L 5344 595 
Q 5344 326 5232 233 
Q 5120 141 4832 141 
L 2266 141 
Q 2176 141 2153 115 
Q 2131 90 2131 -6 
L 2131 -397 
Q 2131 -486 2156 -515 
Q 2182 -544 2272 -544 
L 5389 -544 
Q 5421 -544 5449 -563 
Q 5478 -582 5478 -614 
L 5478 -838 
z
M 1338 3443 
L 1338 2637 
Q 1338 2541 1370 2512 
Q 1402 2483 1491 2483 
L 3053 2483 
Q 3142 2483 3174 2512 
Q 3206 2541 3206 2637 
L 3206 3443 
L 1338 3443 
z
M 3642 3066 
L 4902 3066 
L 4902 3725 
L 3642 3725 
L 3642 3066 
z
" transform="scale(0.015625)"/>
     <path id="NanumGothicCoding-a44" d="M 5344 -806 
Q 5344 -896 5254 -896 
L 4992 -896 
Q 4902 -896 4902 -806 
L 4902 4915 
Q 4902 5005 4992 5005 
L 5254 5005 
Q 5344 5005 5344 4915 
L 5344 -806 
z
M 3885 3187 
Q 3885 2867 3769 2601 
Q 3654 2336 3449 2144 
Q 3245 1952 2963 1846 
Q 2682 1741 2349 1741 
Q 2022 1741 1747 1846 
Q 1472 1952 1270 2144 
Q 1069 2336 953 2601 
Q 838 2867 838 3187 
Q 838 3526 953 3795 
Q 1069 4064 1270 4253 
Q 1472 4442 1747 4541 
Q 2022 4640 2349 4640 
Q 2656 4640 2934 4541 
Q 3213 4442 3424 4253 
Q 3635 4064 3760 3795 
Q 3885 3526 3885 3187 
z
M 3437 3194 
Q 3437 3456 3350 3654 
Q 3264 3853 3113 3984 
Q 2963 4115 2764 4179 
Q 2566 4243 2349 4243 
Q 2118 4243 1926 4176 
Q 1734 4109 1590 3977 
Q 1446 3846 1366 3651 
Q 1286 3456 1286 3194 
Q 1286 2701 1577 2416 
Q 1869 2131 2349 2131 
Q 2566 2131 2764 2204 
Q 2963 2278 3113 2412 
Q 3264 2547 3350 2745 
Q 3437 2944 3437 3194 
z
M 4486 1069 
Q 4518 1075 4547 1059 
Q 4576 1043 4582 1018 
L 4614 800 
Q 4621 723 4538 704 
Q 4326 666 4076 630 
Q 3827 595 3561 563 
Q 3296 531 3027 505 
Q 2758 480 2502 461 
Q 2304 448 2038 435 
Q 1773 422 1497 412 
Q 1222 403 972 400 
Q 723 397 563 403 
Q 525 403 496 428 
Q 467 454 467 486 
L 467 704 
Q 467 742 496 764 
Q 525 787 563 787 
Q 749 787 1008 790 
Q 1267 794 1539 800 
Q 1811 806 2064 816 
Q 2317 826 2490 838 
Q 2714 851 2992 876 
Q 3270 902 3545 934 
Q 3821 966 4070 1001 
Q 4320 1037 4486 1069 
z
" transform="scale(0.015625)"/>
     <path id="NanumGothicCoding-7e7" d="M 1382 1971 
Q 1229 1971 1136 1990 
Q 1043 2010 992 2064 
Q 941 2118 921 2204 
Q 902 2291 902 2426 
L 902 4730 
Q 902 4762 928 4784 
Q 954 4806 986 4806 
L 1261 4806 
Q 1293 4806 1315 4780 
Q 1338 4755 1338 4730 
L 1338 3731 
L 3200 3731 
L 3200 4723 
Q 3200 4755 3222 4780 
Q 3245 4806 3277 4806 
L 3552 4806 
Q 3584 4806 3609 4784 
Q 3635 4762 3635 4730 
L 3635 3520 
L 4902 3520 
L 4902 4915 
Q 4902 5005 4992 5005 
L 5254 5005 
Q 5344 5005 5344 4915 
L 5344 1728 
Q 5344 1638 5254 1638 
L 4992 1638 
Q 4902 1638 4902 1728 
L 4902 3136 
L 3635 3136 
L 3635 2381 
Q 3635 2138 3532 2054 
Q 3430 1971 3149 1971 
L 1382 1971 
z
M 1690 819 
Q 1690 1088 1792 1181 
Q 1894 1274 2176 1274 
L 4858 1274 
Q 5011 1274 5104 1254 
Q 5197 1235 5251 1184 
Q 5306 1133 5325 1043 
Q 5344 954 5344 819 
L 5344 -390 
Q 5344 -659 5241 -752 
Q 5139 -845 4858 -845 
L 2176 -845 
Q 2022 -845 1929 -825 
Q 1837 -806 1782 -752 
Q 1728 -698 1709 -611 
Q 1690 -525 1690 -390 
L 1690 819 
z
M 2285 890 
Q 2195 890 2163 854 
Q 2131 819 2131 723 
L 2131 -294 
Q 2131 -390 2163 -425 
Q 2195 -461 2285 -461 
L 4749 -461 
Q 4838 -461 4870 -425 
Q 4902 -390 4902 -294 
L 4902 723 
Q 4902 819 4870 854 
Q 4838 890 4749 890 
L 2285 890 
z
M 1338 3354 
L 1338 2502 
Q 1338 2406 1370 2377 
Q 1402 2349 1491 2349 
L 3046 2349 
Q 3136 2349 3168 2377 
Q 3200 2406 3200 2502 
L 3200 3354 
L 1338 3354 
z
" transform="scale(0.015625)"/>
     <path id="NanumGothicCoding-a24" d="M 3942 3494 
Q 3942 3245 3827 3024 
Q 3712 2803 3507 2636 
Q 3302 2470 3020 2371 
Q 2739 2272 2406 2272 
Q 2080 2272 1805 2368 
Q 1530 2464 1328 2633 
Q 1126 2803 1011 3024 
Q 896 3245 896 3494 
Q 896 3770 1011 3997 
Q 1126 4224 1328 4387 
Q 1530 4550 1805 4636 
Q 2080 4723 2406 4723 
Q 2714 4723 2992 4633 
Q 3270 4544 3481 4384 
Q 3693 4224 3817 3997 
Q 3942 3770 3942 3494 
z
M 3494 3501 
Q 3494 3699 3408 3852 
Q 3322 4006 3171 4112 
Q 3021 4218 2822 4272 
Q 2624 4326 2406 4326 
Q 2176 4326 1984 4268 
Q 1792 4211 1648 4105 
Q 1504 4000 1424 3846 
Q 1344 3693 1344 3501 
Q 1344 3315 1421 3161 
Q 1498 3008 1638 2896 
Q 1779 2784 1974 2723 
Q 2170 2662 2406 2662 
Q 2624 2662 2822 2726 
Q 3021 2790 3171 2902 
Q 3322 3014 3408 3168 
Q 3494 3322 3494 3501 
z
M 5344 -806 
Q 5344 -896 5254 -896 
L 4992 -896 
Q 4902 -896 4902 -806 
L 4902 4915 
Q 4902 5005 4992 5005 
L 5254 5005 
Q 5344 5005 5344 4915 
L 5344 -806 
z
M 4429 1773 
Q 4461 1779 4489 1763 
Q 4518 1747 4525 1722 
L 4557 1504 
Q 4563 1414 4480 1408 
Q 4064 1344 3603 1296 
Q 3142 1248 2682 1216 
L 2682 -691 
Q 2682 -730 2659 -758 
Q 2637 -787 2598 -787 
L 2323 -787 
Q 2291 -787 2265 -758 
Q 2240 -730 2240 -691 
L 2240 1197 
Q 2035 1184 1798 1177 
Q 1562 1171 1334 1164 
Q 1107 1158 902 1155 
Q 698 1152 563 1158 
Q 525 1158 496 1184 
Q 467 1210 467 1242 
L 467 1459 
Q 467 1498 496 1520 
Q 525 1542 563 1542 
Q 749 1542 1008 1545 
Q 1267 1549 1539 1555 
Q 1811 1562 2064 1571 
Q 2317 1581 2490 1587 
Q 2675 1594 2921 1613 
Q 3168 1632 3433 1657 
Q 3699 1683 3958 1712 
Q 4218 1741 4429 1773 
z
" transform="scale(0.015625)"/>
     <path id="NanumGothicCoding-83a" d="M 5350 -806 
Q 5350 -896 5261 -896 
L 4998 -896 
Q 4909 -896 4909 -806 
L 4909 4915 
Q 4909 5005 4998 5005 
L 5261 5005 
Q 5350 5005 5350 4915 
L 5350 -806 
z
M 1370 781 
Q 1216 781 1123 800 
Q 1030 819 979 873 
Q 928 928 909 1014 
Q 890 1101 890 1235 
L 890 4602 
Q 890 4634 915 4656 
Q 941 4678 973 4678 
L 1248 4678 
Q 1280 4678 1302 4652 
Q 1325 4627 1325 4602 
L 1325 3117 
L 3309 3117 
L 3309 4595 
Q 3309 4627 3331 4652 
Q 3354 4678 3386 4678 
L 3661 4678 
Q 3693 4678 3718 4656 
Q 3744 4634 3744 4602 
L 3744 1190 
Q 3744 947 3641 864 
Q 3539 781 3258 781 
L 1370 781 
z
M 1325 2739 
L 1325 1312 
Q 1325 1216 1357 1187 
Q 1389 1158 1478 1158 
L 3155 1158 
Q 3245 1158 3277 1187 
Q 3309 1216 3309 1312 
L 3309 2739 
L 1325 2739 
z
" transform="scale(0.015625)"/>
     <path id="NanumGothicCoding-4ae" d="M 5920 499 
Q 5952 499 5984 476 
Q 6016 454 6016 416 
L 6016 198 
Q 6016 166 5984 140 
Q 5952 115 5920 115 
L 480 115 
Q 442 115 413 140 
Q 384 166 384 198 
L 384 416 
Q 384 454 413 476 
Q 442 499 480 499 
L 2010 499 
L 2010 2464 
Q 2010 2502 2032 2531 
Q 2054 2560 2093 2560 
L 2368 2560 
Q 2400 2560 2425 2531 
Q 2451 2502 2451 2464 
L 2451 499 
L 3418 499 
L 3418 2464 
Q 3418 2502 3440 2531 
Q 3462 2560 3501 2560 
L 3776 2560 
Q 3808 2560 3833 2531 
Q 3859 2502 3859 2464 
L 3859 499 
L 5920 499 
z
M 1171 4499 
Q 1171 4538 1203 4557 
Q 1235 4576 1267 4576 
L 4717 4576 
Q 4870 4576 4963 4544 
Q 5056 4512 5107 4451 
Q 5158 4390 5177 4294 
Q 5197 4198 5203 4064 
Q 5216 3757 5209 3408 
Q 5203 3059 5180 2707 
Q 5158 2355 5120 2019 
Q 5082 1683 5030 1402 
Q 5011 1293 4934 1306 
L 4678 1325 
Q 4570 1331 4602 1440 
Q 4653 1664 4691 2009 
Q 4730 2355 4752 2726 
Q 4774 3098 4780 3453 
Q 4787 3808 4768 4058 
Q 4762 4147 4736 4169 
Q 4710 4192 4621 4192 
L 1267 4192 
Q 1235 4192 1203 4214 
Q 1171 4237 1171 4269 
L 1171 4499 
z
" transform="scale(0.015625)"/>
    </defs>
    <use xlink:href="#NanumGothicCoding-776"/>
    <use xlink:href="#NanumGothicCoding-a78" transform="translate(100 0)"/>
    <use xlink:href="#NanumGothicCoding-4b3" transform="translate(200 0)"/>
    <use xlink:href="#NanumGothicCoding-440" transform="translate(300 0)"/>
    <use xlink:href="#NanumGothicCoding-7f9" transform="translate(400 0)"/>
    <use xlink:href="#NanumGothicCoding-1" transform="translate(500 0)"/>
    <use xlink:href="#NanumGothicCoding-462" transform="translate(550 0)"/>
    <use xlink:href="#NanumGothicCoding-6d0" transform="translate(650 0)"/>
    <use xlink:href="#NanumGothicCoding-4d8" transform="translate(750 0)"/>
    <use xlink:href="#NanumGothicCoding-998" transform="translate(850 0)"/>
    <use xlink:href="#NanumGothicCoding-a44" transform="translate(950 0)"/>
    <use xlink:href="#NanumGothicCoding-1" transform="translate(1050 0)"/>
    <use xlink:href="#NanumGothicCoding-7e7" transform="translate(1100 0)"/>
    <use xlink:href="#NanumGothicCoding-a24" transform="translate(1200 0)"/>
    <use xlink:href="#NanumGothicCoding-1" transform="translate(1300 0)"/>
    <use xlink:href="#NanumGothicCoding-83a" transform="translate(1350 0)"/>
    <use xlink:href="#NanumGothicCoding-4ae" transform="translate(1450 0)"/>
   </g>
  </g>
  <g id="text_17">
   <!-- 2024년 강남구 실거래 기준, 박스플롯은 중앙값·분산·이상치를 함께 확인하는 차트다. -->
   <g style="fill: #6f768a" transform="translate(49.2 38.114719) scale(0.09 -0.09)">
    <defs>
     <path id="NanumGothicCoding-599" d="M 4902 4205 
L 4902 4915 
Q 4902 5005 4992 5005 
L 5254 5005 
Q 5344 5005 5344 4915 
L 5344 787 
Q 5344 698 5254 698 
L 4992 698 
Q 4902 698 4902 787 
L 4902 2726 
L 3302 2726 
Q 3219 2726 3219 2803 
L 3219 3027 
Q 3219 3104 3302 3104 
L 4902 3104 
L 4902 3827 
L 3302 3827 
Q 3219 3827 3219 3904 
L 3219 4128 
Q 3219 4205 3302 4205 
L 4902 4205 
z
M 1408 2227 
Q 1408 2131 1440 2099 
Q 1472 2067 1562 2061 
Q 1837 2048 2134 2051 
Q 2432 2054 2729 2067 
Q 3027 2080 3312 2109 
Q 3597 2138 3853 2182 
Q 3910 2195 3939 2179 
Q 3968 2163 3981 2106 
L 4000 1933 
Q 4006 1856 3974 1833 
Q 3942 1811 3917 1811 
Q 3661 1766 3350 1731 
Q 3040 1696 2713 1677 
Q 2387 1658 2067 1654 
Q 1747 1651 1472 1664 
Q 1184 1677 1075 1801 
Q 966 1926 966 2195 
L 966 4640 
Q 966 4730 1056 4730 
L 1318 4730 
Q 1408 4730 1408 4640 
L 1408 2227 
z
M 5542 -704 
Q 5542 -742 5510 -761 
Q 5478 -781 5446 -781 
L 2240 -781 
Q 1939 -781 1846 -669 
Q 1754 -557 1754 -294 
L 1754 915 
Q 1754 1005 1843 1005 
L 2106 1005 
Q 2195 1005 2195 915 
L 2195 -262 
Q 2195 -352 2224 -374 
Q 2253 -397 2342 -397 
L 5446 -397 
Q 5478 -397 5510 -419 
Q 5542 -442 5542 -474 
L 5542 -704 
z
" transform="scale(0.015625)"/>
     <path id="NanumGothicCoding-44a" d="M 5197 250 
Q 5197 -26 5049 -243 
Q 4902 -461 4649 -611 
Q 4397 -762 4061 -842 
Q 3725 -922 3341 -922 
Q 2925 -922 2585 -842 
Q 2246 -762 2003 -611 
Q 1760 -461 1625 -243 
Q 1491 -26 1491 250 
Q 1491 518 1625 732 
Q 1760 947 2003 1097 
Q 2246 1248 2585 1328 
Q 2925 1408 3341 1408 
Q 3725 1408 4061 1328 
Q 4397 1248 4649 1101 
Q 4902 954 5049 739 
Q 5197 525 5197 250 
z
M 4742 230 
Q 4742 422 4627 569 
Q 4512 717 4317 816 
Q 4122 915 3866 969 
Q 3610 1024 3334 1024 
Q 3027 1024 2771 969 
Q 2515 915 2332 816 
Q 2150 717 2048 569 
Q 1946 422 1946 230 
Q 1946 45 2048 -99 
Q 2150 -243 2332 -339 
Q 2515 -435 2771 -486 
Q 3027 -538 3334 -538 
Q 3610 -538 3866 -486 
Q 4122 -435 4317 -339 
Q 4512 -243 4627 -99 
Q 4742 45 4742 230 
z
M 3482 4269 
Q 3334 3379 2707 2700 
Q 2080 2022 890 1523 
Q 826 1491 797 1504 
Q 768 1517 749 1562 
L 653 1773 
Q 627 1824 649 1856 
Q 672 1888 704 1901 
Q 1722 2323 2301 2902 
Q 2880 3482 3002 4154 
Q 3040 4339 2848 4339 
L 877 4339 
Q 800 4339 800 4422 
L 800 4646 
Q 800 4723 877 4723 
L 2995 4723 
Q 3302 4723 3411 4614 
Q 3520 4506 3482 4269 
z
M 5120 1530 
Q 5120 1440 5030 1440 
L 4768 1440 
Q 4678 1440 4678 1530 
L 4678 4915 
Q 4678 5005 4768 5005 
L 5030 5005 
Q 5120 5005 5120 4915 
L 5120 3386 
L 6003 3386 
Q 6042 3386 6070 3363 
Q 6099 3341 6099 3302 
L 6099 3085 
Q 6099 3053 6070 3027 
Q 6042 3002 6003 3002 
L 5120 3002 
L 5120 1530 
z
" transform="scale(0.015625)"/>
     <path id="NanumGothicCoding-569" d="M 1466 819 
Q 1466 1088 1568 1181 
Q 1670 1274 1952 1274 
L 4634 1274 
Q 4787 1274 4880 1254 
Q 4973 1235 5027 1184 
Q 5082 1133 5101 1043 
Q 5120 954 5120 819 
L 5120 -390 
Q 5120 -659 5017 -752 
Q 4915 -845 4634 -845 
L 1952 -845 
Q 1798 -845 1705 -825 
Q 1613 -806 1558 -752 
Q 1504 -698 1485 -611 
Q 1466 -525 1466 -390 
L 1466 819 
z
M 2061 890 
Q 1971 890 1939 854 
Q 1907 819 1907 723 
L 1907 -294 
Q 1907 -390 1939 -425 
Q 1971 -461 2061 -461 
L 4525 -461 
Q 4614 -461 4646 -425 
Q 4678 -390 4678 -294 
L 4678 723 
Q 4678 819 4646 854 
Q 4614 890 4525 890 
L 2061 890 
z
M 1408 2611 
Q 1408 2515 1440 2483 
Q 1472 2451 1562 2445 
Q 2163 2426 2828 2477 
Q 3494 2528 4096 2643 
Q 4198 2662 4218 2573 
L 4250 2374 
Q 4256 2298 4166 2272 
Q 3923 2214 3590 2169 
Q 3258 2125 2893 2096 
Q 2528 2067 2157 2051 
Q 1786 2035 1472 2048 
Q 1184 2061 1075 2185 
Q 966 2310 966 2579 
L 966 4704 
Q 966 4794 1056 4794 
L 1318 4794 
Q 1408 4794 1408 4704 
L 1408 2611 
z
M 5120 1715 
Q 5120 1626 5030 1626 
L 4768 1626 
Q 4678 1626 4678 1715 
L 4678 4915 
Q 4678 5005 4768 5005 
L 5030 5005 
Q 5120 5005 5120 4915 
L 5120 3392 
L 6003 3392 
Q 6042 3392 6070 3369 
Q 6099 3347 6099 3309 
L 6099 3091 
Q 6099 3059 6070 3033 
Q 6042 3008 6003 3008 
L 5120 3008 
L 5120 1715 
z
" transform="scale(0.015625)"/>
     <path id="NanumGothicCoding-92a" d="M 5478 -838 
Q 5478 -870 5449 -892 
Q 5421 -915 5395 -915 
L 2176 -915 
Q 1875 -915 1782 -803 
Q 1690 -691 1690 -422 
L 1690 58 
Q 1690 326 1802 419 
Q 1914 512 2202 512 
L 4762 512 
Q 4851 512 4876 537 
Q 4902 563 4902 659 
L 4902 1024 
Q 4902 1120 4880 1145 
Q 4858 1171 4768 1171 
L 1766 1171 
Q 1734 1171 1705 1190 
Q 1677 1210 1677 1242 
L 1677 1472 
Q 1677 1504 1705 1523 
Q 1734 1542 1766 1542 
L 4838 1542 
Q 4992 1542 5088 1520 
Q 5184 1498 5241 1446 
Q 5299 1395 5321 1302 
Q 5344 1210 5344 1075 
L 5344 595 
Q 5344 326 5232 233 
Q 5120 141 4832 141 
L 2266 141 
Q 2176 141 2153 115 
Q 2131 90 2131 -6 
L 2131 -397 
Q 2131 -486 2156 -515 
Q 2182 -544 2272 -544 
L 5389 -544 
Q 5421 -544 5449 -563 
Q 5478 -582 5478 -614 
L 5478 -838 
z
M 2547 4806 
Q 2541 4358 2432 3974 
Q 2515 3763 2662 3552 
Q 2810 3341 2998 3155 
Q 3187 2970 3408 2819 
Q 3629 2669 3859 2573 
Q 3898 2560 3898 2525 
Q 3898 2490 3885 2464 
L 3763 2246 
Q 3744 2208 3709 2205 
Q 3674 2202 3635 2214 
Q 3430 2304 3225 2441 
Q 3021 2579 2832 2748 
Q 2643 2918 2486 3100 
Q 2330 3283 2227 3462 
Q 2022 3078 1692 2742 
Q 1363 2406 883 2099 
Q 838 2067 809 2064 
Q 781 2061 749 2099 
L 589 2298 
Q 538 2368 621 2426 
Q 1018 2675 1299 2940 
Q 1581 3206 1757 3497 
Q 1933 3789 2016 4115 
Q 2099 4442 2099 4813 
Q 2099 4864 2124 4889 
Q 2150 4915 2176 4915 
L 2477 4896 
Q 2547 4896 2547 4806 
z
M 5344 2003 
Q 5344 1914 5254 1914 
L 4992 1914 
Q 4902 1914 4902 2003 
L 4902 4915 
Q 4902 5005 4992 5005 
L 5254 5005 
Q 5344 5005 5344 4915 
L 5344 2003 
z
" transform="scale(0.015625)"/>
     <path id="NanumGothicCoding-4dd" d="M 5344 -806 
Q 5344 -896 5254 -896 
L 4992 -896 
Q 4902 -896 4902 -806 
L 4902 4915 
Q 4902 5005 4992 5005 
L 5254 5005 
Q 5344 5005 5344 4915 
L 5344 -806 
z
M 3629 4064 
Q 3597 3514 3411 2982 
Q 3226 2451 2896 1968 
Q 2566 1485 2102 1072 
Q 1638 659 1050 346 
Q 966 301 928 365 
L 787 589 
Q 742 666 813 698 
Q 1357 979 1776 1340 
Q 2195 1702 2492 2124 
Q 2790 2547 2963 3014 
Q 3136 3482 3181 3974 
Q 3194 4070 3155 4105 
Q 3117 4141 3027 4141 
L 992 4141 
Q 915 4141 915 4224 
L 915 4448 
Q 915 4525 992 4525 
L 3149 4525 
Q 3450 4525 3546 4413 
Q 3642 4301 3629 4064 
z
" transform="scale(0.015625)"/>
     <path id="NanumGothicCoding-ab3" d="M 4685 4179 
Q 4499 4013 4268 3859 
Q 4038 3706 3770 3558 
Q 4192 3424 4653 3299 
Q 5114 3174 5523 3091 
Q 5606 3072 5581 3002 
L 5491 2790 
Q 5459 2720 5376 2739 
Q 5165 2778 4899 2842 
Q 4634 2906 4355 2982 
Q 4077 3059 3795 3145 
Q 3514 3232 3277 3315 
Q 2368 2906 1062 2598 
Q 1005 2586 979 2605 
Q 954 2624 941 2662 
L 883 2848 
Q 858 2938 928 2957 
Q 1453 3078 1933 3228 
Q 2413 3379 2832 3548 
Q 3251 3718 3600 3904 
Q 3949 4090 4198 4275 
Q 4301 4352 4278 4393 
Q 4256 4435 4166 4435 
L 1402 4435 
Q 1318 4435 1318 4518 
L 1318 4742 
Q 1318 4819 1402 4819 
L 4326 4819 
Q 4819 4819 4915 4643 
Q 5011 4467 4685 4179 
z
M 3104 339 
Q 3072 339 3046 368 
Q 3021 397 3021 435 
L 3021 1728 
L 480 1728 
Q 442 1728 413 1753 
Q 384 1779 384 1811 
L 384 2029 
Q 384 2067 413 2089 
Q 442 2112 480 2112 
L 5920 2112 
Q 5952 2112 5984 2089 
Q 6016 2067 6016 2029 
L 6016 1811 
Q 6016 1779 5984 1753 
Q 5952 1728 5920 1728 
L 3462 1728 
L 3462 435 
Q 3462 397 3440 368 
Q 3418 339 3379 339 
L 3104 339 
z
M 5325 -704 
Q 5325 -742 5293 -761 
Q 5261 -781 5229 -781 
L 1702 -781 
Q 1402 -781 1309 -656 
Q 1216 -531 1216 -269 
L 1216 1005 
Q 1216 1094 1306 1094 
L 1568 1094 
Q 1658 1094 1658 1005 
L 1658 -262 
Q 1658 -352 1686 -374 
Q 1715 -397 1805 -397 
L 5229 -397 
Q 5261 -397 5293 -419 
Q 5325 -442 5325 -474 
L 5325 -704 
z
" transform="scale(0.015625)"/>
     <path id="NanumGothicCoding-d" d="M 2157 179 
Q 2227 179 2240 147 
Q 2253 115 2221 77 
L 1318 -1184 
Q 1280 -1242 1254 -1258 
Q 1229 -1274 1178 -1274 
L 864 -1274 
Q 774 -1274 826 -1178 
L 1536 64 
Q 1562 102 1590 140 
Q 1619 179 1696 179 
L 2157 179 
z
" transform="scale(0.015625)"/>
     <path id="NanumGothicCoding-7c5" d="M 1350 1939 
Q 1197 1939 1104 1958 
Q 1011 1978 960 2032 
Q 909 2086 889 2172 
Q 870 2259 870 2394 
L 870 4698 
Q 870 4730 896 4752 
Q 922 4774 954 4774 
L 1229 4774 
Q 1261 4774 1283 4748 
Q 1306 4723 1306 4698 
L 1306 3699 
L 3168 3699 
L 3168 4691 
Q 3168 4723 3190 4748 
Q 3213 4774 3245 4774 
L 3520 4774 
Q 3552 4774 3577 4752 
Q 3603 4730 3603 4698 
L 3603 2349 
Q 3603 2106 3500 2022 
Q 3398 1939 3117 1939 
L 1350 1939 
z
M 1389 1165 
Q 1389 1203 1421 1222 
Q 1453 1242 1485 1242 
L 4634 1242 
Q 4934 1242 5027 1130 
Q 5120 1018 5120 755 
L 5120 -832 
Q 5120 -922 5030 -922 
L 4768 -922 
Q 4678 -922 4678 -832 
L 4678 723 
Q 4678 813 4649 835 
Q 4621 858 4531 858 
L 1485 858 
Q 1453 858 1421 880 
Q 1389 902 1389 934 
L 1389 1165 
z
M 5120 1690 
Q 5120 1600 5030 1600 
L 4768 1600 
Q 4678 1600 4678 1690 
L 4678 4915 
Q 4678 5005 4768 5005 
L 5030 5005 
Q 5120 5005 5120 4915 
L 5120 3328 
L 6003 3328 
Q 6042 3328 6070 3305 
Q 6099 3283 6099 3245 
L 6099 3027 
Q 6099 2995 6070 2969 
Q 6042 2944 6003 2944 
L 5120 2944 
L 5120 1690 
z
M 1306 3322 
L 1306 2470 
Q 1306 2374 1338 2345 
Q 1370 2317 1459 2317 
L 3014 2317 
Q 3104 2317 3136 2345 
Q 3168 2374 3168 2470 
L 3168 3322 
L 1306 3322 
z
" transform="scale(0.015625)"/>
     <path id="NanumGothicCoding-91d" d="M 3424 4608 
Q 3405 4429 3360 4269 
Q 3373 4198 3392 4137 
Q 3411 4077 3437 4032 
Q 3597 3718 3824 3436 
Q 4051 3155 4320 2924 
Q 4589 2694 4893 2524 
Q 5197 2355 5517 2266 
Q 5555 2253 5568 2214 
Q 5581 2176 5568 2144 
L 5466 1933 
Q 5446 1901 5424 1881 
Q 5402 1862 5338 1888 
Q 4986 2010 4662 2195 
Q 4339 2381 4060 2614 
Q 3782 2848 3552 3126 
Q 3322 3405 3155 3706 
Q 3008 3398 2790 3110 
Q 2573 2822 2304 2576 
Q 2035 2330 1721 2131 
Q 1408 1933 1062 1805 
Q 960 1766 934 1830 
L 819 2054 
Q 806 2086 816 2121 
Q 826 2157 864 2176 
Q 1293 2336 1657 2595 
Q 2022 2854 2300 3177 
Q 2579 3501 2755 3878 
Q 2931 4256 2982 4653 
Q 2989 4730 3066 4730 
L 3354 4698 
Q 3430 4685 3424 4608 
z
M 5920 499 
Q 5952 499 5984 476 
Q 6016 454 6016 416 
L 6016 198 
Q 6016 166 5984 140 
Q 5952 115 5920 115 
L 480 115 
Q 442 115 413 140 
Q 384 166 384 198 
L 384 416 
Q 384 454 413 476 
Q 442 499 480 499 
L 5920 499 
z
" transform="scale(0.015625)"/>
     <path id="NanumGothicCoding-cd2" d="M 5229 3072 
Q 5229 2989 5133 2989 
L 1190 2989 
Q 1158 2989 1129 3014 
Q 1101 3040 1101 3078 
L 1101 3277 
Q 1101 3315 1129 3340 
Q 1158 3366 1190 3366 
L 1978 3366 
L 1978 4614 
L 1318 4614 
Q 1286 4614 1257 4640 
Q 1229 4666 1229 4704 
L 1229 4902 
Q 1229 4941 1257 4966 
Q 1286 4992 1318 4992 
L 5005 4992 
Q 5101 4992 5101 4909 
L 5101 4698 
Q 5101 4614 5005 4614 
L 4378 4614 
L 4378 3366 
L 5133 3366 
Q 5229 3366 5229 3283 
L 5229 3072 
z
M 5248 -781 
Q 5248 -813 5219 -835 
Q 5190 -858 5165 -858 
L 1760 -858 
Q 1459 -858 1366 -746 
Q 1274 -634 1274 -365 
L 1274 70 
Q 1274 339 1386 432 
Q 1498 525 1786 525 
L 4538 525 
Q 4627 525 4652 550 
Q 4678 576 4678 672 
L 4678 1005 
Q 4678 1101 4656 1126 
Q 4634 1152 4544 1152 
L 1350 1152 
Q 1318 1152 1289 1171 
Q 1261 1190 1261 1222 
L 1261 1446 
Q 1261 1478 1289 1497 
Q 1318 1517 1350 1517 
L 4608 1517 
Q 4762 1517 4858 1494 
Q 4954 1472 5011 1421 
Q 5069 1370 5091 1277 
Q 5114 1184 5114 1050 
L 5114 614 
Q 5114 346 5002 253 
Q 4890 160 4602 160 
L 1843 160 
Q 1754 160 1731 134 
Q 1709 109 1709 13 
L 1709 -339 
Q 1709 -429 1734 -457 
Q 1760 -486 1850 -486 
L 5158 -486 
Q 5190 -486 5219 -505 
Q 5248 -525 5248 -557 
L 5248 -781 
z
M 5920 2419 
Q 5952 2419 5984 2396 
Q 6016 2374 6016 2336 
L 6016 2118 
Q 6016 2086 5984 2060 
Q 5952 2035 5920 2035 
L 480 2035 
Q 442 2035 413 2060 
Q 384 2086 384 2118 
L 384 2336 
Q 384 2374 413 2396 
Q 442 2419 480 2419 
L 5920 2419 
z
M 2413 3366 
L 3942 3366 
L 3942 4614 
L 2413 4614 
L 2413 3366 
z
" transform="scale(0.015625)"/>
     <path id="NanumGothicCoding-703" d="M 5203 2509 
Q 5203 2477 5174 2454 
Q 5146 2432 5120 2432 
L 3398 2432 
L 3398 1843 
L 5920 1843 
Q 5952 1843 5984 1820 
Q 6016 1798 6016 1760 
L 6016 1542 
Q 6016 1510 5984 1484 
Q 5952 1459 5920 1459 
L 480 1459 
Q 442 1459 413 1484 
Q 384 1510 384 1542 
L 384 1760 
Q 384 1798 413 1820 
Q 442 1843 480 1843 
L 2957 1843 
L 2957 2432 
L 1786 2432 
Q 1485 2432 1392 2544 
Q 1299 2656 1299 2925 
L 1299 3392 
Q 1299 3661 1411 3753 
Q 1523 3846 1811 3846 
L 4525 3846 
Q 4614 3846 4636 3868 
Q 4659 3891 4659 3994 
L 4659 4365 
Q 4659 4461 4636 4486 
Q 4614 4512 4525 4512 
L 1389 4512 
Q 1357 4512 1328 4531 
Q 1299 4550 1299 4582 
L 1299 4813 
Q 1299 4845 1328 4864 
Q 1357 4883 1389 4883 
L 4595 4883 
Q 4749 4883 4845 4860 
Q 4941 4838 4998 4787 
Q 5056 4736 5078 4643 
Q 5101 4550 5101 4416 
L 5101 3930 
Q 5101 3661 4989 3568 
Q 4877 3475 4589 3475 
L 1869 3475 
Q 1779 3475 1756 3452 
Q 1734 3430 1734 3328 
L 1734 2944 
Q 1734 2854 1760 2825 
Q 1786 2797 1875 2797 
L 5114 2797 
Q 5146 2797 5174 2777 
Q 5203 2758 5203 2726 
L 5203 2509 
z
M 3418 1075 
Q 3411 1037 3408 998 
Q 3405 960 3398 928 
Q 3437 774 3539 627 
Q 3674 422 3846 259 
Q 4019 96 4256 -45 
Q 4493 -186 4793 -298 
Q 5094 -410 5485 -506 
Q 5523 -518 5529 -550 
Q 5536 -582 5523 -614 
L 5421 -826 
Q 5408 -858 5385 -877 
Q 5363 -896 5299 -877 
Q 4506 -666 3984 -333 
Q 3462 0 3200 416 
Q 2938 -19 2413 -364 
Q 1888 -710 1146 -915 
Q 1043 -941 1018 -883 
L 928 -646 
Q 915 -614 924 -576 
Q 934 -538 979 -525 
Q 1446 -403 1817 -227 
Q 2189 -51 2441 160 
Q 2694 371 2832 608 
Q 2970 845 2982 1094 
Q 2982 1171 3059 1171 
L 3366 1165 
Q 3424 1165 3418 1075 
z
" transform="scale(0.015625)"/>
     <path id="NanumGothicCoding-a37" d="M 5920 2022 
Q 5952 2022 5984 2000 
Q 6016 1978 6016 1939 
L 6016 1722 
Q 6016 1690 5984 1664 
Q 5952 1638 5920 1638 
L 480 1638 
Q 442 1638 413 1664 
Q 384 1690 384 1722 
L 384 1939 
Q 384 1978 413 2000 
Q 442 2022 480 2022 
L 5920 2022 
z
M 3200 2624 
Q 2893 2624 2544 2681 
Q 2195 2739 1897 2873 
Q 1600 3008 1405 3229 
Q 1210 3450 1210 3776 
Q 1210 4122 1405 4342 
Q 1600 4563 1897 4691 
Q 2195 4819 2544 4867 
Q 2893 4915 3200 4915 
Q 3514 4915 3866 4857 
Q 4218 4800 4512 4669 
Q 4806 4538 4998 4320 
Q 5190 4102 5190 3776 
Q 5190 3450 4998 3229 
Q 4806 3008 4512 2873 
Q 4218 2739 3866 2681 
Q 3514 2624 3200 2624 
z
M 3200 4518 
Q 2995 4518 2732 4489 
Q 2470 4461 2240 4381 
Q 2010 4301 1850 4153 
Q 1690 4006 1690 3770 
Q 1690 3533 1850 3385 
Q 2010 3238 2240 3158 
Q 2470 3078 2732 3049 
Q 2995 3021 3200 3021 
Q 3405 3021 3667 3049 
Q 3930 3078 4160 3158 
Q 4390 3238 4550 3385 
Q 4710 3533 4710 3770 
Q 4710 4006 4550 4153 
Q 4390 4301 4160 4381 
Q 3930 4461 3667 4489 
Q 3405 4518 3200 4518 
z
M 5325 -704 
Q 5325 -742 5293 -761 
Q 5261 -781 5229 -781 
L 1754 -781 
Q 1453 -781 1360 -656 
Q 1267 -531 1267 -269 
L 1267 1037 
Q 1267 1126 1357 1126 
L 1619 1126 
Q 1709 1126 1709 1037 
L 1709 -262 
Q 1709 -352 1737 -374 
Q 1766 -397 1856 -397 
L 5229 -397 
Q 5261 -397 5293 -419 
Q 5325 -442 5325 -474 
L 5325 -704 
z
" transform="scale(0.015625)"/>
     <path id="NanumGothicCoding-aba" d="M 5920 2310 
Q 5952 2310 5984 2288 
Q 6016 2266 6016 2227 
L 6016 2010 
Q 6016 1978 5984 1952 
Q 5952 1926 5920 1926 
L 3411 1926 
L 3411 1146 
Q 3699 1133 4009 1078 
Q 4320 1024 4582 905 
Q 4845 787 5014 595 
Q 5184 403 5184 109 
Q 5184 -218 4979 -422 
Q 4774 -627 4473 -742 
Q 4173 -858 3824 -899 
Q 3475 -941 3187 -941 
Q 2995 -941 2774 -921 
Q 2554 -902 2333 -860 
Q 2112 -819 1907 -742 
Q 1702 -666 1545 -547 
Q 1389 -429 1293 -269 
Q 1197 -109 1197 109 
Q 1197 397 1366 592 
Q 1536 787 1798 905 
Q 2061 1024 2374 1078 
Q 2688 1133 2970 1146 
L 2970 1926 
L 480 1926 
Q 442 1926 413 1952 
Q 384 1978 384 2010 
L 384 2227 
Q 384 2266 413 2288 
Q 442 2310 480 2310 
L 5920 2310 
z
M 4685 4218 
Q 4352 3904 3782 3610 
Q 3962 3558 4182 3500 
Q 4403 3443 4633 3385 
Q 4864 3328 5094 3277 
Q 5325 3226 5523 3187 
Q 5606 3168 5581 3098 
L 5491 2886 
Q 5459 2816 5376 2835 
Q 5158 2874 4889 2938 
Q 4621 3002 4342 3075 
Q 4064 3149 3792 3225 
Q 3520 3302 3290 3379 
Q 2784 3168 2205 3005 
Q 1626 2842 1024 2739 
Q 966 2726 944 2748 
Q 922 2771 909 2810 
L 851 3002 
Q 826 3098 902 3104 
Q 1344 3174 1830 3308 
Q 2317 3443 2768 3609 
Q 3219 3776 3596 3958 
Q 3974 4141 4198 4307 
Q 4301 4384 4278 4429 
Q 4256 4474 4166 4474 
L 1402 4474 
Q 1318 4474 1318 4557 
L 1318 4781 
Q 1318 4858 1402 4858 
L 4326 4858 
Q 4819 4858 4908 4688 
Q 4998 4518 4685 4218 
z
M 4717 102 
Q 4717 314 4544 438 
Q 4371 563 4128 633 
Q 3885 704 3625 726 
Q 3366 749 3187 749 
Q 3002 749 2742 726 
Q 2483 704 2243 633 
Q 2003 563 1833 438 
Q 1664 314 1664 102 
Q 1664 -102 1833 -230 
Q 2003 -358 2243 -425 
Q 2483 -493 2742 -515 
Q 3002 -538 3187 -538 
Q 3366 -538 3628 -515 
Q 3891 -493 4131 -425 
Q 4371 -358 4544 -230 
Q 4717 -102 4717 102 
z
" transform="scale(0.015625)"/>
     <path id="NanumGothicCoding-994" d="M 3744 3328 
Q 3744 3008 3629 2742 
Q 3514 2477 3312 2285 
Q 3110 2093 2832 1984 
Q 2554 1875 2221 1875 
Q 1901 1875 1625 1980 
Q 1350 2086 1148 2278 
Q 947 2470 835 2739 
Q 723 3008 723 3328 
Q 723 3667 835 3939 
Q 947 4211 1148 4400 
Q 1350 4589 1625 4688 
Q 1901 4787 2221 4787 
Q 2528 4787 2803 4688 
Q 3078 4589 3286 4403 
Q 3494 4218 3619 3946 
Q 3744 3674 3744 3328 
z
M 5197 250 
Q 5197 -26 5049 -243 
Q 4902 -461 4649 -611 
Q 4397 -762 4061 -842 
Q 3725 -922 3341 -922 
Q 2925 -922 2585 -842 
Q 2246 -762 2003 -611 
Q 1760 -461 1625 -243 
Q 1491 -26 1491 250 
Q 1491 518 1625 732 
Q 1760 947 2003 1097 
Q 2246 1248 2585 1328 
Q 2925 1408 3341 1408 
Q 3725 1408 4061 1328 
Q 4397 1248 4649 1101 
Q 4902 954 5049 739 
Q 5197 525 5197 250 
z
M 3296 3334 
Q 3296 3590 3209 3785 
Q 3123 3981 2976 4112 
Q 2829 4243 2633 4310 
Q 2438 4378 2221 4378 
Q 1997 4378 1805 4310 
Q 1613 4243 1472 4112 
Q 1331 3981 1251 3785 
Q 1171 3590 1171 3334 
Q 1171 3091 1248 2899 
Q 1325 2707 1462 2566 
Q 1600 2426 1792 2352 
Q 1984 2278 2221 2278 
Q 2438 2278 2633 2352 
Q 2829 2426 2976 2566 
Q 3123 2707 3209 2899 
Q 3296 3091 3296 3334 
z
M 4742 230 
Q 4742 422 4627 569 
Q 4512 717 4317 816 
Q 4122 915 3866 969 
Q 3610 1024 3334 1024 
Q 3027 1024 2771 969 
Q 2515 915 2332 816 
Q 2150 717 2048 569 
Q 1946 422 1946 230 
Q 1946 45 2048 -99 
Q 2150 -243 2332 -339 
Q 2515 -435 2771 -486 
Q 3027 -538 3334 -538 
Q 3610 -538 3866 -486 
Q 4122 -435 4317 -339 
Q 4512 -243 4627 -99 
Q 4742 45 4742 230 
z
M 5120 1619 
Q 5120 1530 5030 1530 
L 4768 1530 
Q 4678 1530 4678 1619 
L 4678 4915 
Q 4678 5005 4768 5005 
L 5030 5005 
Q 5120 5005 5120 4915 
L 5120 3392 
L 6003 3392 
Q 6042 3392 6070 3369 
Q 6099 3347 6099 3309 
L 6099 3091 
Q 6099 3059 6070 3033 
Q 6042 3008 6003 3008 
L 5120 3008 
L 5120 1619 
z
" transform="scale(0.015625)"/>
     <path id="NanumGothicCoding-447" d="M 1811 -966 
Q 1658 -966 1565 -947 
Q 1472 -928 1421 -873 
Q 1370 -819 1350 -732 
Q 1331 -646 1331 -512 
L 1331 1286 
Q 1331 1318 1356 1337 
Q 1382 1357 1414 1357 
L 1664 1357 
Q 1696 1357 1718 1334 
Q 1741 1312 1741 1286 
L 1741 621 
L 2899 621 
L 2899 1254 
Q 2899 1286 2921 1312 
Q 2944 1338 2976 1338 
L 3226 1338 
Q 3258 1338 3283 1315 
Q 3309 1293 3309 1261 
L 3309 -557 
Q 3309 -800 3206 -883 
Q 3104 -966 2822 -966 
L 1811 -966 
z
M 3482 4314 
Q 3334 3443 2707 2796 
Q 2080 2150 890 1651 
Q 826 1619 797 1632 
Q 768 1645 749 1690 
L 653 1901 
Q 627 1952 649 1984 
Q 672 2016 704 2029 
Q 1747 2458 2300 2986 
Q 2854 3514 3002 4198 
Q 3040 4384 2848 4384 
L 877 4384 
Q 800 4384 800 4467 
L 800 4691 
Q 800 4768 877 4768 
L 2995 4768 
Q 3302 4768 3411 4659 
Q 3520 4550 3482 4314 
z
M 5690 -890 
Q 5299 -646 5049 -396 
Q 4800 -147 4659 160 
Q 4512 -147 4278 -412 
Q 4045 -678 3699 -947 
Q 3674 -960 3635 -966 
Q 3597 -973 3565 -941 
L 3392 -768 
Q 3328 -691 3418 -634 
Q 3942 -262 4201 195 
Q 4461 653 4448 1299 
Q 4448 1331 4467 1366 
Q 4486 1402 4525 1395 
L 4819 1389 
Q 4890 1389 4890 1306 
Q 4890 1158 4877 1024 
Q 4864 890 4845 762 
Q 4934 358 5206 32 
Q 5478 -294 5894 -525 
Q 5984 -570 5933 -653 
L 5811 -858 
Q 5779 -896 5756 -905 
Q 5734 -915 5690 -890 
z
M 5120 1901 
Q 5120 1811 5030 1811 
L 4768 1811 
Q 4678 1811 4678 1901 
L 4678 4915 
Q 4678 5005 4768 5005 
L 5030 5005 
Q 5120 5005 5120 4915 
L 5120 3565 
L 6003 3565 
Q 6042 3565 6070 3542 
Q 6099 3520 6099 3482 
L 6099 3264 
Q 6099 3232 6070 3206 
Q 6042 3181 6003 3181 
L 5120 3181 
L 5120 1901 
z
M 1741 230 
L 1741 -422 
Q 1741 -518 1773 -547 
Q 1805 -576 1894 -576 
L 2746 -576 
Q 2835 -576 2867 -547 
Q 2899 -518 2899 -422 
L 2899 230 
L 1741 230 
z
" transform="scale(0.015625)"/>
     <path id="NanumGothicCoding-68" d="M 3565 2125 
Q 3565 1965 3456 1862 
Q 3347 1760 3194 1760 
Q 3040 1760 2934 1862 
Q 2829 1965 2829 2125 
Q 2829 2278 2934 2387 
Q 3040 2496 3194 2496 
Q 3347 2496 3456 2387 
Q 3565 2278 3565 2125 
z
" transform="scale(0.015625)"/>
     <path id="NanumGothicCoding-819" d="M 1792 2637 
Q 1638 2637 1545 2656 
Q 1453 2675 1401 2729 
Q 1350 2784 1331 2870 
Q 1312 2957 1312 3091 
L 1312 4838 
Q 1312 4870 1337 4892 
Q 1363 4915 1395 4915 
L 1670 4915 
Q 1702 4915 1724 4889 
Q 1747 4864 1747 4838 
L 1747 4179 
L 4653 4179 
L 4653 4832 
Q 4653 4864 4675 4889 
Q 4698 4915 4730 4915 
L 5005 4915 
Q 5037 4915 5062 4892 
Q 5088 4870 5088 4838 
L 5088 3046 
Q 5088 2803 4985 2720 
Q 4883 2637 4602 2637 
L 1792 2637 
z
M 3104 262 
Q 3072 262 3046 291 
Q 3021 320 3021 358 
L 3021 1626 
L 480 1626 
Q 442 1626 413 1651 
Q 384 1677 384 1709 
L 384 1926 
Q 384 1965 413 1987 
Q 442 2010 480 2010 
L 5920 2010 
Q 5952 2010 5984 1987 
Q 6016 1965 6016 1926 
L 6016 1709 
Q 6016 1677 5984 1651 
Q 5952 1626 5920 1626 
L 3462 1626 
L 3462 358 
Q 3462 320 3440 291 
Q 3418 262 3379 262 
L 3104 262 
z
M 1747 3802 
L 1747 3168 
Q 1747 3072 1779 3043 
Q 1811 3014 1901 3014 
L 4499 3014 
Q 4589 3014 4621 3043 
Q 4653 3072 4653 3168 
L 4653 3802 
L 1747 3802 
z
M 5325 -704 
Q 5325 -742 5293 -761 
Q 5261 -781 5229 -781 
L 1702 -781 
Q 1402 -781 1309 -656 
Q 1216 -531 1216 -269 
L 1216 915 
Q 1216 1005 1306 1005 
L 1568 1005 
Q 1658 1005 1658 915 
L 1658 -262 
Q 1658 -352 1686 -374 
Q 1715 -397 1805 -397 
L 5229 -397 
Q 5261 -397 5293 -419 
Q 5325 -442 5325 -474 
L 5325 -704 
z
" transform="scale(0.015625)"/>
     <path id="NanumGothicCoding-891" d="M 2509 4710 
Q 2509 4461 2480 4224 
Q 2451 3987 2400 3763 
Q 2477 3501 2621 3241 
Q 2765 2982 2960 2748 
Q 3155 2515 3385 2326 
Q 3616 2138 3859 2022 
Q 3898 2003 3894 1971 
Q 3891 1939 3878 1907 
L 3750 1696 
Q 3731 1664 3705 1651 
Q 3680 1638 3622 1670 
Q 3437 1760 3235 1926 
Q 3034 2093 2838 2294 
Q 2643 2496 2476 2723 
Q 2310 2950 2202 3162 
Q 1984 2643 1629 2217 
Q 1274 1792 794 1478 
Q 762 1459 723 1452 
Q 685 1446 659 1478 
L 499 1690 
Q 480 1715 493 1753 
Q 506 1792 538 1811 
Q 883 2022 1168 2336 
Q 1453 2650 1654 3027 
Q 1856 3405 1961 3837 
Q 2067 4269 2061 4717 
Q 2061 4819 2138 4819 
L 2438 4800 
Q 2509 4800 2509 4710 
z
M 5120 832 
Q 5120 742 5030 742 
L 4768 742 
Q 4678 742 4678 832 
L 4678 4915 
Q 4678 5005 4768 5005 
L 5030 5005 
Q 5120 5005 5120 4915 
L 5120 3110 
L 6003 3110 
Q 6042 3110 6070 3088 
Q 6099 3066 6099 3027 
L 6099 2810 
Q 6099 2778 6070 2752 
Q 6042 2726 6003 2726 
L 5120 2726 
L 5120 832 
z
M 5408 -704 
Q 5408 -742 5376 -761 
Q 5344 -781 5312 -781 
L 2016 -781 
Q 1715 -781 1622 -669 
Q 1530 -557 1530 -294 
L 1530 960 
Q 1530 1050 1619 1050 
L 1882 1050 
Q 1971 1050 1971 960 
L 1971 -262 
Q 1971 -352 2000 -374 
Q 2029 -397 2118 -397 
L 5312 -397 
Q 5344 -397 5376 -419 
Q 5408 -442 5408 -474 
L 5408 -704 
z
" transform="scale(0.015625)"/>
     <path id="NanumGothicCoding-89a" d="M 1491 250 
Q 1491 518 1625 732 
Q 1760 947 2003 1097 
Q 2246 1248 2585 1328 
Q 2925 1408 3341 1408 
Q 3725 1408 4061 1328 
Q 4397 1248 4649 1101 
Q 4902 954 5049 739 
Q 5197 525 5197 250 
Q 5197 -26 5049 -243 
Q 4902 -461 4649 -611 
Q 4397 -762 4061 -842 
Q 3725 -922 3341 -922 
Q 2925 -922 2585 -842 
Q 2246 -762 2003 -611 
Q 1760 -461 1625 -243 
Q 1491 -26 1491 250 
z
M 1946 230 
Q 1946 45 2048 -99 
Q 2150 -243 2332 -339 
Q 2515 -435 2771 -486 
Q 3027 -538 3334 -538 
Q 3610 -538 3866 -486 
Q 4122 -435 4317 -339 
Q 4512 -243 4627 -99 
Q 4742 45 4742 230 
Q 4742 422 4627 569 
Q 4512 717 4317 816 
Q 4122 915 3866 969 
Q 3610 1024 3334 1024 
Q 3027 1024 2771 969 
Q 2515 915 2332 816 
Q 2150 717 2048 569 
Q 1946 422 1946 230 
z
M 2534 4774 
Q 2534 4307 2438 3904 
Q 2515 3635 2652 3392 
Q 2790 3149 2976 2937 
Q 3162 2726 3382 2556 
Q 3603 2387 3846 2272 
Q 3885 2253 3881 2217 
Q 3878 2182 3866 2157 
L 3731 1946 
Q 3712 1914 3686 1901 
Q 3661 1888 3603 1920 
Q 3456 1997 3267 2128 
Q 3078 2259 2886 2438 
Q 2694 2618 2521 2832 
Q 2349 3046 2234 3277 
Q 2022 2790 1664 2393 
Q 1306 1997 826 1683 
Q 794 1664 755 1657 
Q 717 1651 691 1683 
L 531 1894 
Q 512 1920 525 1958 
Q 538 1997 570 2016 
Q 1331 2483 1715 3193 
Q 2099 3904 2086 4781 
Q 2086 4883 2163 4883 
L 2464 4864 
Q 2534 4864 2534 4774 
z
M 5120 1530 
Q 5120 1440 5030 1440 
L 4768 1440 
Q 4678 1440 4678 1530 
L 4678 4915 
Q 4678 5005 4768 5005 
L 5030 5005 
Q 5120 5005 5120 4915 
L 5120 3373 
L 6003 3373 
Q 6042 3373 6070 3350 
Q 6099 3328 6099 3290 
L 6099 3072 
Q 6099 3040 6070 3014 
Q 6042 2989 6003 2989 
L 5120 2989 
L 5120 1530 
z
" transform="scale(0.015625)"/>
     <path id="NanumGothicCoding-b96" d="M 3475 3213 
Q 3366 2925 3209 2656 
Q 3053 2387 2848 2131 
Q 2970 1978 3130 1818 
Q 3290 1658 3456 1517 
Q 3622 1376 3792 1261 
Q 3962 1146 4115 1069 
Q 4186 1030 4141 954 
L 4019 742 
Q 3974 666 3891 717 
Q 3738 806 3565 931 
Q 3392 1056 3222 1203 
Q 3053 1350 2889 1510 
Q 2726 1670 2586 1830 
Q 2234 1453 1798 1139 
Q 1363 826 870 589 
Q 781 544 749 608 
L 627 819 
Q 608 851 624 886 
Q 640 922 672 934 
Q 1446 1306 2032 1862 
Q 2618 2419 2989 3187 
Q 3034 3277 3002 3315 
Q 2970 3354 2880 3354 
L 941 3354 
Q 864 3354 864 3437 
L 864 3661 
Q 864 3738 954 3738 
L 3053 3738 
Q 3386 3738 3485 3619 
Q 3584 3501 3475 3213 
z
M 5344 -806 
Q 5344 -896 5254 -896 
L 4992 -896 
Q 4902 -896 4902 -806 
L 4902 4915 
Q 4902 5005 4992 5005 
L 5254 5005 
Q 5344 5005 5344 4915 
L 5344 -806 
z
M 3046 4710 
Q 3142 4710 3142 4621 
L 3142 4416 
Q 3142 4320 3046 4320 
L 1466 4320 
Q 1370 4320 1370 4416 
L 1370 4621 
Q 1370 4710 1466 4710 
L 3046 4710 
z
" transform="scale(0.015625)"/>
     <path id="NanumGothicCoding-733" d="M 5920 2278 
Q 5952 2278 5984 2256 
Q 6016 2234 6016 2195 
L 6016 1978 
Q 6016 1946 5984 1920 
Q 5952 1894 5920 1894 
L 480 1894 
Q 442 1894 413 1920 
Q 384 1946 384 1978 
L 384 2195 
Q 384 2234 413 2256 
Q 442 2278 480 2278 
L 5920 2278 
z
M 5254 -781 
Q 5254 -813 5225 -835 
Q 5197 -858 5171 -858 
L 1760 -858 
Q 1459 -858 1366 -746 
Q 1274 -634 1274 -365 
L 1274 13 
Q 1274 282 1386 374 
Q 1498 467 1786 467 
L 4544 467 
Q 4634 467 4656 492 
Q 4678 518 4678 614 
L 4678 858 
Q 4678 954 4656 979 
Q 4634 1005 4544 1005 
L 1350 1005 
Q 1318 1005 1289 1024 
Q 1261 1043 1261 1075 
L 1261 1299 
Q 1261 1331 1289 1350 
Q 1318 1370 1350 1370 
L 4608 1370 
Q 4762 1370 4858 1347 
Q 4954 1325 5011 1273 
Q 5069 1222 5091 1129 
Q 5114 1037 5114 902 
L 5114 557 
Q 5114 288 5002 195 
Q 4890 102 4602 102 
L 1843 102 
Q 1754 102 1731 76 
Q 1709 51 1709 -45 
L 1709 -339 
Q 1709 -429 1734 -457 
Q 1760 -486 1850 -486 
L 5165 -486 
Q 5197 -486 5225 -505 
Q 5254 -525 5254 -557 
L 5254 -781 
z
M 5203 2880 
Q 5203 2848 5174 2825 
Q 5146 2803 5120 2803 
L 1786 2803 
Q 1485 2803 1392 2915 
Q 1299 3027 1299 3296 
L 1299 3642 
Q 1299 3910 1411 4003 
Q 1523 4096 1811 4096 
L 4525 4096 
Q 4614 4096 4636 4118 
Q 4659 4141 4659 4243 
L 4659 4506 
Q 4659 4602 4636 4627 
Q 4614 4653 4525 4653 
L 1389 4653 
Q 1357 4653 1328 4672 
Q 1299 4691 1299 4723 
L 1299 4954 
Q 1299 4986 1328 5005 
Q 1357 5024 1389 5024 
L 4595 5024 
Q 4749 5024 4845 5001 
Q 4941 4979 4998 4928 
Q 5056 4877 5078 4784 
Q 5101 4691 5101 4557 
L 5101 4186 
Q 5101 3910 4989 3820 
Q 4877 3731 4589 3731 
L 1869 3731 
Q 1779 3731 1756 3705 
Q 1734 3680 1734 3584 
L 1734 3315 
Q 1734 3226 1760 3197 
Q 1786 3168 1875 3168 
L 5114 3168 
Q 5146 3168 5174 3149 
Q 5203 3130 5203 3098 
L 5203 2880 
z
" transform="scale(0.015625)"/>
     <path id="NanumGothicCoding-ce3" d="M 1472 499 
Q 1472 768 1574 861 
Q 1677 954 1958 954 
L 4640 954 
Q 4794 954 4886 934 
Q 4979 915 5033 864 
Q 5088 813 5107 723 
Q 5126 634 5126 499 
L 5126 -390 
Q 5126 -659 5024 -752 
Q 4922 -845 4640 -845 
L 1958 -845 
Q 1805 -845 1712 -825 
Q 1619 -806 1564 -752 
Q 1510 -698 1491 -611 
Q 1472 -525 1472 -390 
L 1472 499 
z
M 3725 2413 
Q 3725 2182 3619 1993 
Q 3514 1805 3331 1664 
Q 3149 1523 2896 1446 
Q 2643 1370 2349 1370 
Q 2048 1370 1798 1446 
Q 1549 1523 1363 1664 
Q 1178 1805 1075 1997 
Q 973 2189 973 2413 
Q 973 2643 1075 2835 
Q 1178 3027 1363 3161 
Q 1549 3296 1798 3373 
Q 2048 3450 2349 3450 
Q 2643 3450 2896 3373 
Q 3149 3296 3331 3158 
Q 3514 3021 3619 2829 
Q 3725 2637 3725 2413 
z
M 2067 570 
Q 1978 570 1946 534 
Q 1914 499 1914 403 
L 1914 -294 
Q 1914 -390 1946 -425 
Q 1978 -461 2067 -461 
L 4531 -461 
Q 4621 -461 4653 -425 
Q 4685 -390 4685 -294 
L 4685 403 
Q 4685 499 4653 534 
Q 4621 570 4531 570 
L 2067 570 
z
M 3296 2413 
Q 3296 2566 3225 2691 
Q 3155 2816 3027 2902 
Q 2899 2989 2726 3037 
Q 2554 3085 2349 3085 
Q 2144 3085 1971 3037 
Q 1798 2989 1670 2902 
Q 1542 2816 1468 2691 
Q 1395 2566 1395 2413 
Q 1395 2259 1468 2134 
Q 1542 2010 1670 1920 
Q 1798 1830 1971 1782 
Q 2144 1734 2349 1734 
Q 2554 1734 2726 1782 
Q 2899 1830 3027 1920 
Q 3155 2010 3225 2134 
Q 3296 2259 3296 2413 
z
M 5120 1376 
Q 5120 1286 5030 1286 
L 4768 1286 
Q 4678 1286 4678 1376 
L 4678 4915 
Q 4678 5005 4768 5005 
L 5030 5005 
Q 5120 5005 5120 4915 
L 5120 3181 
L 6003 3181 
Q 6042 3181 6070 3158 
Q 6099 3136 6099 3098 
L 6099 2880 
Q 6099 2848 6070 2822 
Q 6042 2797 6003 2797 
L 5120 2797 
L 5120 1376 
z
M 4218 3821 
Q 4218 3738 4122 3738 
L 589 3738 
Q 557 3738 528 3763 
Q 499 3789 499 3827 
L 499 4032 
Q 499 4070 528 4096 
Q 557 4122 589 4122 
L 4122 4122 
Q 4218 4122 4218 4038 
L 4218 3821 
z
M 3283 4608 
Q 3283 4518 3187 4518 
L 1434 4518 
Q 1402 4518 1373 4540 
Q 1344 4563 1344 4602 
L 1344 4819 
Q 1344 4858 1369 4883 
Q 1395 4909 1427 4909 
L 3187 4909 
Q 3283 4909 3283 4819 
L 3283 4608 
z
" transform="scale(0.015625)"/>
     <path id="NanumGothicCoding-50b" d="M 3456 4026 
Q 3443 3680 3401 3366 
Q 3360 3053 3290 2752 
L 4038 2752 
L 4038 4806 
Q 4038 4896 4128 4896 
L 4371 4896 
Q 4461 4896 4461 4806 
L 4461 -563 
Q 4461 -653 4371 -653 
L 4128 -653 
Q 4038 -653 4038 -563 
L 4038 2368 
L 3187 2368 
Q 2835 1210 2042 378 
Q 1984 307 1920 352 
L 1734 493 
Q 1664 550 1722 608 
Q 2349 1286 2672 2108 
Q 2995 2931 3027 3955 
Q 3034 4051 2998 4086 
Q 2963 4122 2874 4122 
L 2310 4122 
Q 2234 4122 2234 4205 
L 2234 4410 
Q 2234 4486 2310 4486 
L 2976 4486 
Q 3130 4486 3226 4460 
Q 3322 4435 3373 4377 
Q 3424 4320 3443 4233 
Q 3462 4147 3456 4026 
z
M 5555 -806 
Q 5555 -896 5466 -896 
L 5222 -896 
Q 5133 -896 5133 -806 
L 5133 4915 
Q 5133 5005 5222 5005 
L 5466 5005 
Q 5555 5005 5555 4915 
L 5555 -806 
z
M 2099 4026 
Q 2048 3110 1715 2342 
Q 1382 1574 794 1011 
Q 730 947 672 998 
L 499 1171 
Q 435 1222 493 1280 
Q 1638 2368 1670 3955 
Q 1670 4051 1638 4086 
Q 1606 4122 1517 4122 
L 678 4122 
Q 602 4122 602 4205 
L 602 4410 
Q 602 4486 678 4486 
L 1619 4486 
Q 1920 4486 2016 4374 
Q 2112 4262 2099 4026 
z
" transform="scale(0.015625)"/>
     <path id="NanumGothicCoding-d1b" d="M 4288 1747 
Q 4346 1754 4362 1738 
Q 4378 1722 4384 1690 
L 4410 1485 
Q 4416 1446 4400 1427 
Q 4384 1408 4326 1395 
Q 3808 1325 3171 1280 
Q 2534 1235 1894 1235 
L 563 1235 
Q 525 1235 496 1260 
Q 467 1286 467 1318 
L 467 1510 
Q 467 1549 496 1568 
Q 525 1587 563 1587 
L 1670 1587 
Q 1805 1587 1942 1587 
Q 2080 1587 2214 1594 
L 2214 2029 
Q 1952 2048 1737 2115 
Q 1523 2182 1366 2288 
Q 1210 2394 1123 2534 
Q 1037 2675 1037 2842 
Q 1037 3027 1142 3177 
Q 1248 3328 1433 3433 
Q 1619 3539 1872 3596 
Q 2125 3654 2426 3654 
Q 2720 3654 2976 3593 
Q 3232 3533 3417 3427 
Q 3603 3322 3708 3171 
Q 3814 3021 3814 2842 
Q 3814 2675 3728 2534 
Q 3642 2394 3488 2288 
Q 3334 2182 3120 2115 
Q 2906 2048 2656 2029 
L 2656 1606 
Q 3066 1626 3466 1661 
Q 3866 1696 4288 1747 
z
M 5120 1210 
Q 5120 1120 5030 1120 
L 4768 1120 
Q 4678 1120 4678 1210 
L 4678 4915 
Q 4678 5005 4768 5005 
L 5030 5005 
Q 5120 5005 5120 4915 
L 5120 2938 
L 6003 2938 
Q 6042 2938 6070 2915 
Q 6099 2893 6099 2854 
L 6099 2637 
Q 6099 2605 6070 2579 
Q 6042 2554 6003 2554 
L 5120 2554 
L 5120 1210 
z
M 1267 723 
Q 1267 762 1299 781 
Q 1331 800 1363 800 
L 4634 800 
Q 4934 800 5027 688 
Q 5120 576 5120 314 
L 5120 -870 
Q 5120 -960 5030 -960 
L 4768 -960 
Q 4678 -960 4678 -870 
L 4678 282 
Q 4678 371 4649 393 
Q 4621 416 4531 416 
L 1363 416 
Q 1331 416 1299 438 
Q 1267 461 1267 493 
L 1267 723 
z
M 3379 2842 
Q 3379 3066 3110 3184 
Q 2842 3302 2426 3302 
Q 2221 3302 2045 3273 
Q 1869 3245 1741 3187 
Q 1613 3130 1539 3043 
Q 1466 2957 1466 2842 
Q 1466 2733 1539 2646 
Q 1613 2560 1741 2499 
Q 1869 2438 2045 2406 
Q 2221 2374 2426 2374 
Q 2842 2374 3110 2499 
Q 3379 2624 3379 2842 
z
M 4173 3955 
Q 4173 3872 4077 3872 
L 800 3872 
Q 768 3872 739 3897 
Q 710 3923 710 3962 
L 710 4147 
Q 710 4186 739 4211 
Q 768 4237 800 4237 
L 4077 4237 
Q 4173 4237 4173 4154 
L 4173 3955 
z
M 3238 4627 
Q 3238 4538 3142 4538 
L 1645 4538 
Q 1613 4538 1584 4560 
Q 1555 4582 1555 4621 
L 1555 4813 
Q 1555 4851 1580 4876 
Q 1606 4902 1638 4902 
L 3142 4902 
Q 3238 4902 3238 4813 
L 3238 4627 
z
" transform="scale(0.015625)"/>
     <path id="NanumGothicCoding-a4b" d="M 5344 832 
Q 5344 742 5254 742 
L 4992 742 
Q 4902 742 4902 832 
L 4902 4915 
Q 4902 5005 4992 5005 
L 5254 5005 
Q 5344 5005 5344 4915 
L 5344 832 
z
M 5536 -704 
Q 5536 -742 5504 -761 
Q 5472 -781 5440 -781 
L 2234 -781 
Q 1933 -781 1840 -669 
Q 1747 -557 1747 -294 
L 1747 960 
Q 1747 1050 1837 1050 
L 2099 1050 
Q 2189 1050 2189 960 
L 2189 -262 
Q 2189 -352 2217 -374 
Q 2246 -397 2336 -397 
L 5440 -397 
Q 5472 -397 5504 -419 
Q 5536 -442 5536 -474 
L 5536 -704 
z
M 3776 3232 
Q 3776 2899 3661 2620 
Q 3546 2342 3341 2144 
Q 3136 1946 2857 1834 
Q 2579 1722 2253 1722 
Q 1939 1722 1664 1830 
Q 1389 1939 1187 2140 
Q 986 2342 870 2617 
Q 755 2893 755 3232 
Q 755 3584 870 3865 
Q 986 4147 1187 4345 
Q 1389 4544 1664 4646 
Q 1939 4749 2253 4749 
Q 2547 4749 2822 4646 
Q 3098 4544 3309 4349 
Q 3520 4154 3648 3872 
Q 3776 3590 3776 3232 
z
M 3328 3238 
Q 3328 3507 3241 3715 
Q 3155 3923 3008 4060 
Q 2861 4198 2665 4268 
Q 2470 4339 2253 4339 
Q 2029 4339 1840 4268 
Q 1651 4198 1507 4060 
Q 1363 3923 1283 3715 
Q 1203 3507 1203 3238 
Q 1203 2982 1280 2777 
Q 1357 2573 1497 2429 
Q 1638 2285 1830 2205 
Q 2022 2125 2253 2125 
Q 2470 2125 2665 2205 
Q 2861 2285 3008 2429 
Q 3155 2573 3241 2777 
Q 3328 2982 3328 3238 
z
" transform="scale(0.015625)"/>
     <path id="NanumGothicCoding-5d7" d="M 5229 2893 
Q 5229 2854 5197 2835 
Q 5165 2816 5133 2816 
L 1811 2816 
Q 1510 2816 1417 2941 
Q 1325 3066 1325 3328 
L 1325 4806 
Q 1325 4896 1414 4896 
L 1677 4896 
Q 1766 4896 1766 4806 
L 1766 3341 
Q 1766 3251 1795 3225 
Q 1824 3200 1914 3200 
L 5133 3200 
Q 5165 3200 5197 3177 
Q 5229 3155 5229 3123 
L 5229 2893 
z
M 5325 -704 
Q 5325 -742 5293 -761 
Q 5261 -781 5229 -781 
L 1754 -781 
Q 1453 -781 1360 -656 
Q 1267 -531 1267 -269 
L 1267 979 
Q 1267 1069 1357 1069 
L 1619 1069 
Q 1709 1069 1709 979 
L 1709 -262 
Q 1709 -352 1737 -374 
Q 1766 -397 1856 -397 
L 5229 -397 
Q 5261 -397 5293 -419 
Q 5325 -442 5325 -474 
L 5325 -704 
z
M 5920 1958 
Q 5952 1958 5984 1936 
Q 6016 1914 6016 1875 
L 6016 1658 
Q 6016 1626 5984 1600 
Q 5952 1574 5920 1574 
L 480 1574 
Q 442 1574 413 1600 
Q 384 1626 384 1658 
L 384 1875 
Q 384 1914 413 1936 
Q 442 1958 480 1958 
L 5920 1958 
z
" transform="scale(0.015625)"/>
     <path id="NanumGothicCoding-b30" d="M 3411 3213 
Q 3302 2925 3145 2656 
Q 2989 2387 2784 2131 
Q 2906 1978 3066 1818 
Q 3226 1658 3392 1517 
Q 3558 1376 3728 1261 
Q 3898 1146 4051 1069 
Q 4122 1030 4077 954 
L 3955 742 
Q 3910 666 3827 717 
Q 3674 806 3501 931 
Q 3328 1056 3158 1203 
Q 2989 1350 2825 1510 
Q 2662 1670 2522 1830 
Q 2170 1453 1734 1139 
Q 1299 826 806 589 
Q 717 544 685 608 
L 563 819 
Q 544 851 560 886 
Q 576 922 608 934 
Q 1382 1306 1968 1862 
Q 2554 2419 2925 3187 
Q 2970 3277 2938 3315 
Q 2906 3354 2816 3354 
L 877 3354 
Q 800 3354 800 3437 
L 800 3661 
Q 800 3738 890 3738 
L 2989 3738 
Q 3322 3738 3421 3619 
Q 3520 3501 3411 3213 
z
M 5120 -806 
Q 5120 -896 5030 -896 
L 4768 -896 
Q 4678 -896 4678 -806 
L 4678 4915 
Q 4678 5005 4768 5005 
L 5030 5005 
Q 5120 5005 5120 4915 
L 5120 2586 
L 6003 2586 
Q 6042 2586 6070 2563 
Q 6099 2541 6099 2502 
L 6099 2285 
Q 6099 2253 6070 2227 
Q 6042 2202 6003 2202 
L 5120 2202 
L 5120 -806 
z
M 2982 4710 
Q 3078 4710 3078 4621 
L 3078 4416 
Q 3078 4320 2982 4320 
L 1402 4320 
Q 1306 4320 1306 4416 
L 1306 4621 
Q 1306 4710 1402 4710 
L 2982 4710 
z
" transform="scale(0.015625)"/>
     <path id="NanumGothicCoding-c5f" d="M 5222 1766 
Q 5222 1677 5139 1677 
L 1683 1677 
Q 1402 1677 1299 1769 
Q 1197 1862 1197 2131 
L 1197 4211 
Q 1197 4480 1299 4573 
Q 1402 4666 1683 4666 
L 5094 4666 
Q 5178 4666 5178 4582 
L 5178 4371 
Q 5178 4282 5094 4282 
L 1792 4282 
Q 1702 4282 1670 4246 
Q 1638 4211 1638 4115 
L 1638 3360 
L 5005 3360 
Q 5094 3360 5094 3290 
L 5094 3072 
Q 5094 2989 5011 2989 
L 1638 2989 
L 1638 2227 
Q 1638 2138 1670 2099 
Q 1702 2061 1792 2061 
L 5139 2061 
Q 5222 2061 5222 1978 
L 5222 1766 
z
M 5920 499 
Q 5952 499 5984 476 
Q 6016 454 6016 416 
L 6016 198 
Q 6016 166 5984 140 
Q 5952 115 5920 115 
L 480 115 
Q 442 115 413 140 
Q 384 166 384 198 
L 384 416 
Q 384 454 413 476 
Q 442 499 480 499 
L 5920 499 
z
" transform="scale(0.015625)"/>
     <path id="NanumGothicCoding-5ee" d="M 4211 1171 
Q 4224 1082 4128 1062 
Q 3891 1005 3529 953 
Q 3168 902 2768 864 
Q 2368 826 1977 806 
Q 1587 787 1299 794 
Q 1011 800 905 928 
Q 800 1056 800 1325 
L 800 4077 
Q 800 4346 902 4435 
Q 1005 4525 1286 4525 
L 3488 4525 
Q 3571 4525 3571 4448 
L 3571 4218 
Q 3571 4141 3488 4141 
L 1370 4141 
Q 1280 4141 1261 4118 
Q 1242 4096 1242 4000 
L 1242 1357 
Q 1242 1261 1274 1229 
Q 1306 1197 1395 1190 
Q 1702 1178 2044 1194 
Q 2387 1210 2736 1245 
Q 3085 1280 3421 1328 
Q 3757 1376 4058 1434 
Q 4160 1453 4179 1363 
L 4211 1171 
z
M 5120 -806 
Q 5120 -896 5030 -896 
L 4768 -896 
Q 4678 -896 4678 -806 
L 4678 4915 
Q 4678 5005 4768 5005 
L 5030 5005 
Q 5120 5005 5120 4915 
L 5120 2586 
L 6003 2586 
Q 6042 2586 6070 2563 
Q 6099 2541 6099 2502 
L 6099 2285 
Q 6099 2253 6070 2227 
Q 6042 2202 6003 2202 
L 5120 2202 
L 5120 -806 
z
" transform="scale(0.015625)"/>
     <path id="NanumGothicCoding-f" d="M 1210 -256 
Q 1210 -96 1325 19 
Q 1440 134 1600 134 
Q 1760 134 1872 19 
Q 1984 -96 1984 -256 
Q 1984 -416 1872 -531 
Q 1760 -646 1600 -646 
Q 1440 -646 1325 -531 
Q 1210 -416 1210 -256 
z
" transform="scale(0.015625)"/>
    </defs>
    <use xlink:href="#NanumGothicCoding-13"/>
    <use xlink:href="#NanumGothicCoding-11" transform="translate(50 0)"/>
    <use xlink:href="#NanumGothicCoding-13" transform="translate(100 0)"/>
    <use xlink:href="#NanumGothicCoding-15" transform="translate(150 0)"/>
    <use xlink:href="#NanumGothicCoding-599" transform="translate(200 0)"/>
    <use xlink:href="#NanumGothicCoding-1" transform="translate(300 0)"/>
    <use xlink:href="#NanumGothicCoding-44a" transform="translate(350 0)"/>
    <use xlink:href="#NanumGothicCoding-569" transform="translate(450 0)"/>
    <use xlink:href="#NanumGothicCoding-4b3" transform="translate(550 0)"/>
    <use xlink:href="#NanumGothicCoding-1" transform="translate(650 0)"/>
    <use xlink:href="#NanumGothicCoding-92a" transform="translate(700 0)"/>
    <use xlink:href="#NanumGothicCoding-462" transform="translate(800 0)"/>
    <use xlink:href="#NanumGothicCoding-6d0" transform="translate(900 0)"/>
    <use xlink:href="#NanumGothicCoding-1" transform="translate(1000 0)"/>
    <use xlink:href="#NanumGothicCoding-4dd" transform="translate(1050 0)"/>
    <use xlink:href="#NanumGothicCoding-ab3" transform="translate(1150 0)"/>
    <use xlink:href="#NanumGothicCoding-d" transform="translate(1250 0)"/>
    <use xlink:href="#NanumGothicCoding-1" transform="translate(1300 0)"/>
    <use xlink:href="#NanumGothicCoding-7c5" transform="translate(1350 0)"/>
    <use xlink:href="#NanumGothicCoding-91d" transform="translate(1450 0)"/>
    <use xlink:href="#NanumGothicCoding-cd2" transform="translate(1550 0)"/>
    <use xlink:href="#NanumGothicCoding-703" transform="translate(1650 0)"/>
    <use xlink:href="#NanumGothicCoding-a37" transform="translate(1750 0)"/>
    <use xlink:href="#NanumGothicCoding-1" transform="translate(1850 0)"/>
    <use xlink:href="#NanumGothicCoding-aba" transform="translate(1900 0)"/>
    <use xlink:href="#NanumGothicCoding-994" transform="translate(2000 0)"/>
    <use xlink:href="#NanumGothicCoding-447" transform="translate(2100 0)"/>
    <use xlink:href="#NanumGothicCoding-68" transform="translate(2200 0)"/>
    <use xlink:href="#NanumGothicCoding-819" transform="translate(2300 0)"/>
    <use xlink:href="#NanumGothicCoding-891" transform="translate(2400 0)"/>
    <use xlink:href="#NanumGothicCoding-68" transform="translate(2500 0)"/>
    <use xlink:href="#NanumGothicCoding-a49" transform="translate(2600 0)"/>
    <use xlink:href="#NanumGothicCoding-89a" transform="translate(2700 0)"/>
    <use xlink:href="#NanumGothicCoding-b96" transform="translate(2800 0)"/>
    <use xlink:href="#NanumGothicCoding-733" transform="translate(2900 0)"/>
    <use xlink:href="#NanumGothicCoding-1" transform="translate(3000 0)"/>
    <use xlink:href="#NanumGothicCoding-ce3" transform="translate(3050 0)"/>
    <use xlink:href="#NanumGothicCoding-50b" transform="translate(3150 0)"/>
    <use xlink:href="#NanumGothicCoding-1" transform="translate(3250 0)"/>
    <use xlink:href="#NanumGothicCoding-d1b" transform="translate(3300 0)"/>
    <use xlink:href="#NanumGothicCoding-a4b" transform="translate(3400 0)"/>
    <use xlink:href="#NanumGothicCoding-cde" transform="translate(3500 0)"/>
    <use xlink:href="#NanumGothicCoding-5d7" transform="translate(3600 0)"/>
    <use xlink:href="#NanumGothicCoding-1" transform="translate(3700 0)"/>
    <use xlink:href="#NanumGothicCoding-b30" transform="translate(3750 0)"/>
    <use xlink:href="#NanumGothicCoding-c5f" transform="translate(3850 0)"/>
    <use xlink:href="#NanumGothicCoding-5ee" transform="translate(3950 0)"/>
    <use xlink:href="#NanumGothicCoding-f" transform="translate(4050 0)"/>
   </g>
  </g>
 </g>
 <defs>
  <clipPath id="pba1f998481">
   <rect x="49.2" y="59.4" width="585.9" height="313.2"/>
  </clipPath>
 </defs>
</svg>
